<?xml version="1.0" standalone="no"?>
<!DOCTYPE svg PUBLIC "-//W3C//DTD SVG 1.1//EN" "http://www.w3.org/Graphics/SVG/1.1/DTD/svg11.dtd" >
<svg>
<metadata>
Created by FontForge 20090914 at Tue Sep 29 06:58:56 2020
 By www-data
Copyright (c) 2008 CTRC
</metadata>
<defs>
<font id="Qomolangma-UchenSarchen" horiz-adv-x="0" >
  <font-face 
    font-family="Qomolangma-Uchen Sarchen"
    font-weight="400"
    font-stretch="normal"
    units-per-em="1890"
    panose-1="1 1 1 0 1 1 1 1 1 1"
    ascent="1512"
    descent="-378"
    x-height="810"
    cap-height="1200"
    bbox="-2063 -1894 2822.99 2016"
    underline-thickness="102"
    underline-position="-849"
    unicode-range="U+0020-U+301F"
  />
<missing-glyph horiz-adv-x="1325" 
d="M971 -248h-546v1531h546v-1531zM905 -182v1397h-414v-1397h414z" />
    <glyph glyph-name="tibtGha_tibtU.blws" unicode="&#xf43;&#xf74;" horiz-adv-x="1343" 
d="M656 -292c7.33301 -4.66699 12.9971 -0.669922 16.9971 11.9971c0 85.333 -7.66699 159 -23 221c55.333 58.667 131 88 227 88c96 -0.666992 153.333 -37 172 -109c-6 -65.333 -89 -169 -249 -311c-10 -26 -3 -37 21 -33c56 46 115 90 177 132l-55 -132
c18.667 -4 44.334 -10.5 77.001 -19.5s49.334 -22.833 50.001 -41.5c-32.667 -60 -78.667 -87.667 -138 -83c-106.667 9.33301 -232.5 62 -377.5 158s-264.5 182 -358.5 258l-105 -150c120 -96 241 -180.333 363 -253s250 -112 384 -118c60.667 2 136.334 22 227.001 60
s140.334 93.667 149.001 167c-2.66699 62.667 -26.334 105 -71.001 127s-89 35 -133 39c107.333 68 168.333 158.667 183 272c-4 52.667 -31 98.834 -81 138.501s-102.333 61.5 -157 65.5c-139.333 -16 -250.333 -82.667 -333 -200c-92 98 -195 144.667 -309 140
c-22 36 -33 71 -33 105c18 30.667 51 43 99 37h835v815h-1018v-99c-42 -63.333 -62 -104.333 -60 -123c6.66699 -35.333 19 -72 37 -110h-82v-189h238c131.333 0 251.333 -35 360 -105h-366v-111c-68 -40 -103 -82.333 -105 -127c5.33301 -31.333 16.333 -62.333 33 -93h-78
l-16 -189c106 12.667 204.5 3.33398 295.5 -27.999s158.833 -101.666 203.5 -210.999v0zM715.997 466.997c-2 153.333 -16.3311 299.332 -42.998 437.999h376c25.333 -6 49.666 -53.167 72.999 -141.5s37.666 -187.166 42.999 -296.499h-449v0zM571.999 904.996
c30 -54 58 -130 84 -228c-132.667 72 -271 100 -415 84c-21.333 37.333 -36.333 74 -45 110c6 30 32 41.333 78 34h298v0z" />
    <glyph glyph-name="tibtDdha_tibtU.blws" unicode="&#xf4d;&#xf74;" horiz-adv-x="1337" 
d="M1109 880l0.000976562 210.001h-998v-210h930c8 -9.33301 15.667 -26 23 -50c-2 -24 -9.66699 -55.333 -23 -94h-531c-238 -8 -369.5 -97.333 -394.5 -268s-42.833 -380.334 -53.5 -629.001c10.667 -41.333 27 -32.333 49 27c21.333 248 57.166 427.667 107.499 539
s171.5 166 363.5 164h282c87.333 2 174.333 -9 261 -33c22 -16.667 36.667 -18.667 44 -6v183l-60 23c4.66699 36.667 10 68 16 94c-8 18 -17.333 34.667 -28 50h12v0zM782.001 -337.999c-11.333 -24 -2.33496 -33.667 26.998 -29l206 166.5
c78.667 65 123 135.167 133 210.5c-13.333 128 -84 189 -212 183c-122 -11.333 -218 -67 -288 -167c-60.667 58 -128.667 91.667 -204 101c-30 44 -45 81 -45 111c19.333 30.667 53 43 101 37h669v167h-747c8.66699 -59.333 -6.33301 -109 -45 -149
c-18 -20.667 -30.667 -43 -38 -67c5.33301 -29.333 20 -60.333 44 -93h-89l-16 -167c60.667 2 129.334 -1.16699 206.001 -9.5s144.334 -38.5 203.001 -90.5c9.33301 -13.333 24.333 -20.333 45 -21c-6 60 -23 108 -51 144c47.333 42 108.333 62 183 60
c80 4 126.667 -27.667 140 -95c-6 -44 -35.833 -94.5 -89.5 -151.5l-132.5 -140.5v0zM1041 -222.999l-60.002 -165.001c94 -6 136.667 -30 128 -72c-19.333 -38.667 -56.333 -55.667 -111 -51c-83.333 8 -211.666 49.333 -384.999 124l-440 187l-62 -188l374.5 -138.5
c149.667 -53.667 279.834 -83.5 390.501 -89.5c77.333 2 157.5 21 240.5 57s128.5 91 136.5 165c-4 64 -26.833 107.833 -68.5 131.5s-89.5 36.834 -143.5 39.501v0z" />
    <glyph glyph-name="tibtDha_tibtU.blws" unicode="&#xf52;&#xf74;" horiz-adv-x="1347" 
d="M1270 359c11.333 -4 16.998 1.66602 16.998 16.999c-45.333 106.667 -128 192.834 -248 258.501s-235 99.5 -345 101.5h-304c-47.333 0 -90 -2 -128 -6c-26 34.667 -42.333 68 -49 100c0.666992 25.333 7.66699 49.333 21 72h975v188h-975
c-3.33301 -85.333 -29 -161 -77 -227c-6 0 -8 -11 -6 -33c9.33301 -30 28 -65.333 56 -106l-78 -11l-44 -187c112 12.667 228 19.667 348 21h200c112.667 2 225.334 -9.5 338.001 -34.5s212.334 -76.167 299.001 -153.5v0zM875.998 -427.001
c78 -8 111.502 -27.5 100.502 -58.5s-61.167 -49.833 -150.5 -56.5c-58.667 2 -145.834 41.5 -261.501 118.5l-435.5 284.5l-105 -144l377 -228.5c125.333 -76.333 245 -118.166 359 -125.499c57.333 0 130.166 17.5 218.499 52.5s137.5 87.5 147.5 157.5
c-20.667 77.333 -65 120 -133 128c72 76.667 116.333 163 133 259c-4 57.333 -26.667 106.666 -68 147.999s-89 64 -143 68c-131.333 -14.667 -240 -70 -326 -166c-82 66.667 -169 100 -261 100c-20 31.333 -31 57 -33 77c9.33301 30 22.333 54 39 72h770v183h-809
c7.33301 -66 -3.66699 -127 -33 -183c-12.667 -22 -22 -46 -28 -72c8 -25.333 19 -51 33 -77h-99l-17 -166c79.333 4 161.5 1.16699 246.5 -8.5s161.5 -47.5 229.5 -113.5c18.667 -18.667 30 -15 34 11c-12.667 46 -27.667 90.333 -45 133c50 42 111 62 183 60
c111.333 2 172.333 -47.333 183 -148c-6 -72 -28.333 -138.667 -67 -200h6l-45 -105v0z" />
    <glyph glyph-name="tibtBha_tibtU.blws" unicode="&#xf57;&#xf74;" horiz-adv-x="1343" 
d="M328 215c-4.66699 76 12.001 118.666 50.001 127.999h703v115c24 -24 59 -42.333 105 -55v687h-957v-95c-54 -48 -82 -90.333 -84 -127l23 -93h-83l-22 -167h426c180.667 0 350.667 -33 510 -99h-665v-94c-42.667 -50 -63 -85 -61 -105c-3.33301 -32 2 -63.667 16 -95
h-76l-23 -166c155.333 24 305 -18.667 449 -128c14.667 -6.66699 23.667 -4.66699 27 6c-13.333 37.333 -26 67 -38 89c60 54 131.667 85.333 215 94c98 3.33301 150 -37 156 -121c-4 -47.333 -29 -98.166 -75 -152.499l-147 -174.5c-18 -30 -16 -39.667 6 -29
c64 43.333 137.667 107.5 221 192.5s129.666 166.833 138.999 245.5c-9.33301 124 -76 186.667 -200 188c-142 -14 -258.333 -80 -349 -198c-70 100.667 -158.667 152 -266 154v0zM229.001 774.999c-8.66699 36.667 -14 67.667 -16 93c6.66699 26 19.667 44.333 39 55h769
c86 -86 126.667 -196.333 122 -331c-196 118 -408.667 179 -638 183h-276v0zM190.001 -95.001l-82.001 -144l286 -167c58 -36 132.333 -78.5 223 -127.5s179 -75.833 265 -80.5c82.667 0 162.834 12.5 240.501 37.5s119.5 67.5 125.5 127.5c-6 50 -28.833 90.667 -68.5 122
s-72.5 53 -98.5 65l-105 -144l77.5 -29.5c29.667 -11 46.5 -26.5 50.5 -46.5c-13.333 -29.333 -59.333 -46 -138 -50c-69.333 13.333 -188 73.5 -356 180.5s-308 192.5 -420 256.5v0z" />
    <glyph glyph-name="tibtDzha_tibtU.blws" unicode="&#xf5c;&#xf74;" horiz-adv-x="1337" 
d="M1209 193c16 -4 25.002 3.33301 27.002 22c-60.667 94 -140.834 175.5 -240.501 244.5s-203.834 105.5 -312.501 109.5h-510l6 105h868v144h-858l6 105h792v117c52 -46 107.667 -92 167 -138c60 62 87.333 135.667 82 221c-6 74 -13.333 146 -22 216
c-7.33301 6 -15 6 -23 0c-4.66699 -72 -17 -149.667 -37 -233l-84 84l-89 -100h-891v-167h44l-44 -520c63.333 12.667 131.333 20 204 22h389c194 0 369.333 -77.333 526 -232v0zM654.002 -449c-4.66699 -19.333 4.99902 -23 28.999 -11c58.667 36 128 88.333 208 157
s125 142 135 220c-12.667 116 -83 175 -211 177c-125.333 -17.333 -225 -78.333 -299 -183c-76 88 -157 132 -243 132c-20.667 32 -31.667 58 -33 78c7.33301 26 20 44.333 38 55h664v167h-685c8.66699 -61.333 -6.33301 -113.333 -45 -156c-18 -20 -31 -42 -39 -66
c2 -13.333 13 -37.333 33 -72h-72l-21 -167c144.667 26 290 -14.333 436 -121c9.33301 -5.33301 17 -5.33301 23 0c-7.33301 48 -16.333 85 -27 111c50.667 52 116.667 76 198 72c80 6 126.333 -23.667 139 -89c-8 -50 -39.167 -102.667 -93.5 -158
s-99.166 -104 -134.499 -146v0zM987.001 -262l-66.001 -165.001c7.33301 -2 29 -6.16699 65 -12.5s56.333 -26.166 61 -59.499c-8.66699 -30.667 -39.667 -49 -93 -55c-124 10 -270.5 53 -439.5 129s-302.833 138 -401.5 186l-62 -188l364 -147
c122.667 -48 256 -74.333 400 -79c68.667 0 146.334 16.5 233.001 49.5s134.334 87.833 143.001 164.5c-2.66699 67.333 -25.334 113 -68.001 137s-88 37.333 -136 40v0z" />
    <glyph glyph-name="tibtKssa_tibtU.blws" unicode="&#xf69;&#xf74;" horiz-adv-x="1349" 
d="M1167 154c10.667 -11.333 21.6699 -11.3369 33.0029 -0.00390625v936h-1101v-188h111c6.66699 -34 12 -69.333 16 -106c-14.667 -79.333 -64.667 -142 -150 -188l150 -99c83.333 59.333 122 129.333 116 210c-11.333 74 -30 135 -56 183h261
c29.333 -10 54.666 -64.167 75.999 -162.5s38.666 -190.166 51.999 -275.499h-576v-1101c10.667 -16.667 25 -14.667 43 6l23 260c100 -63.333 214 -131.666 342 -204.999s244.333 -114 349 -122c72 2 149.333 26 232 72s127.334 107 134.001 183
c-4 56.667 -27 93.334 -69 110.001s-81.333 33.334 -118 50.001l-84 -166c16.667 -11.333 43.5 -21.666 80.5 -30.999s58.167 -23 63.5 -41c-3.33301 -12 -21.666 -22.833 -54.999 -32.5s-64.666 -15.5 -93.999 -17.5c-84.667 8 -189.5 49.5 -314.5 124.5
s-232.5 144.167 -322.5 207.5l-144 -122c8.66699 166 21.667 330.667 39 494c76 -78 156.667 -145.333 242 -202s183.666 -85.334 294.999 -86.001c42 0.666992 84.333 6 127 16c-50 -88.667 -77.333 -184.667 -82 -288c0 -6 4.5 -13 13.5 -21s16.833 -1 23.5 21
c19.333 94 68.166 169.5 146.499 226.5s168.166 92.167 269.499 105.5l-39 166c-86 -16.667 -161.667 -44 -227 -82c11.333 36 17 71 17 105c-4 76.667 -20.667 137 -50 181h72v189h-288v438h233c66 -20.667 113.667 -121 143 -301s51.666 -329 66.999 -447v0z
M868.003 274.996c26 -40 46 -93.333 60 -160c-10.667 -73.333 -62 -108.333 -154 -105c-186 18.667 -341 107 -465 265h559v0z" />
    <glyph glyph-name="tibtKssa_tibtStack2_Rt.blws" unicode="&#xf69;&#xfb2;" horiz-adv-x="1349" 
d="M868 275c26 -40 46 -93.333 60 -160c-10.667 -73.333 -62 -108.333 -154 -105c-186 18.667 -341 107 -465 265h559zM169 -400c-4 0 -7.66699 -0.666016 -11 -1.99902c17.333 232 32.666 410.333 45.999 535c76 -78 156.667 -145.333 242 -202
s183.666 -85.334 294.999 -86.001c42 0.666992 84.333 6 127 16c-48.667 -86 -76 -179 -82 -279h-71c-111.333 0 -218.166 -16.5 -320.499 -49.5s-182.166 -89.833 -239.499 -170.5l-9 61l11 160zM970 -199.999c78 56.667 167.669 91.666 269.002 104.999l-39 166
c-86 -16.667 -161.667 -44 -227 -82c11.333 36 17 71 17 105c-4 76.667 -20.667 137 -50 181h72v189h-288v438h233c66 -20.667 113.667 -121 143 -301s51.666 -329 66.999 -447c10.667 -11.333 21.667 -11.333 33 0v936h-1101v-188h111c6.66699 -34 12 -69.333 16 -106
c-14.667 -79.333 -64.667 -142 -150 -188l150 -99c83.333 59.333 122 129.333 116 210c-11.333 74 -30 135 -56 183h261c29.333 -10 54.666 -64.167 75.999 -162.5s38.666 -190.166 51.999 -275.499h-576v-1101c0.666992 -1.33301 1.33398 -2.33301 2.00098 -3v-210h5
c10.667 2 21.667 12 33 30c156.667 108 334.667 166.667 534 176h160c109.333 -2 218 -9 326 -21v231c-119.333 10.667 -221 16 -305 16h-29c20.667 90 69 162.667 145 218z" />
    <glyph glyph-name="tibtKssa_tibtStack2_Ra.blws" unicode="&#xf69;&#xfbc;" horiz-adv-x="1349" 
d="M868 275c26 -40 46 -93.333 60 -160c-10.667 -73.333 -62 -108.333 -154 -105c-186 18.667 -341 107 -465 265h559zM193 -380l0.00390625 -150.001h393c44 0 71.333 -33 82 -99c-162 6.66699 -315 -8.33301 -459 -45l-16 -122c136.667 24 265.667 37 387 39h178
c123.333 -2 245 -42.333 365 -121l66 -66c6.66699 -6.66699 13.667 -15 21 -25h60c-42 112 -97.333 192 -166 240c-87.333 60.667 -212 94 -374 100c0 38.667 -7.66699 71.667 -23 99h521v150h-392c24 72.667 68.667 132.667 134 180c78 56.667 167.667 91.667 269 105
l-39 166c-86 -16.667 -161.667 -44 -227 -82c11.333 36 17 71 17 105c-4 76.667 -20.667 137 -50 181h72v189h-288v438h233c66 -20.667 113.667 -121 143 -301s51.666 -329 66.999 -447c10.667 -11.333 21.667 -11.333 33 0v936h-1101v-188h111
c6.66699 -34 12 -69.333 16 -106c-14.667 -79.333 -64.667 -142 -150 -188l150 -99c83.333 59.333 122 129.333 116 210c-11.333 74 -30 135 -56 183h261c29.333 -10 54.666 -64.167 75.999 -162.5s38.666 -190.166 51.999 -275.499h-576v-1101
c10.667 -16.667 25 -14.667 43 6c24 346 44.667 600.667 62 764c76 -78 156.667 -145.333 242 -202s183.666 -85.334 294.999 -86.001c42 0.666992 84.333 6 127 16c-42.667 -75.333 -68.667 -155.666 -78 -240.999h-597z" />
    <glyph glyph-name=".notdef" horiz-adv-x="1325" 
d="M971 -248h-546v1531h546v-1531zM905 -182v1397h-414v-1397h414z" />
    <glyph glyph-name="space" unicode=" " horiz-adv-x="453" 
 />
    <glyph glyph-name="exclam" unicode="!" horiz-adv-x="604" 
d="M318 324h-33.001l-78 716l-3.5 41c-1 12 -1.5 21.667 -1.5 29c0 36.667 9.66699 66.167 29 88.5s43 33.5 71 33.5c28.667 0 52.334 -11 71.001 -33s28 -55.333 28 -100c0 -13.333 -1.33301 -33 -4 -59zM300.999 176c26.667 0 49.665 -9.66895 68.998 -29.002
s29 -41.666 29 -66.999c0 -27.333 -9.5 -50.666 -28.5 -69.999s-42.167 -29 -69.5 -29s-50.666 9.66699 -69.999 29s-29 42.666 -29 69.999c0 26.667 9.83301 49.334 29.5 68.001s42.834 28 69.501 28z" />
    <glyph glyph-name="quotedbl" unicode="&#x22;" horiz-adv-x="740" 
d="M510 538l-66.999 365.999c-1.33301 6.66699 -2 13.667 -2 21v22c0 37.333 8.16699 64.5 24.5 81.5s38.166 25.5 65.499 25.5c25.333 0 46.5 -8.5 63.5 -25.5s25.5 -39.833 25.5 -68.5c0 -51.333 -6 -105.666 -18 -162.999l-50 -259h-42zM187.001 537.999l-48.999 260.999
c-13.333 72.667 -20 122 -20 148c0 37.333 8 64.5 24 81.5s37 25.5 63 25.5c25.333 0 46.666 -8.83301 63.999 -26.5s26 -40.5 26 -68.5c0 -21.333 -7.66699 -74.666 -23 -159.999l-47 -261h-38z" />
    <glyph glyph-name="numbersign" unicode="#" horiz-adv-x="906" 
d="M102 -19l81 403h-150v72h165l61 304h-226v70h243l80 402h74l-80 -402h297l86 402h74l-85 -402h151v-70h-164l-62 -304h226v-72h-241l-82 -403h-72l80 403h-299l-83 -403h-74zM272 456h300l64 304h-302z" />
    <glyph glyph-name="dollar" unicode="$" horiz-adv-x="906" 
d="M95 329h39.998c6.66699 -81.333 31.834 -143.166 75.501 -185.499s109.834 -67.833 198.501 -76.5v516c-133.333 81.333 -221.666 154 -264.999 218c-32 44.667 -48 99 -48 163c0 36 6.83301 70.333 20.5 103s33.667 61.834 60 87.501s59.166 47 98.499 64
s84 28.167 134 33.5v82h56v-82c48 -2.66699 88.667 -8 122 -16c9.33301 -2.66699 27.833 -9.33398 55.5 -20.001s66.167 -24.667 115.5 -42v-264h-36c-8 93.333 -32.167 161.833 -72.5 205.5s-101.833 69.5 -184.5 77.5v-449c74.667 -52 135.667 -97.167 183 -135.5
s81.666 -69.833 102.999 -94.5c41.333 -50 62.333 -111 63 -183c0 -40 -7.83301 -78.5 -23.5 -115.5s-38.5 -70 -68.5 -99s-66.5 -53 -109.5 -72s-92.167 -30.833 -147.5 -35.5v-114h-56v114c-28.667 0.666992 -55.667 2.5 -81 5.5s-50.5 7.16699 -75.5 12.5
s-50.167 12.166 -75.5 20.499s-52.666 18.5 -81.999 30.5v251zM464.998 67c68.667 12 120.669 37.834 156.002 77.501s53 87.167 53 142.5c0 19.333 -1.83301 37.666 -5.5 54.999s-12.834 35.333 -27.501 54s-35.834 40 -63.501 64s-65.167 52 -112.5 84v-477zM409 781.001
l-0.000976562 411.999c-60 -7.33301 -104 -26.166 -132 -56.499s-42 -68.833 -42 -115.5c0 -21.333 2.83301 -41.833 8.5 -61.5s15.334 -39.167 29.001 -58.5s31.5 -39 53.5 -59s49.667 -40.333 83 -61z" />
    <glyph glyph-name="percent" unicode="%" horiz-adv-x="1510" 
d="M323 1238c40 0 75.667 -9.1709 107 -27.5039s57.666 -42.666 78.999 -72.999s37.5 -65.166 48.5 -104.499s16.5 -79.666 16.5 -120.999c0 -51.333 -6.83301 -96.833 -20.5 -136.5s-32 -73.334 -55 -101.001s-49.667 -48.667 -80 -63s-62.833 -21.5 -97.5 -21.5
c-33.333 0 -65.5 7.33301 -96.5 22s-58.5 35.834 -82.5 63.501s-43 61.334 -57 101.001s-21 84.834 -21 135.501c0 53.333 7.5 100.166 22.5 140.499s34.833 74.333 59.5 102s52.334 48.5 83.001 62.5s62 21 94 21zM1191 606.996c37.333 0 71.4971 -8.5 102.497 -25.5
s57.833 -40 80.5 -69s40.334 -63.167 53.001 -102.5s19 -81.333 19 -126c0 -52 -6.83301 -98 -20.5 -138s-32.167 -73.667 -55.5 -101s-50.166 -48 -80.499 -62s-62.166 -21 -95.499 -21c-36 0 -69.5 8.16699 -100.5 24.5s-58.167 38.833 -81.5 67.5s-41.5 62.5 -54.5 101.5
s-19.5 81.833 -19.5 128.5c0 52.667 7.5 99 22.5 139s34.333 73.667 58 101s50.667 48 81 62s60.833 21 91.5 21zM319.997 1190c-14.667 0 -29.168 -3.83398 -43.501 -11.501s-26.666 -21.667 -36.999 -42s-18.666 -48.166 -24.999 -83.499s-9.5 -81.666 -9.5 -138.999
c0 -87.333 8.33301 -155.666 25 -204.999s45.667 -74 87 -74c35.333 0 63.666 23.167 84.999 69.5s32 114.166 32 203.499c0 93.333 -10 163.666 -30 210.999s-48 71 -84 71zM1191 559.995c-16.667 0 -31.833 -4.99902 -45.5 -14.999s-25.5 -26 -35.5 -48
s-17.667 -51.167 -23 -87.5s-8 -79.833 -8 -130.5c0 -92.667 10.167 -160.334 30.5 -203.001s47.5 -64 81.5 -64c32.667 0 60.167 22 82.5 66s33.5 112.333 33.5 205c0 93.333 -10 162.833 -30 208.5s-48.667 68.5 -86 68.5zM1232 1238l-874 -1276h-79l874 1276h79z" />
    <glyph glyph-name="ampersand" unicode="&#x26;" horiz-adv-x="1408" 
d="M924 779l371.999 0.00488281v-33c-50.667 -3.33301 -89 -14.666 -115 -33.999c-9.33301 -8 -24.166 -27.833 -44.499 -59.5l-69.5 -111.5l-84.5 -134c-30.333 -46.667 -60.5 -88.667 -90.5 -126c53.333 -61.333 100.333 -104.333 141 -129s82.334 -37 125.001 -37
c41.333 0 75.833 11.167 103.5 33.5s47.5 55.166 59.5 98.499l33 -25c-22 -82.667 -57.167 -143.834 -105.5 -183.501s-104.5 -59.5 -168.5 -59.5c-48.667 0 -97.834 13.167 -147.501 39.5s-103.834 70.833 -162.501 133.5c-37.333 -32.667 -71.833 -60 -103.5 -82
s-62.667 -39.833 -93 -53.5s-60.833 -23.334 -91.5 -29.001s-63.334 -8.5 -98.001 -8.5c-49.333 0 -93.5 7 -132.5 21s-72.167 33.167 -99.5 57.5s-48.5 52.333 -63.5 84s-22.5 65.5 -22.5 101.5c0 71.333 26 142.333 78 213c25.333 36 61.833 72.167 109.5 108.5
s107.5 73.833 179.5 112.5c-14 32 -25.667 60 -35 84s-16.833 46.167 -22.5 66.5s-9.66699 39.833 -12 58.5s-3.5 37 -3.5 55c0 44 8.16699 84.167 24.5 120.5s38.333 67.166 66 92.499s60.334 44.833 98.001 58.5s77.834 20.5 120.501 20.5c34.667 0 66.5 -5.5 95.5 -16.5
s54 -26.167 75 -45.5s37.5 -42.166 49.5 -68.499s18 -54.5 18 -84.5c0 -32 -4.83301 -61.333 -14.5 -88s-26 -52.5 -49 -77.5s-53 -49.833 -90 -74.5s-82.833 -51.334 -137.5 -80.001c38 -66.667 76.333 -130.334 115 -191.001s78.667 -118.667 120 -174
c103.333 122 155 226.333 155 313c0 22.667 -6.66699 44.167 -20 64.5s-34 32.166 -62 35.499v33zM722.999 203.005l-99.499 138c-27 38.667 -47.833 70.334 -62.5 95.001c-29.333 48 -62.333 108.667 -99 182c-142 -82 -213 -179.667 -213 -293
c0 -30.667 5.33301 -60.5 16 -89.5s25.667 -54.5 45 -76.5s43.166 -39.667 71.499 -53s59.5 -20 93.5 -20c18.667 0 36.5 1.5 53.5 4.5s35 8.66699 54 17s39.667 20.166 62 35.499s48.5 35.333 78.5 60zM586 755.005c146 69.333 219.002 158.333 219.002 267
c0 42 -13 76.833 -39 104.5s-58.667 41.5 -98 41.5c-26.667 0 -49.667 -5 -69 -15s-35.333 -23 -48 -39s-22.334 -33.167 -29.001 -51.5s-10 -35.833 -10 -52.5c0 -15.333 1.16699 -30.333 3.5 -45s6.16602 -31.5 11.499 -50.5s12.833 -41.333 22.5 -67z" />
    <glyph glyph-name="quotesingle" unicode="'" horiz-adv-x="327" 
d="M141 538l-47.999 260.998c-6.66699 37.333 -11.834 68 -15.501 92s-5.5 42.667 -5.5 56c0 37.333 7.66699 64.5 23 81.5s36.333 25.5 63 25.5c26 0 47.833 -8.5 65.5 -25.5s26.5 -39.833 26.5 -68.5c-0.666992 -11.333 -2.5 -30.166 -5.5 -56.499
s-8.5 -61.166 -16.5 -104.499l-49 -261h-38z" />
    <glyph glyph-name="parenleft" unicode="(" horiz-adv-x="603" 
d="M562 -261l0.00195312 -31.999c-154 77.333 -271.333 184.333 -352 321c-44 76.667 -77.667 157.167 -101 241.5s-35 170.5 -35 258.5c0 184 45.333 350.667 136 500c90 151.333 207.333 259.333 352 324v-37c-66 -37.333 -119.833 -84.5 -161.5 -141.5
s-73.834 -122.167 -96.501 -195.5c-22 -68.667 -37.167 -138.334 -45.5 -209.001s-12.5 -143.667 -12.5 -219c0 -89.333 4.16699 -174.5 12.5 -255.5s26.166 -160.167 53.499 -237.5c10 -32 22.5 -61.667 37.5 -89s32.5 -53.5 52.5 -78.5s43.167 -49.833 69.5 -74.5
s56.5 -50 90.5 -76z" />
    <glyph glyph-name="parenright" unicode=")" horiz-adv-x="603" 
d="M535 528c0 -88 -11.666 -174.168 -34.999 -258.501s-57 -164.833 -101 -241.5c-40 -70.667 -89.5 -132.167 -148.5 -184.5s-126.833 -97.833 -203.5 -136.5v32c34 26 64.333 51.333 91 76s49.834 49.5 69.501 74.5s37 51.167 52 78.5s27.833 57 38.5 89
c27.333 77.333 45.166 156.5 53.499 237.5s12.5 166.167 12.5 255.5c0 75.333 -4.16699 148.333 -12.5 219s-23.5 140.334 -45.5 209.001c-23.333 73.333 -55.833 138.5 -97.5 195.5s-95.5 104.167 -161.5 141.5v37c145.333 -64.667 262.666 -172.667 351.999 -324
c90.667 -149.333 136 -316 136 -500z" />
    <glyph glyph-name="asterisk" unicode="*" horiz-adv-x="905" 
d="M437 796c-2 23.333 -5.83398 47.6738 -11.501 73.0068s-11.834 49.166 -18.501 71.499l-18 59c-5.33301 17 -8 29.5 -8 37.5c0 30.667 7.33301 54 22 70s32.667 24 54 24c18 0 33.833 -8 47.5 -24s20.5 -38.667 20.5 -68c0 -12.667 -2.33301 -28.667 -7 -48
s-10.167 -40.5 -16.5 -63.5s-12.333 -46.167 -18 -69.5s-9.16699 -44 -10.5 -62c34.667 22 64 47 88 75c20 24 37.167 42.667 51.5 56s26.666 23.833 36.999 31.5s20.166 12.334 29.499 14.001s19.333 2.5 30 2.5c20 0 36.667 -6.83301 50 -20.5s20 -29.167 20 -46.5
c0 -10.667 -1.83301 -20.834 -5.5 -30.501s-11.334 -18.834 -23.001 -27.501s-29.167 -17.334 -52.5 -26.001s-55 -17.334 -95 -26.001c-42.667 -10.667 -80.334 -22 -113.001 -34c15.333 -8 32.333 -15 51 -21s39 -11.333 61 -16
c36.667 -7.33301 66.334 -14.833 89.001 -22.5s40.334 -16.334 53.001 -26.001s21.167 -19.834 25.5 -30.501s6.5 -21.667 6.5 -33c0 -18 -6.83301 -33.333 -20.5 -46s-29.167 -19 -46.5 -19c-8.66699 0 -17.667 1.16699 -27 3.5s-19.666 7 -30.999 14
s-24.166 17 -38.499 30s-30.5 31.167 -48.5 54.5c-23.333 28 -53.666 54.667 -90.999 80c1.33301 -35.333 8.33301 -71.666 21 -108.999c20.667 -70.667 31 -118.334 31 -143.001c0 -22.667 -7 -42.167 -21 -58.5s-29 -24.5 -45 -24.5c-8.66699 0 -17.667 1.33301 -27 4
s-17.666 7.33398 -24.999 14.001s-13.5 15.5 -18.5 26.5s-7.5 24.167 -7.5 39.5c0 12.667 2.33301 28.167 7 46.5l14.5 55.5c5 18.667 10 35.5 15 50.5l10.5 31.5c1.33301 8 2.66602 17.5 3.99902 28.5s3 23.833 5 38.5c-35.333 -22.667 -65.666 -48 -90.999 -76
c-19.333 -21.333 -35.833 -38.833 -49.5 -52.5s-26 -24.5 -37 -32.5s-21.167 -13.5 -30.5 -16.5s-18.666 -4.5 -27.999 -4.5c-20.667 0 -38 6.66699 -52 20s-21 28.333 -21 45c0 13.333 2.66699 25.166 8 35.499s14.5 20.166 27.5 29.499s31.167 18 54.5 26
s53.666 16 90.999 24c18.667 4 37 8.66699 55 14s35.667 12 53 20c-32.667 16 -71 28.333 -115 37c-41.333 8 -73.666 16.167 -96.999 24.5s-40.666 16.833 -51.999 25.5s-18.333 18.167 -21 28.5s-4 21.5 -4 33.5c0 16 6.66699 30.5 20 43.5s28.666 19.5 45.999 19.5
c20 0 40.667 -6 62 -18s48.666 -37 81.999 -75c32.667 -37.333 65.667 -66.333 99 -87z" />
    <glyph glyph-name="plus" unicode="+" horiz-adv-x="1022" 
d="M473 94v442h-440v73h440v439h71v-439h442v-73h-442v-442h-71z" />
    <glyph glyph-name="comma" unicode="," horiz-adv-x="453" 
d="M98 -228l0.00292969 38.001c60.667 20.667 107.5 52 140.5 94s49.5 86.333 49.5 133c0 10 -2 18.667 -6 26s-8.66699 11 -14 11c-4 0 -13.5 -4.33301 -28.5 -13s-30.833 -13 -47.5 -13c-28.667 0 -51.5 8.5 -68.5 25.5s-25.5 40.5 -25.5 70.5c0 14 3 27.667 9 41
s14.167 24.666 24.5 33.999s22.333 16.833 36 22.5s28.5 8.5 44.5 8.5c19.333 0 37.666 -4.5 54.999 -13.5s33.166 -21.5 47.499 -37.5s25.666 -35.5 33.999 -58.5s12.5 -48.5 12.5 -76.5c0 -60.667 -21 -117 -63 -169s-108.667 -93 -200 -123z" />
    <glyph glyph-name="hyphen" unicode="-" horiz-adv-x="603" 
d="M74 390h457v-133h-457v133z" />
    <glyph glyph-name="period" unicode="." horiz-adv-x="452" 
d="M227 178c26.667 0 49.667 -9.5 69 -28.5s29 -42.167 29 -69.5s-9.66699 -50.666 -29 -69.999s-42.333 -29 -69 -29c-27.333 0 -50.666 9.66699 -69.999 29s-29 42.666 -29 69.999c0 28 9.66699 51.333 29 70s42.666 28 69.999 28z" />
    <glyph glyph-name="slash" unicode="/" horiz-adv-x="502" 
d="M508 1264l-435 -1283h-71l434 1283h72z" />
    <glyph glyph-name="zero" unicode="0" horiz-adv-x="906" 
d="M66 598c0 138 20.3301 255.332 60.9971 351.999c36.667 87.333 84.334 155.666 143.001 204.999s121 74 187 74c52.667 0 102.167 -15.5 148.5 -46.5s87 -74 122 -129s62.667 -119.833 83 -194.5s30.5 -155.667 30.5 -243c0 -138.667 -20 -257 -60 -355
c-20 -47.333 -43.167 -88.666 -69.5 -123.999s-54 -64.166 -83 -86.499s-59.167 -39 -90.5 -50s-61.666 -16.5 -90.999 -16.5c-51.333 0 -100.166 15.333 -146.499 46s-86.833 73.5 -121.5 128.5s-62.167 120 -82.5 195s-30.5 156.5 -30.5 244.5zM238.997 574.999
c0 -72.667 4.16113 -141.667 12.4941 -207s21 -122.333 38 -171s38.833 -87.167 65.5 -115.5s58.334 -42.5 95.001 -42.5c34.667 0 65.334 11.667 92.001 35s49.334 60 68.001 110s33 113.833 43 191.5s15 170.834 15 279.501c0 77.333 -4.33301 147.833 -13 211.5
s-22.167 118 -40.5 163s-40.666 79.833 -66.999 104.5s-57.166 37 -92.499 37c-39.333 0 -72.666 -15.833 -99.999 -47.5s-49.5 -74.834 -66.5 -129.501s-29.5 -118.167 -37.5 -190.5s-12 -148.5 -12 -228.5z" />
    <glyph glyph-name="one" unicode="1" horiz-adv-x="905" 
d="M212 1081l292 143.003h29v-1013c0 -35.333 0.333008 -62.833 1 -82.5s2.83398 -34.834 6.50098 -45.501s8.16699 -18.167 13.5 -22.5s12.666 -8.5 21.999 -12.5c18 -10 54.333 -15 109 -15v-33h-452v33c29.333 0 52.666 1.33301 69.999 4s31 6 41 10s17.333 9 22 15
s8.33398 12.667 11.001 20c6 13.333 9 56.333 9 129v648c0 51.333 -1 91.666 -3 120.999s-5.66699 51.166 -11 65.499s-12.5 23.333 -21.5 27s-20.5 5.5 -34.5 5.5c-24.667 0 -55 -7.66699 -91 -23z" />
    <glyph glyph-name="two" unicode="2" horiz-adv-x="906" 
d="M831 231l-83.9961 -230.998h-708v33c205.333 194.667 352 349.667 440 465c85.333 119.333 128 229.333 128 330c0 37.333 -6.5 72.166 -19.5 104.499s-30.167 59.833 -51.5 82.5s-46.333 40.667 -75 54s-59.334 20 -92.001 20
c-58.667 0 -111.334 -17.167 -158.001 -51.5s-81.667 -84.833 -105 -151.5h-31c14.667 110 52.167 193.833 112.5 251.5s136.833 86.5 229.5 86.5c48 0 93 -8.66699 135 -26s78.167 -40.5 108.5 -69.5s54.166 -62.333 71.499 -100s26 -77.5 26 -119.5
c0 -60.667 -10.667 -116.5 -32 -167.5s-43.333 -92.5 -66 -124.5s-55 -75 -97 -129l-192 -210.5c-48 -51 -95.667 -99.167 -143 -144.5h313c39.333 0 72.666 1 99.999 3s50.5 6.16699 69.5 12.5s35 16.166 48 29.499s26.167 31 39.5 53h33z" />
    <glyph glyph-name="three" unicode="3" horiz-adv-x="906" 
d="M92 977c34 80.667 77.1631 142.83 129.496 186.497s117.5 65.5 195.5 65.5c40.667 0 78.167 -6.66699 112.5 -20s63.833 -31.166 88.5 -53.499s43.834 -48.333 57.501 -78s20.5 -60.167 20.5 -91.5c0 -88 -54.667 -178.333 -164 -271
c74.667 -28.667 130.5 -69.667 167.5 -123s55.5 -116.666 55.5 -189.999c0 -60.667 -11.167 -116.5 -33.5 -167.5s-54.166 -95.167 -95.499 -132.5s-91.166 -66.333 -149.499 -87s-122.833 -31 -193.5 -31c-41.333 0 -75.5 2.83301 -102.5 8.5s-48.5 13.167 -64.5 22.5
s-27 19.5 -33 30.5s-9 22.167 -9 33.5c0 21.333 8.16699 37.5 24.5 48.5s35.833 16.5 58.5 16.5c5.33301 0 10.166 -0.5 14.499 -1.5s9.83301 -2.83301 16.5 -5.5s15.334 -6.66699 26.001 -12l43 -22c21.333 -11.333 38.666 -20 51.999 -26s24.833 -10.167 34.5 -12.5
s18.5 -3.5 26.5 -3.5h31c30 0 58.5 6.33301 85.5 19s50.833 29.834 71.5 51.501s36.834 46.667 48.501 75s17.5 58.166 17.5 89.499c0 19.333 -2.16699 39.333 -6.5 60s-10.166 40.667 -17.499 60s-15.833 36.833 -25.5 52.5s-20.167 28.834 -31.5 39.501
c-12.667 11.333 -28.167 22.5 -46.5 33.5s-38.166 21 -59.499 30s-43.333 16 -66 21s-45 7.5 -67 7.5h-29v27c44.667 6 84.167 18 118.5 36s63 39.5 86 64.5s40.333 53 52 84s17.5 62.167 17.5 93.5c0 30 -5.16699 57.5 -15.5 82.5s-24.333 46.667 -42 65
s-38.834 32.333 -63.501 42s-50.667 14.5 -78 14.5c-91.333 0 -167.333 -49 -228 -147z" />
    <glyph glyph-name="four" unicode="4" horiz-adv-x="905" 
d="M844 442v-125h-161v-317h-147v317h-508v113l557 794h98v-782h161zM536 442v596l-421 -596h421z" />
    <glyph glyph-name="five" unicode="5" horiz-adv-x="905" 
d="M787 1205l-70.001 -150.003h-361l-79 -162c71.333 -10 137.166 -28.5 197.499 -55.5s112 -60.333 155 -100s76.667 -85.167 101 -136.5s36.5 -106.666 36.5 -165.999c0 -72.667 -15.5 -137 -46.5 -193s-70 -103.167 -117 -141.5s-98.167 -67.333 -153.5 -87
s-107.666 -29.5 -156.999 -29.5c-37.333 0 -68.833 3.33301 -94.5 10s-46.667 15.667 -63 27s-28.5 23.833 -36.5 37.5s-12 27.834 -12 42.501c0 17.333 6.66699 32.333 20 45s30.333 19 51 19c8 0 15.167 -0.5 21.5 -1.5s12.666 -3 18.999 -6s14.166 -7.33301 23.499 -13
s21 -13.5 35 -23.5c22 -15.333 44.333 -26.833 67 -34.5s45.334 -11.5 68.001 -11.5c34 0 66.667 7 98 21s58.833 33.167 82.5 57.5s42.834 52.833 57.501 85.5s22 67.667 22 105c0 36 -6.16699 71.167 -18.5 105.5s-30 66.833 -53 97.5s-50.5 58.167 -82.5 82.5
s-68.333 45.5 -109 63.5c-32.667 14 -70.667 24.333 -114 31s-92.666 11.334 -147.999 14.001l229 467h431z" />
    <glyph glyph-name="six" unicode="6" horiz-adv-x="905" 
d="M812 1229l-0.00488281 -32.998c-39.333 -4.66699 -74.333 -10.334 -105 -17.001s-58.834 -15.834 -84.501 -27.501s-50.167 -26.334 -73.5 -44.001s-48 -38.834 -74 -63.501c-49.333 -48.667 -89.333 -102.167 -120 -160.5s-56.667 -128.166 -78 -209.499
c85.333 59.333 170.333 89 255 89c40.667 0 79.5 -8.83301 116.5 -26.5s69.333 -42.167 97 -73.5s49.667 -68.666 66 -111.999s24.5 -90.666 24.5 -141.999c0 -56 -9.66699 -109.833 -29 -161.5s-46.166 -96.834 -80.499 -135.501s-74.833 -69.667 -121.5 -93
s-97 -35 -151 -35c-60 0 -113.167 14.667 -159.5 44s-85.666 67.333 -117.999 114s-56.833 99.334 -73.5 158.001s-25 117 -25 175c0 108 21.333 210.167 64 306.5s104 182.166 184 257.499c40.667 37.333 80.334 68.333 119.001 93s76.334 44.167 113.001 58.5
s71.834 24.333 105.501 30s65.834 8.5 96.501 8.5h52zM260.995 610.002c-10 -79.333 -15.001 -143.668 -15.001 -193.001c0 -36.667 4.83301 -77.5 14.5 -122.5s24.167 -86.833 43.5 -125.5s43.666 -71 72.999 -97s64 -39 104 -39c25.333 0 49.833 6.16699 73.5 18.5
s44.834 30.333 63.501 54s33.5 52.834 44.5 87.501s16.5 74.667 16.5 120c0 49.333 -5.16699 96.333 -15.5 141s-25.166 84.167 -44.499 118.5s-43.5 61.666 -72.5 81.999s-61.833 30.5 -98.5 30.5c-12.667 0 -24.5 -0.833008 -35.5 -2.5s-23.333 -5.16699 -37 -10.5
s-29.5 -13.166 -47.5 -23.499z" />
    <glyph glyph-name="seven" unicode="7" horiz-adv-x="905" 
d="M182 1206h643.001v-34l-400 -1191h-99l359 1080h-330c-40.667 0 -74.834 -3.5 -102.501 -10.5s-51.5 -17 -71.5 -30s-36.667 -28.667 -50 -47s-26.333 -38.833 -39 -61.5l-25 9z" />
    <glyph glyph-name="eight" unicode="8" horiz-adv-x="906" 
d="M348 610c-48 39.333 -86.6689 74.0029 -116.002 104.003s-52.166 57.5 -68.499 82.5s-27.166 49.167 -32.499 72.5s-8 48.333 -8 75c0 37.333 8 73.5 24 108.5s38.5 65.5 67.5 91.5s63.667 46.667 104 62s85.166 23 134.499 23c47.333 0 90.833 -7.33301 130.5 -22
s73.834 -33.834 102.501 -57.501s50.667 -51.167 66 -82.5s23 -63.333 23 -96c0 -23.333 -3.33301 -46.333 -10 -69s-19.167 -45.834 -37.5 -69.501s-43.5 -48.834 -75.5 -75.501s-73.333 -56 -124 -88c52 -40.667 95.167 -76.5 129.5 -107.5s59.833 -58.167 76.5 -81.5
c45.333 -60.667 68 -124 68 -190c0 -41.333 -8.33301 -80.666 -25 -117.999s-40.5 -69.833 -71.5 -97.5s-68 -49.667 -111 -66s-90.5 -24.5 -142.5 -24.5c-50 0 -96 8 -138 24s-78.167 37.5 -108.5 64.5s-53.833 58.167 -70.5 93.5s-25 72.666 -25 111.999
c0 54 18 107.167 54 159.5s97.333 109.833 184 172.5zM389.998 575.003c-50 -41.333 -86.498 -86.1699 -109.498 -134.503s-34.5 -101.166 -34.5 -158.499c0 -37.333 5.5 -71.5 16.5 -102.5s26.167 -57.5 45.5 -79.5s42.5 -38.833 69.5 -50.5s56.5 -17.5 88.5 -17.5
s61 4.83301 87 14.5s48.167 22.834 66.5 39.501s32.666 36.167 42.999 58.5s15.5 46.166 15.5 71.499c0 27.333 -5.5 53.833 -16.5 79.5s-28 52.334 -51 80.001s-52.833 57.834 -89.5 90.501s-80.334 69 -131.001 109zM486 702.999c37.333 34 66.668 62.834 88.001 86.501
s37.833 45.667 49.5 66s19 40.166 22 59.499s4.5 40.666 4.5 63.999c0 62.667 -17.333 111.334 -52 146.001s-82.334 52 -143.001 52c-30 0 -57.333 -4.5 -82 -13.5s-46 -21.5 -64 -37.5s-32.167 -34.5 -42.5 -55.5s-15.5 -43.5 -15.5 -67.5c0 -30.667 8 -61.167 24 -91.5
s38.333 -59.5 67 -87.5z" />
    <glyph glyph-name="nine" unicode="9" horiz-adv-x="905" 
d="M96 -19l-0.00390625 33c39.333 0.666992 76.833 5.16699 112.5 13.5s70 21.833 103 40.5s65.167 42.667 96.5 72s62.333 65.666 93 108.999s56.834 88.333 78.501 135s38.5 96.334 50.5 149.001c-93.333 -60 -176.666 -90 -249.999 -90c-42.667 0 -82.667 8.5 -120 25.5
s-69.833 41.167 -97.5 72.5s-49.667 69 -66 113s-24.5 93 -24.5 147c0 58 9.66699 113.167 29 165.5s46 97.833 80 136.5s73.833 69.5 119.5 92.5s94.5 34.5 146.5 34.5c56 0 107.333 -13.833 154 -41.5s87 -64.5 121 -110.5s60.167 -98.667 78.5 -158s27.5 -121 27.5 -185
c0 -132 -32.333 -256.667 -97 -374c-33.333 -58 -72.666 -110.5 -117.999 -157.5s-97.333 -89.833 -156 -128.5c-95.333 -62.667 -198.666 -94 -309.999 -94h-51zM644.996 597c10.667 78 15.998 139.668 15.998 185.001c0 56.667 -6.5 108.667 -19.5 156s-30 88.5 -51 123.5
s-45.5 62.333 -73.5 82s-58 29.5 -90 29.5c-25.333 0 -49.833 -6 -73.5 -18s-44.667 -29.667 -63 -53s-33 -52.5 -44 -87.5s-16.5 -75.833 -16.5 -122.5c0 -52 5.16699 -100.5 15.5 -145.5s25 -84 44 -117s41.833 -58.833 68.5 -77.5s57.334 -28 92.001 -28
c12.667 0 27.667 1.66699 45 5s34.833 8.16602 52.5 14.499s34.834 14 51.501 23s32 19.167 46 30.5z" />
    <glyph glyph-name="colon" unicode=":" horiz-adv-x="452" 
d="M227 178c26.667 0 49.667 -9.5 69 -28.5s29 -42.167 29 -69.5s-9.66699 -50.666 -29 -69.999s-42.333 -29 -69 -29c-27.333 0 -50.666 9.66699 -69.999 29s-29 42.666 -29 69.999c0 28 9.66699 51.333 29 70s42.666 28 69.999 28zM227 810c26.667 0 49.667 -9.5 69 -28.5
s29 -42.167 29 -69.5s-9.66699 -50.666 -29 -69.999s-42.333 -29 -69 -29c-27.333 0 -50.666 9.66699 -69.999 29s-29 42.666 -29 69.999c0 28 9.66699 51.333 29 70s42.666 28 69.999 28z" />
    <glyph glyph-name="semicolon" unicode=";" horiz-adv-x="488" 
d="M98 -228l0.00292969 38.001c60.667 20.667 107.5 52 140.5 94s49.5 86.333 49.5 133c0 10 -2 18.667 -6 26s-8.66699 11 -14 11c-4 0 -13.5 -4.33301 -28.5 -13s-30.833 -13 -47.5 -13c-28.667 0 -51.5 8.5 -68.5 25.5s-25.5 40.5 -25.5 70.5c0 14 3 27.667 9 41
s14.167 24.666 24.5 33.999s22.333 16.833 36 22.5s28.5 8.5 44.5 8.5c19.333 0 37.666 -4.5 54.999 -13.5s33.166 -21.5 47.499 -37.5s25.666 -35.5 33.999 -58.5s12.5 -48.5 12.5 -76.5c0 -60.667 -21 -117 -63 -169s-108.667 -93 -200 -123zM227.003 810.001
c26.667 0 49.667 -9.5 69 -28.5s29 -42.167 29 -69.5s-9.66699 -50.666 -29 -69.999s-42.333 -29 -69 -29c-27.333 0 -50.666 9.66699 -69.999 29s-29 42.666 -29 69.999c0 28 9.66699 51.333 29 70s42.666 28 69.999 28z" />
    <glyph glyph-name="less" unicode="&#x3c;" horiz-adv-x="1022" 
d="M33 584l952 412v-76l-820 -355l820 -359v-81l-952 416v43z" />
    <glyph glyph-name="equal" unicode="=" horiz-adv-x="1021" 
d="M33 680h954v-73h-954v73zM33 391h954v-73h-954v73z" />
    <glyph glyph-name="greater" unicode="&#x3e;" horiz-adv-x="1022" 
d="M985 538l-952 -413v77l820 355l-820 359v80l952 -416v-42z" />
    <glyph glyph-name="question" unicode="?" horiz-adv-x="803" 
d="M400 288l-35.002 0.000976562c1.33301 38 4.33301 72.167 9 102.5s10.334 57.833 17.001 82.5c5.33301 16.667 15.5 41.334 30.5 74.001l49 102.5l49.5 103c15.333 33 25.666 58.5 30.999 76.5c10.667 35.333 16 71.666 16 108.999c0 36.667 -5.5 70.167 -16.5 100.5
s-25.833 56.333 -44.5 78s-40.5 38.167 -65.5 49.5s-51.5 17 -79.5 17c-25.333 0 -48.333 -3.33301 -69 -10s-38.167 -15.5 -52.5 -26.5s-25.166 -23.333 -32.499 -37s-11 -27.5 -11 -41.5c0 -9.33301 2.66699 -21.333 8 -36s11.166 -29.5 17.499 -44.5l18.5 -42
c6 -13 9 -23.167 9 -30.5c0 -20.667 -6.83301 -38.334 -20.5 -53.001s-30.167 -22 -49.5 -22c-26 0 -48.833 12.167 -68.5 36.5s-29.5 58.5 -29.5 102.5c0 32 7.33301 63.333 22 94s35.834 57.834 63.501 81.501s61 42.5 100 56.5s83.167 21 132.5 21
c52 0 98.5 -7.33301 139.5 -22s75.833 -34.667 104.5 -60s50.334 -55 65.001 -89s22 -69.667 22 -107c0 -22 -2.16699 -43.833 -6.5 -65.5s-11.666 -44.167 -21.999 -67.5s-24.333 -48 -42 -74s-39.834 -55 -66.501 -87l-103.5 -123.5
c-27 -33.667 -45.167 -60.834 -54.5 -81.501c-10 -20.667 -17.667 -44.667 -23 -72s-9.33301 -59 -12 -95zM388.998 179.001c28 0 51.499 -9.5 70.499 -28.5s28.5 -42.5 28.5 -70.5c0 -27.333 -9.83301 -50.5 -29.5 -69.5s-42.834 -28.5 -69.501 -28.5
c-27.333 0 -50.666 9.5 -69.999 28.5s-29 42.167 -29 69.5c0 28 9.83301 51.5 29.5 70.5s42.834 28.5 69.501 28.5z" />
    <glyph glyph-name="at" unicode="@" horiz-adv-x="1669" 
d="M1624 247c-54.667 -163.333 -151.001 -294.33 -289.001 -392.997c-140 -100 -299.333 -150 -478 -150c-88.667 0 -175.5 13.667 -260.5 41s-161.833 69 -230.5 125c-46.667 36 -87.334 77.333 -122.001 124s-64 96.667 -88 150s-41.667 108.833 -53 166.5
s-17 116.5 -17 176.5c0 116.667 20.833 229.167 62.5 337.5s103.5 203.5 185.5 285.5c38 38 80.167 72.167 126.5 102.5s94.666 55.833 144.999 76.5s102.333 36.5 156 47.5s107.5 16.5 161.5 16.5c85.333 0 168.166 -13.333 248.499 -40s150.5 -69.667 210.5 -129
c58 -58 101.167 -125.333 129.5 -202s42.5 -155 42.5 -235c0 -69.333 -9.5 -137 -28.5 -203s-46.5 -129.667 -82.5 -191c-49.333 -80.667 -106.833 -139.334 -172.5 -176.001s-134.167 -55 -205.5 -55c-89.333 0 -134 40.667 -134 122c0 31.333 5.33301 74.333 16 129
c-45.333 -54.667 -85.166 -98.5 -119.499 -131.5s-65 -58.5 -92 -76.5s-51.5 -29.833 -73.5 -35.5s-43.333 -8.5 -64 -8.5c-21.333 0 -41.333 4.83301 -60 14.5s-35.5 23.5 -50.5 41.5s-27 39.833 -36 65.5s-13.5 53.834 -13.5 84.501c0 58.667 13.667 122.167 41 190.5
s63 132.833 107 193.5c24 33.333 49.833 64.333 77.5 93s56.334 53.5 86.001 74.5s59.334 37.667 89.001 50s58.834 18.5 87.501 18.5c39.333 0 72 -9.83301 98 -29.5s43.667 -50.5 53 -92.5l29 97l139 20l-103 -352c-21.333 -68.667 -37.5 -122.334 -48.5 -161.001
s-19.167 -68.834 -24.5 -90.501s-8.16602 -38 -8.49902 -49s-0.5 -23.167 -0.5 -36.5c0 -19.333 6.16699 -35.333 18.5 -48s28.166 -19 47.499 -19c16.667 0 36 4.16699 58 12.5s45.167 20.666 69.5 36.999s48.833 36.833 73.5 61.5s47.334 53.667 68.001 87
c31.333 47.333 56.833 102.333 76.5 165s29.5 134 29.5 214c0 72 -12.5 139.833 -37.5 203.5s-61.167 120.167 -108.5 169.5c-50.667 52.667 -112 94.5 -184 125.5s-153 46.5 -243 46.5c-52 0 -103.5 -5.83301 -154.5 -17.5s-100 -28.5 -147 -50.5
s-91.333 -48.833 -133 -80.5s-79.834 -67.5 -114.501 -107.5c-68.667 -82 -120.834 -174 -156.501 -276s-53.5 -206 -53.5 -312c0 -52 4.83301 -103.833 14.5 -155.5s24.5 -101.5 44.5 -149.5s44.667 -93.167 74 -135.5s64.333 -79.833 105 -112.5
c62 -52 133.167 -90.5 213.5 -115.5s160.833 -37.5 241.5 -37.5c154.667 0 294.667 41.333 420 124c126.667 84 223.334 205.667 290.001 365h52zM994.999 549.003l56.0029 199.999c-2 12 -4.33301 27 -7 45s-7.83398 35.167 -15.501 51.5s-19 30.333 -34 42
s-34.833 17.5 -59.5 17.5c-23.333 0 -46.833 -6.5 -70.5 -19.5s-46.834 -31.167 -69.501 -54.5s-44.834 -50.833 -66.501 -82.5s-41.834 -66.167 -60.501 -103.5c-10.667 -22 -21.167 -46.167 -31.5 -72.5s-20 -53 -29 -80s-16.167 -52.667 -21.5 -77s-8 -45.166 -8 -62.499
c0 -36.667 10.333 -66.667 31 -90s44.334 -35 71.001 -35c20 0 44.167 7 72.5 21s57.5 34.667 87.5 62s58.5 60.833 85.5 100.5s50.167 85.5 69.5 137.5z" />
    <glyph glyph-name="A" unicode="A" horiz-adv-x="1308" 
d="M828 401h-463.995l-82 -188c-19.333 -46.667 -29 -81.667 -29 -105c0 -9.33301 1.5 -18 4.5 -26s9.66699 -15.333 20 -22s24.5 -12.334 42.5 -17.001s42 -8 72 -10v-33h-378v33c30 4.66699 54.167 11.334 72.5 20.001s34.166 20.667 47.499 36s25.5 35.333 36.5 60
l40.5 91l422 986h30l418 -996c16.667 -41.333 32.167 -74.666 46.5 -99.999s29.166 -45 44.499 -59s32.166 -23.667 50.499 -29s40.166 -8.33301 65.499 -9v-33h-474v33c47.333 2 79.666 9.83301 96.999 23.5s26 30.167 26 49.5c-1.33301 25.333 -13.333 66.666 -36 123.999
zM803.005 467l-203 485l-208 -485h411z" />
    <glyph glyph-name="B" unicode="B" horiz-adv-x="1208" 
d="M838 612c48 -10 89.3301 -24.333 123.997 -43s62.834 -40.334 84.501 -65.001s37.5 -51.834 47.5 -81.501s15 -60.834 15 -93.501c0 -30 -4.83301 -59.5 -14.5 -88.5s-23.5 -56.5 -41.5 -82.5s-40.167 -49.333 -66.5 -70s-56.166 -37.667 -89.499 -51
c-63.333 -24.667 -163.333 -37 -300 -37h-566v33h45c20 0 38 1.83301 54 5.5s29.5 11.667 40.5 24s19.333 30.333 25 54s8.5 55.834 8.5 96.501v774c0 42.667 -3.16699 75.834 -9.5 99.501s-15.166 41.5 -26.499 53.5s-24.833 19.5 -40.5 22.5s-32.834 4.5 -51.501 4.5h-45
v33h517c166.667 0 292.834 -28.167 378.501 -84.5s128.5 -135.166 128.5 -236.499c0 -60.667 -18.5 -114.5 -55.5 -161.5s-90.833 -82.167 -161.5 -105.5zM373.997 87c67.333 -16 134.669 -23.998 202.002 -23.998c54 0 101.667 6.66699 143 20
s75.666 31.166 102.999 53.499s48 48.666 62 78.999s21 62.833 21 97.5c0 38 -7.5 73.667 -22.5 107s-38.167 62.333 -69.5 87s-70.5 44 -117.5 58s-102.167 21 -165.5 21c-36.667 0 -67.834 -0.5 -93.501 -1.5s-46.5 -3.16699 -62.5 -6.5v-491zM374 660.002
c22 -4.66699 46.832 -8 74.499 -10s58.5 -3 92.5 -3c116.667 0 200.5 21.167 251.5 63.5s76.5 100.833 76.5 175.5c0 34 -7.16699 66.667 -21.5 98s-35.666 58.5 -63.999 81.5s-63.333 41.167 -105 54.5s-90.167 20 -145.5 20c-60 0 -113 -6.33301 -159 -19v-461z" />
    <glyph glyph-name="C" unicode="C" horiz-adv-x="1207" 
d="M1090 1233l28.001 -407.999h-28c-36.667 122.667 -88.667 210.834 -156 264.501s-148.666 80.5 -243.999 80.5c-61.333 0 -118 -11.667 -170 -35s-96.667 -59.333 -134 -108s-66.5 -109.5 -87.5 -182.5s-31.5 -159.167 -31.5 -258.5c0 -80 9.83301 -152.5 29.5 -217.5
s48.667 -120.667 87 -167s85.166 -82 140.499 -107s119 -37.5 191 -37.5c76 0 144.667 16.667 206 50c59.333 30.667 125 96.667 197 198l28 -17c-60.667 -106.667 -130.834 -184.834 -210.501 -234.501s-175.167 -74.5 -286.5 -74.5c-85.333 0 -163.5 15 -234.5 45
s-132.333 72 -184 126s-92 118.167 -121 192.5s-43.5 156.166 -43.5 245.499c0 120 27 230 81 330c52.667 100 126 177.333 220 232c95.333 55.333 198.333 83 309 83c87.333 0 172.666 -21 255.999 -63c24.667 -13.333 42.334 -20 53.001 -20
c19.333 0 35.333 7.83301 48 23.5s21.667 35.5 27 59.5h30z" />
    <glyph glyph-name="D" unicode="D" horiz-adv-x="1309" 
d="M31 0v32.999h46c20.667 0 38.834 1.83301 54.501 5.5s28.834 11.667 39.501 24s18.834 30.333 24.501 54s8.5 55.834 8.5 96.501v774c0 74 -8.33301 120.667 -25 140c-22.667 26.667 -56.667 40 -102 40h-46v33h488c178 0 314.667 -20.667 410 -62
c94 -41.333 169 -109 225 -203c57.333 -96 86 -205.667 86 -329c0 -88.667 -14.333 -170 -43 -244s-71.334 -137.833 -128.001 -191.5s-126.834 -95.5 -210.501 -125.5s-180.834 -45 -291.501 -45h-536zM374 86.999c73.333 -16.667 136.001 -24.999 188.001 -24.999
c67.333 0 130.166 12.5 188.499 37.5s108.833 60.667 151.5 107s76 102.5 100 168.5s36 140 36 222c0 82.667 -11.833 157.167 -35.5 223.5s-57 122.666 -100 168.999s-94 81.833 -153 106.5s-123.833 37 -194.5 37c-52 0 -112.333 -9 -181 -27v-1019z" />
    <glyph glyph-name="E" unicode="E" horiz-adv-x="1106" 
d="M379 1134l0.000976562 -474.004h263c38.667 0 69.834 3.5 93.501 10.5s42.334 17.5 56.001 31.5s23.167 32 28.5 54s8.66602 48 9.99902 78h33v-417h-33c-4 34.667 -8.83301 63.334 -14.5 86.001s-15 40.834 -28 54.501s-30.833 23.334 -53.5 29.001
s-53.334 8.5 -92.001 8.5h-263v-396c0 -30 0.5 -53.667 1.5 -71s4.5 -30.666 10.5 -39.999s15.667 -15.333 29 -18s32.666 -4 57.999 -4h203c34.667 0 63.834 0.833008 87.501 2.5s44 5.16699 61 10.5s32.167 12.666 45.5 21.999s27.333 21 42 35c35.333 34 73 89 113 165
h35l-104 -301h-924v33h42c11.333 0 23.166 1.33301 35.499 4s24 6.33398 35 11.001s21 11 30 19s15.167 17.333 18.5 28c7.33301 19.333 11 58 11 116v779c0 76.667 -7.66699 123.667 -23 141c-21.333 24 -57 36 -107 36h-42v33h924v-263h-21
c-8.66699 43.333 -18.167 78 -28.5 104s-23.833 46 -40.5 60s-38 23 -64 27s-59 6 -99 6h-329z" />
    <glyph glyph-name="F" unicode="F" horiz-adv-x="1007" 
d="M371 1134l-0.00195312 -470.999h218c25.333 0 47 2.33301 65 7s33.167 13.167 45.5 25.5s22 29 29 50s12.833 47.833 17.5 80.5h33v-405h-33c-1.33301 30 -4.5 55.5 -9.5 76.5s-13.5 38.333 -25.5 52s-27.833 23.667 -47.5 30s-44.5 9.5 -74.5 9.5h-218v-376
c0 -28.667 0.5 -51.834 1.5 -69.501s3.16699 -32.167 6.5 -43.5s8.33301 -20.333 15 -27s15.334 -13 26.001 -19c24.667 -14 51.334 -21 80.001 -21h44v-33h-515v33h42c21.333 0 40.166 1.5 56.499 4.5s29.666 10.5 39.999 22.5s18.5 30 24.5 54s9 57 9 99v774
c0 27.333 -0.666992 50 -2 68s-3.66602 32.833 -6.99902 44.5s-8 21 -14 28s-14.333 13.167 -25 18.5c-13.333 6.66699 -26.5 11.834 -39.5 15.501s-27.167 5.5 -42.5 5.5h-42v33h892v-264h-19c-12 43.333 -25.167 77.833 -39.5 103.5s-31.833 45.667 -52.5 60
s-45.167 23.666 -73.5 27.999s-62.166 6.5 -101.499 6.5h-264z" />
    <glyph glyph-name="G" unicode="G" horiz-adv-x="1309" 
d="M1112 1233l32 -378.004h-32c-36 111.333 -87.167 191.833 -153.5 241.5s-147.166 74.5 -242.499 74.5c-70.667 0 -133.667 -13.833 -189 -41.5s-102.333 -66 -141 -115s-68.167 -106.667 -88.5 -173s-30.5 -138.166 -30.5 -215.499
c0 -113.333 22.667 -217.666 68 -312.999c22 -47.333 47.667 -88.166 77 -122.499s61.166 -62.833 95.499 -85.5s70.166 -39.167 107.499 -49.5s75 -15.5 113 -15.5c88 0 170.667 22 248 66v347c0 30 -1 54.5 -3 73.5s-5.5 34 -10.5 45s-11 19.333 -18 25
s-15.5 11.167 -25.5 16.5c-19.333 9.33301 -52.666 14 -99.999 14v34h465v-34h-23c-20 0 -37 -2.16699 -51 -6.5s-25.667 -12.666 -35 -24.999s-16 -30 -20 -53s-6 -52.833 -6 -89.5v-367c-34 -18.667 -67.5 -34.834 -100.5 -48.501s-66.5 -24.5 -100.5 -32.5
c-68.667 -17.333 -142 -26 -220 -26c-100.667 0 -191.667 15.333 -273 46s-151 73.334 -209 128.001s-102.833 119 -134.5 193s-47.5 154.667 -47.5 242c0 104.667 25.667 205.667 77 303c58.667 114.667 140.667 203 246 265c88 51.333 192 77 312 77
c24 0 45.167 -0.666992 63.5 -2s37.333 -4 57 -8s41.167 -9.66699 64.5 -17s52 -17.333 86 -30c33.333 -13.333 55.666 -19.333 66.999 -18c10.667 0 19.834 5 27.501 15s12.5 30 14.5 60h33z" />
    <glyph glyph-name="H" unicode="H" horiz-adv-x="1309" 
d="M373 643l557 0.000976562v343c0 28 -0.5 51 -1.5 69s-3.16699 32.833 -6.5 44.5s-8.33301 20.834 -15 27.501s-15.334 13 -26.001 19c-24.667 14 -51.334 21 -80.001 21h-43v33h514v-33h-42c-12 0 -24.333 -1.33301 -37 -4s-24.5 -6.66699 -35.5 -12
s-20.833 -12 -29.5 -20s-15 -17 -19 -27c-6 -18.667 -9 -58 -9 -118v-773c0 -28.667 0.666992 -51.834 2 -69.501s3.5 -32.167 6.5 -43.5s7.66699 -20.333 14 -27s14.833 -13 25.5 -19c24.667 -14 52 -21 82 -21h42v-33h-514v33h43c20 0 37.833 1.5 53.5 4.5
s29.334 10.5 41.001 22.5s20.334 30 26.001 54s8.5 57 8.5 99v365h-557v-365c0 -28.667 0.5 -51.834 1.5 -69.501s3.16699 -32.167 6.5 -43.5s8.33301 -20.333 15 -27s15.334 -13 26.001 -19c24.667 -14 51.334 -21 80.001 -21h44v-33h-515v33h44c48 0 83.333 14.667 106 44
c14.667 17.333 22 62.666 22 135.999v773c0 29.333 -0.5 53 -1.5 71s-3.33301 32.5 -7 43.5s-8.5 19.833 -14.5 26.5s-14.333 13 -25 19c-24.667 14 -51.334 21 -80.001 21h-44v33h515v-33h-44c-10.667 0 -22.334 -1.33301 -35.001 -4s-24.5 -6.66699 -35.5 -12
s-20.833 -12 -29.5 -20s-15 -17 -19 -27c-6.66699 -21.333 -10 -60.666 -10 -117.999v-343z" />
    <glyph glyph-name="I" unicode="I" horiz-adv-x="604" 
d="M558 33v-32.999h-513v33h42c21.333 0 40.166 1.5 56.499 4.5s29.666 10.5 39.999 22.5s18.5 30 24.5 54s9 57 9 99v774c0 27.333 -0.666992 50 -2 68s-3.66602 32.833 -6.99902 44.5s-8 20.834 -14 27.501s-14.333 13 -25 19c-26.667 14 -54 21 -82 21h-42v33h513v-33
h-42c-20.667 0 -39.167 -1.83301 -55.5 -5.5s-29.833 -11.334 -40.5 -23.001s-18.834 -29.667 -24.501 -54s-8.5 -56.833 -8.5 -97.5v-774c0 -28.667 0.5 -51.834 1.5 -69.501s3.16699 -32.167 6.5 -43.5s8.33301 -20.333 15 -27s15.334 -13 26.001 -19
c24.667 -14 51.334 -21 80.001 -21h42z" />
    <glyph glyph-name="J" unicode="J" horiz-adv-x="704" 
d="M181 1174l0.00585938 32.998h513v-33h-43c-49.333 0 -85 -14.667 -107 -44c-14 -17.333 -21 -62.666 -21 -135.999v-586c0 -92.667 -10.333 -166 -31 -220c-9.33301 -27.333 -22.666 -53.666 -39.999 -78.999s-37.833 -47.666 -61.5 -66.999
s-50.167 -34.666 -79.5 -45.999s-61.333 -17 -96 -17c-28 0 -53 3.66699 -75 11s-40.5 17.5 -55.5 30.5s-26.667 27.667 -35 44s-12.5 33.166 -12.5 50.499c0 33.333 9.66699 57 29 71s39.666 21 60.999 21c8.66699 0 17.167 -0.833008 25.5 -2.5s16.666 -6.5 24.999 -14.5
s17.166 -19.833 26.499 -35.5s19.666 -37.167 30.999 -64.5c13.333 -32 31 -48 53 -48c16 0 30.667 9.66699 44 29s20 53.666 20 102.999v820c0 28 -0.333008 50.833 -1 68.5s-2.83398 32.167 -6.50098 43.5s-8.83398 20.333 -15.501 27s-15 13 -25 19
c-26.667 14.667 -53.334 22 -80.001 22h-43z" />
    <glyph glyph-name="K" unicode="K" horiz-adv-x="1309" 
d="M542 665l442 -438.992c36.667 -37.333 70 -68 100 -92s58.167 -43.333 84.5 -58s52.166 -25.334 77.499 -32.001s51 -10.334 77 -11.001v-33h-570v33c38 0 63.5 6.66699 76.5 20s19.5 27.333 19.5 42c0 6 -0.333008 11.5 -1 16.5s-3 10.5 -7 16.5
s-10.5 13.833 -19.5 23.5l-35.5 37.5l-414 410v-386c0 -28.667 0.666992 -51.834 2 -69.501s3.5 -32.167 6.5 -43.5s7.83301 -20.333 14.5 -27s15 -13 25 -19c26 -14 53 -21 81 -21h41v-33h-511v33h42c49.333 0 85.333 14.667 108 44c14.667 19.333 22 64.666 22 135.999
v774c0 26.667 -0.5 49 -1.5 67s-3.33301 32.667 -7 44s-8.5 20.833 -14.5 28.5s-14.333 14.167 -25 19.5c-28 14 -55.333 21 -82 21h-42v33h511v-33h-41c-22 0 -45.167 -4.83301 -69.5 -14.5s-40.833 -25.834 -49.5 -48.501c-6.66699 -20 -10 -59 -10 -117v-367
c0.666992 1.33301 6.5 7 17.5 17l37 33.5l39.5 37c12.667 12.333 21.667 20.833 27 25.5l162 151.5c44 42.333 79.333 78.166 106 107.499s45.667 54 57 74s17 36.333 17 49c0 14.667 -6.16699 27 -18.5 37s-33.5 15 -63.5 15h-28v33h441v-33
c-16 -0.666992 -32 -2.16699 -48 -4.5s-34 -7.83301 -54 -16.5s-42.667 -22.334 -68 -41.001s-55.666 -44.334 -90.999 -77.001c-7.33301 -6 -25.5 -24.167 -54.5 -54.5l-125.5 -126.5z" />
    <glyph glyph-name="L" unicode="L" horiz-adv-x="1106" 
d="M1038 331l28.999 -5.00098l-103 -326h-929v33h46c49.333 0 85.333 16.333 108 49c12.667 19.333 19 63 19 131v774c0 74 -8.33301 120.667 -25 140c-22.667 26.667 -56.667 40 -102 40h-46v33h544v-33c-32.667 0 -59.834 -1.5 -81.501 -4.5s-39.5 -7.5 -53.5 -13.5
s-25 -12.833 -33 -20.5s-14.667 -16.5 -20 -26.5c-8.66699 -17.333 -13 -62.666 -13 -135.999v-753c0 -42 3.16699 -72.167 9.5 -90.5s18.5 -31.166 36.5 -38.499c16 -4.66699 62.333 -7 139 -7h87c92.667 0 157.334 6.33301 194.001 19
c18.667 6.66699 36.334 15.667 53.001 27s33 26.166 49 44.499s31.333 40.833 46 67.5s30 58.667 46 96z" />
    <glyph glyph-name="M" unicode="M" horiz-adv-x="1610" 
d="M741 0l-463.003 1008v-801c0 -41.333 2.83301 -73.666 8.5 -96.999s14 -40.666 25 -51.999s24.5 -18.333 40.5 -21s34 -4 54 -4h42v-33h-417v33h42c21.333 0 39.833 1.5 55.5 4.5s28.834 10.5 39.501 22.5s18.667 29.667 24 53s8 54.666 8 93.999v784
c0 28.667 -1.33301 53.667 -4 75s-9.5 39.5 -20.5 54.5s-27.667 26.5 -50 34.5s-53.833 12 -94.5 12v33h339l436 -939l428 939h339v-33h-41c-22 0 -41 -1.83301 -57 -5.5s-29.167 -11.334 -39.5 -23.001s-18.166 -29.167 -23.499 -52.5s-8 -55 -8 -95v-784
c0 -41.333 2.83301 -73.666 8.5 -96.999s14 -40.666 25 -51.999s24.333 -18.333 40 -21s33.834 -4 54.501 -4h41v-33h-510v33h42c21.333 0 40 1.83301 56 5.5s29.5 11.334 40.5 23.001s19.167 29 24.5 52s8 54.167 8 93.5v801l-462 -1008h-31z" />
    <glyph glyph-name="N" unicode="N" horiz-adv-x="1308" 
d="M-24 1205l324.998 -0.000976562l734 -901v692c0 40.667 -3 72.834 -9 96.501s-14.5 41.167 -25.5 52.5s-24.333 18.666 -40 21.999s-33.5 5 -53.5 5h-43v33h419v-33h-44c-20.667 0 -39 -1.83301 -55 -5.5s-29.333 -11.667 -40 -24s-18.5 -29.833 -23.5 -52.5
s-7.5 -54 -7.5 -94v-1011h-32l-791 966v-739c0 -41.333 2.83301 -73.666 8.5 -96.999s13.834 -40.666 24.501 -51.999s24 -18.333 40 -21s34 -4 54 -4h42v-33h-417v33h42c21.333 0 39.833 1.66699 55.5 5s29 11 40 23s19.167 29.5 24.5 52.5s8 54.167 8 93.5v834
c-17.333 21.333 -32 38.166 -44 50.499s-23.167 22.5 -33.5 30.5s-21.666 14.667 -33.999 20s-27.833 11 -46.5 17c-18 5.33301 -44 8 -78 8v33z" />
    <glyph glyph-name="O" unicode="O" horiz-adv-x="1309" 
d="M663 1233c76.667 0 149.831 -15.8359 219.498 -47.5029s130.834 -75.167 183.501 -130.5s94.667 -120.666 126 -195.999s47 -157 47 -245c0 -90.667 -15.667 -174.667 -47 -252s-73.666 -144.5 -126.999 -201.5s-115.833 -101.5 -187.5 -133.5s-147.834 -48 -228.501 -48
c-82 0 -158.667 15.333 -230 46s-133.166 74 -185.499 130s-93.666 122.667 -123.999 200s-45.5 162.666 -45.5 255.999c0 86.667 15.167 167.834 45.5 243.501s72.166 141.334 125.499 197.001s116.5 99.834 189.5 132.501s152.5 49 238.5 49zM645.997 1168
c-60.667 0 -114.5 -13.002 -161.5 -39.002s-86.667 -62.833 -119 -110.5s-56.833 -105.667 -73.5 -174s-25 -145.166 -25 -230.499c0 -84.667 8.16699 -162 24.5 -232s40.5 -130.167 72.5 -180.5s71.833 -89.5 119.5 -117.5s102.167 -42 163.5 -42
c56 0 107.5 10.667 154.5 32s88 54.166 123 98.499s62.5 101 82.5 170s30 151.5 30 247.5c0 90.667 -8.16699 171.834 -24.5 243.501s-41 132.334 -74 182.001s-74 87.5 -123 113.5s-105.5 39 -169.5 39z" />
    <glyph glyph-name="P" unicode="P" horiz-adv-x="1008" 
d="M372 561l0.00195312 -348c0 -76.667 8.33301 -124 25 -142c22.667 -25.333 56.334 -38 101.001 -38h46v-33h-513v33h45c50 0 86 16.333 108 49c12.667 19.333 19 63 19 131v774c0 75.333 -8 122 -24 140c-24 26.667 -58.333 40 -103 40h-45v33h440
c105.333 0 189.666 -11.333 252.999 -34c30.667 -10.667 59.5 -25.5 86.5 -44.5s50.333 -41.5 70 -67.5s35.167 -54.667 46.5 -86s17 -65 17 -101c0 -48 -8.33301 -92.333 -25 -133s-40.834 -75.5 -72.501 -104.5s-70.334 -51.667 -116.001 -68
s-97.834 -24.5 -156.501 -24.5c-57.333 0 -124.666 8 -201.999 24zM372.002 612c31.333 -6 58.832 -10.5029 82.499 -13.5029s44.5 -4.5 62.5 -4.5c30.667 0 59.667 6.33301 87 19s51.333 30.334 72 53.001s36.834 49.834 48.501 81.501s17.5 65.834 17.5 102.501
c0 44 -6.5 83.167 -19.5 117.5s-31 63.333 -54 87s-49.833 41.667 -80.5 54s-64 18.5 -100 18.5c-30 0 -68.667 -5.33301 -116 -16v-499z" />
    <glyph glyph-name="Q" unicode="Q" horiz-adv-x="1309" 
d="M798 73c30.667 -52 61.998 -97.1719 93.998 -135.505s65.667 -69.833 101 -94.5c35.333 -23.333 72.833 -42.166 112.5 -56.499s81.834 -23.166 126.501 -26.499v-29c-80 2.66699 -167 19.334 -261 50.001c-94 30 -182 71.333 -264 124c-82.667 52 -154 108 -214 168
c-42 17.333 -79.833 35 -113.5 53s-63.167 36.333 -88.5 55c-73.333 56.667 -129.5 127 -168.5 211s-58.5 182.667 -58.5 296c0 88.667 15.667 171.167 47 247.5s74 142.333 128 198s117.167 99.334 189.5 131.001s149.833 47.5 232.5 47.5c77.333 0 151 -16 221 -48
s131.5 -76 184.5 -132s95.167 -122.167 126.5 -198.5s47 -159.166 47 -248.499c0 -146.667 -41 -275.334 -123 -386.001c-81.333 -111.333 -187.666 -186.666 -318.999 -225.999zM649.998 1245c-60.667 0 -114.833 -12.501 -162.5 -37.501s-87.667 -61.333 -120 -109
s-57.166 -106 -74.499 -175s-26 -147.5 -26 -235.5c0 -83.333 8.16699 -159.833 24.5 -229.5s40.833 -129.5 73.5 -179.5s72.667 -89.167 120 -117.5s102.333 -42.5 165 -42.5c60.667 0 114.834 12.333 162.501 37s88.167 60.334 121.5 107.001s58.833 103.667 76.5 171
s26.5 143.666 26.5 228.999c0 94.667 -9.33301 178.334 -28 251.001s-44.834 133.5 -78.501 182.5s-74.334 86 -122.001 111s-100.5 37.5 -158.5 37.5z" />
    <glyph glyph-name="R" unicode="R" horiz-adv-x="1208" 
d="M1224 0l-318.997 0.00195312l-407 561c-14.667 -0.666992 -28 -1.33398 -40 -2.00098s-22.667 -1 -32 -1c-8 0 -16.5 0.333008 -25.5 1l-27.5 2v-348c0 -42.667 2.83301 -76 8.5 -100s14 -42 25 -54s24.167 -19.333 39.5 -22s32.666 -4 51.999 -4h48v-33h-515v33h46
c49.333 0 85.333 16.333 108 49c12.667 19.333 19 63 19 131v774c0 74 -8.33301 120.667 -25 140c-22.667 26.667 -56.667 40 -102 40h-46v33h437c64 0 119.333 -2.5 166 -7.5s85 -12.167 115 -21.5c30 -10 58.167 -23.5 84.5 -40.5s49.5 -37.667 69.5 -62
s35.667 -51.5 47 -81.5s17 -62 17 -96c0 -74.667 -23.833 -138.834 -71.5 -192.501s-121.834 -92.167 -222.501 -115.5l246 -343c29.333 -39.333 55.166 -71.833 77.499 -97.5s44.833 -46 67.5 -61s46.5 -26 71.5 -33s54.5 -12.167 88.5 -15.5v-33zM373.003 616.002
c11.333 0 21.168 -0.166992 29.501 -0.5s15.166 -0.5 20.499 -0.5c57.333 0 107.5 6.66699 150.5 20s79 31.833 108 55.5s50.833 51.5 65.5 83.5s22 67 22 105c0 37.333 -6.16699 71.5 -18.5 102.5s-30 57.833 -53 80.5s-50.333 40.167 -82 52.5s-66.5 18.5 -104.5 18.5
c-36 0 -82 -6 -138 -18v-499z" />
    <glyph glyph-name="S" unicode="S" horiz-adv-x="1006" 
d="M830 1233l-0.00488281 -414.001h-33c-15.333 111.333 -52 196.5 -110 255.5s-132 88.5 -222 88.5c-30.667 0 -58.667 -5.33301 -84 -16s-47.666 -24.5 -66.999 -41.5s-34.333 -36.5 -45 -58.5s-16 -45 -16 -69c0 -22 4.33301 -42.833 13 -62.5s36 -50.834 82 -93.501
c76.667 -48 145 -88 205 -120c56 -30.667 132 -77.334 228 -140.001c41.333 -31.333 73 -68.833 95 -112.5s33 -89.167 33 -136.5c0 -44.667 -9.16699 -87.334 -27.5 -128.001s-44 -76.167 -77 -106.5s-72.833 -54.5 -119.5 -72.5s-98 -27 -154 -27
c-34.667 0 -67 2.66699 -97 8c-5.33301 0.666992 -19.166 4.33398 -41.499 11.001l-72 20.5l-71.5 20c-22 6.33301 -34.667 9.5 -38 9.5c-15.333 0 -27.166 -4.5 -35.499 -13.5s-14.5 -27.5 -18.5 -55.5h-33v412h33c15.333 -84.667 36 -149.334 62 -194.001
c12 -21.333 28.333 -41 49 -59s44 -33.833 70 -47.5s54 -24.167 84 -31.5s60.333 -11 91 -11c36.667 0 69.834 5.16699 99.501 15.5s54.834 24.5 75.501 42.5s36.5 39 47.5 63s16.5 49 16.5 75c0 30 -8.16699 60 -24.5 90s-43.833 59.667 -82.5 89l-135 80
c-99.333 57.333 -187.666 112.333 -264.999 165c-43.333 34.667 -76.166 72.334 -98.499 113.001s-33.5 86.334 -33.5 137.001c0 42 8.83301 82.167 26.5 120.5s42.167 72 73.5 101s68.5 51.833 111.5 68.5s89.5 25 139.5 25c63.333 0 130.666 -15.333 201.999 -46
c16.667 -7.33301 30.667 -13.166 42 -17.499s20.666 -6.16602 27.999 -5.49902c16 0 28.833 4.5 38.5 13.5s17.167 27.5 22.5 55.5h33z" />
    <glyph glyph-name="T" unicode="T" horiz-adv-x="1106" 
d="M1048 1200l0.000976562 -283h-20c-10 76 -32.333 129.667 -67 161s-86 47 -154 47h-169v-918c0 -40 3 -71.667 9 -95s14.167 -40.833 24.5 -52.5s23.5 -19 39.5 -22s34.333 -4.5 55 -4.5h41v-33h-508v33h42c21.333 0 40 1.83301 56 5.5s29.167 11.334 39.5 23.001
s18.333 29 24 52s8.5 54.167 8.5 93.5v918h-143c-36.667 0 -68.834 -3 -96.501 -9s-51.5 -16.667 -71.5 -32s-36 -36.333 -48 -63s-19.333 -61.334 -22 -104.001h-33v283h993z" />
    <glyph glyph-name="U" unicode="U" horiz-adv-x="1308" 
d="M864 1174l0.000976562 33.001h424v-33h-45c-45.333 0 -81.333 -20 -108 -60c-12.667 -17.333 -19 -60 -19 -128v-486c0 -117.333 -12 -211 -36 -281c-12.667 -33.333 -30.5 -64.5 -53.5 -93.5s-52 -54.333 -87 -76s-76 -38.834 -123 -51.501s-101.167 -19 -162.5 -19
c-66 0 -123.5 5.66699 -172.5 17s-91.167 28 -126.5 50s-64.5 48.5 -87.5 79.5s-41.5 65.833 -55.5 104.5c-19.333 53.333 -29 151.666 -29 294.999v469c0 37.333 -2.33301 67.5 -7 90.5s-12.334 41.167 -23.001 54.5s-24.167 22.5 -40.5 27.5s-35.5 7.5 -57.5 7.5h-46v33
h519v-33h-46c-21.333 0 -40 -2.33301 -56 -7s-29.167 -13.334 -39.5 -26.001s-18.333 -30.667 -24 -54s-8.5 -54.333 -8.5 -93v-523c0 -52.667 3.5 -104 10.5 -154s21.5 -94.667 43.5 -134s53.333 -70.666 94 -93.999s95 -35 163 -35c38.667 0 76 4.66699 112 14
s68.833 21.833 98.5 37.5s55.5 34.834 77.5 57.501s38.333 47 49 73c22.667 52 34 142.667 34 272v486c0 74 -8.33301 120.667 -25 140c-22.667 26.667 -56.667 40 -102 40h-45z" />
    <glyph glyph-name="V" unicode="V" horiz-adv-x="1308" 
d="M1285 1207l0.00195312 -33c-25.333 -4.66699 -46.833 -11.667 -64.5 -21s-33.334 -21 -47.001 -35s-25.834 -30.833 -36.501 -50.5s-21.334 -42.5 -32.001 -68.5l-418 -1020h-33l-449 1034c-13.333 32 -25.5 58 -36.5 78s-23 35.667 -36 47s-28.833 19.5 -47.5 24.5
s-42 8.83301 -70 11.5v33h490v-33c-28.667 -2.66699 -51.667 -6.5 -69 -11.5s-30.666 -11 -39.999 -18s-15.5 -14.667 -18.5 -23s-4.5 -17.833 -4.5 -28.5c0 -30 13.667 -76.333 41 -139l305 -702l282 695c28 68.667 42 115.667 42 141c0 18.667 -9.66699 36 -29 52
s-52.333 27.333 -99 34v33h370z" />
    <glyph glyph-name="W" unicode="W" horiz-adv-x="1709" 
d="M1695 1207l0.000976562 -33.0049c-24 0 -43.667 -2.33301 -59 -7s-29.5 -14.667 -42.5 -30s-26.167 -38.166 -39.5 -68.499s-28.666 -70.833 -45.999 -121.5l-334 -968h-36l-273 767l-271 -767h-33l-356 997l-32 87.5c-8 21.667 -14 35.834 -18 42.501
c-12.667 23.333 -28.834 40.5 -48.501 51.5s-47.167 16.5 -82.5 16.5v33h444v-33h-22c-30.667 0 -54.334 -7.16699 -71.001 -21.5s-25 -31.5 -25 -51.5c0 -21.333 13.333 -69 40 -143l236 -673l198 573l-63 181c-10 22 -19.833 41.333 -29.5 58s-20.667 30.667 -33 42
s-26.833 20 -43.5 26s-37 9 -61 9v33h466v-33h-31c-34 0 -58.5 -7.16699 -73.5 -21.5s-22.5 -33.833 -22.5 -58.5c0 -29.333 13.333 -81.666 40 -156.999l230 -652l228 662c12.667 36.667 22.5 67.334 29.5 92.001s10.5 44.334 10.5 59.001c0 28.667 -12.333 48.5 -37 59.5
s-57 16.5 -97 16.5v33h358z" />
    <glyph glyph-name="X" unicode="X" horiz-adv-x="1308" 
d="M739 664l257.003 -383.998c37.333 -54.667 68 -98 92 -130s46.333 -56.5 67 -73.5s41 -28.333 61 -34s43.667 -8.83398 71 -9.50098v-33h-515v33c48.667 0.666992 80.667 8.16699 96 22.5s23 34.166 23 59.499c0 4 -0.5 8 -1.5 12s-3.5 9.83301 -7.5 17.5
s-9.83301 17.167 -17.5 28.5l-30.5 46l-203 308l-252 -322l-32.5 -42.5c-7.66699 -10.333 -13.167 -19.166 -16.5 -26.499s-5.33301 -13.5 -6 -18.5s-1 -10.833 -1 -17.5c0 -18 8 -33.167 24 -45.5s46.333 -19.5 91 -21.5v-33h-425v33c29.333 2 56.666 7.83301 81.999 17.5
s49.666 22.667 72.999 39s46.5 36.5 69.5 60.5s46.833 51.333 71.5 82l282 358l-236 346c-32.667 47.333 -62 85.833 -88 115.5s-51 52.5 -75 68.5s-48.333 27.333 -73 34s-52 11 -82 13v33h554v-33c-46.667 -2 -78.834 -9.83301 -96.501 -23.5s-26.5 -28.834 -26.5 -45.501
c0 -22 14.333 -53.667 43 -95l184 -276l213 271c13.333 16.667 23.5 30 30.5 40s12.167 18.333 15.5 25s5.5 12.667 6.5 18s1.5 11.666 1.5 18.999c0 25.333 -9.5 42.333 -28.5 51s-52.167 14 -99.5 16v33h425v-33c-40.667 -2.66699 -73.5 -10.167 -98.5 -22.5
s-48.833 -28.5 -71.5 -48.5c-24.667 -21.333 -62 -63.666 -112 -126.999z" />
    <glyph glyph-name="Y" unicode="Y" horiz-adv-x="1309" 
d="M864 1200l418.997 -0.000976562v-33h-24c-33.333 0 -69.5 -15.167 -108.5 -45.5s-81.5 -82.833 -127.5 -157.5l-290 -456v-301c0 -40 3 -71.667 9 -95s14.5 -40.833 25.5 -52.5s24.5 -19 40.5 -22s34.667 -4.5 56 -4.5h38v-33h-509v33h43c21.333 0 40 1.83301 56 5.5
s29.167 11.334 39.5 23.001s18.166 29 23.499 52s8 54.167 8 93.5v285l-329 502l-49 72c-12.667 18 -22.667 31 -30 39c-3.33301 3.33301 -9.16602 8.5 -17.499 15.5s-18.666 13.833 -30.999 20.5s-26 12.667 -41 18s-30.833 8 -47.5 8v33h512v-33h-26
c-13.333 0 -26.666 -1.5 -39.999 -4.5s-25.166 -7.66699 -35.499 -14s-18.833 -14.5 -25.5 -24.5s-10 -21.667 -10 -35c-0.666992 -10.667 3.83301 -25.5 13.5 -44.5s23.167 -42.5 40.5 -70.5l249 -387l237 370c33.333 54 51 95.333 53 124c-2 12.667 -5 24.167 -9 34.5
s-10.667 19.333 -20 27s-21.5 13.667 -36.5 18s-33.833 6.5 -56.5 6.5v33z" />
    <glyph glyph-name="Z" unicode="Z" horiz-adv-x="1105" 
d="M1041 1200l-788.001 -1127h492c38 0 71.167 3.5 99.5 10.5s53.5 19.667 75.5 38s41.333 43.833 58 76.5s33 74.334 49 125.001l29 -5l-57 -318h-977v33l770 1094h-383c-48.667 0 -87.5 -3.66699 -116.5 -11s-51.833 -19.833 -68.5 -37.5s-29.167 -41.167 -37.5 -70.5
s-16.166 -65.666 -23.499 -108.999h-34l25 301h887z" />
    <glyph glyph-name="bracketleft" unicode="[" horiz-adv-x="604" 
d="M538 -272h-388v1585h388v-70h-256v-1446h256v-69z" />
    <glyph glyph-name="backslash" unicode="\" horiz-adv-x="503" 
d="M73 1264l433 -1283h-71l-433 1283h71z" />
    <glyph glyph-name="bracketright" unicode="]" horiz-adv-x="603" 
d="M66 1314h389v-1587h-389v70h257v1447h-257v70z" />
    <glyph glyph-name="asciicircum" unicode="^" horiz-adv-x="850" 
d="M441 1081l375 -634h-81l-310 519l-309 -519h-83l381 634h27z" />
    <glyph glyph-name="underscore" unicode="_" horiz-adv-x="905" 
d="M922 -296h-936v74h936v-74z" />
    <glyph glyph-name="grave" unicode="`" horiz-adv-x="604" 
d="M105 1005h197l93 -305h-30z" />
    <glyph glyph-name="a" unicode="a" horiz-adv-x="805" 
d="M516 120l-101.999 -75.498c-26 -19 -44.333 -30.833 -55 -35.5c-32 -14.667 -65.667 -22 -101 -22c-28.667 0 -54.5 5 -77.5 15s-43.167 24 -60.5 42s-30.833 39.833 -40.5 65.5s-14.5 54.5 -14.5 86.5c0 36.667 7.33301 69.5 22 98.5s37.167 55.667 67.5 80
s69.5 46.5 117.5 66.5c76 35.333 157.333 68.666 244 99.999v32c0 40.667 -3.16699 74.667 -9.5 102s-16.166 49 -29.499 65s-29.166 27.333 -47.499 34s-39.5 10 -63.5 10c-38 0 -68 -10 -90 -30s-33 -43 -33 -69l3 -51c0 -27.333 -6.83301 -48.333 -20.5 -63
s-31.834 -22 -54.501 -22c-22 0 -40.167 7.83301 -54.5 23.5s-21.5 36.5 -21.5 62.5c0 24.667 6.66699 49.167 20 73.5s32.833 46.166 58.5 65.499s56.667 34.833 93 46.5s78.166 17.5 125.499 17.5c62.667 0 115.834 -9.16699 159.501 -27.5s75.167 -49.833 94.5 -94.5
c10.667 -26 16 -78 16 -156v-275c0 -46.667 0.666992 -82.5 2 -107.5s3.66602 -43.167 6.99902 -54.5s7.66602 -18.166 12.999 -20.499s12 -3.5 20 -3.5c6 0 11.667 0.833008 17 2.5s11.5 5.16699 18.5 10.5s15.167 12.666 24.5 21.999l36 36v-50
c-66 -88 -129 -132 -189 -132c-28 0 -50.833 10 -68.5 30s-26.5 54 -26.5 102zM516.001 178.002v308.999c-61.333 -24.667 -131.666 -56.334 -210.999 -95.001c-28.667 -14.667 -51.167 -35.667 -67.5 -63s-24.5 -57.666 -24.5 -90.999c0 -21.333 3.5 -41 10.5 -59
s16.167 -33.667 27.5 -47s24.666 -23.666 39.999 -30.999s31.666 -11 48.999 -11c44.667 0 103.334 29.333 176.001 88z" />
    <glyph glyph-name="b" unicode="b" horiz-adv-x="906" 
d="M278 677c80.667 108.667 165.33 162.996 253.997 162.996c40.667 0 79.834 -9.16699 117.501 -27.5s70.834 -44.666 99.501 -78.999s51.5 -76.166 68.5 -125.499s25.5 -104.666 25.5 -165.999c0 -66 -11.333 -127 -34 -183s-53.334 -104.667 -92.001 -146
s-83.167 -73.666 -133.5 -96.999s-103.166 -35 -158.499 -35c-92.667 0 -190.334 34.333 -293.001 103v839c0 56 -1.16699 99.167 -3.5 129.5s-5.66602 52.5 -9.99902 66.5s-10.666 22.333 -18.999 25s-18.166 4 -29.499 4c-18.667 0 -39.334 -5 -62.001 -15l-12 32l243 99
h39v-587zM277.996 619.996l-0.00195312 -484.999c62 -59.333 126 -89 192 -89c26 0 52.333 7.5 79 22.5s50.334 37 71.001 66s37.5 65 50.5 108s19.5 92.833 19.5 149.5c0 50.667 -6.33301 96.334 -19 137.001s-29.834 74.5 -51.501 101.5s-46 47.833 -73 62.5
s-55.167 22 -84.5 22c-14 0 -27.667 -1.33301 -41 -4s-27.166 -7.33398 -41.499 -14.001s-29.666 -16.334 -45.999 -29.001s-34.833 -28.667 -55.5 -48z" />
    <glyph glyph-name="c" unicode="c" horiz-adv-x="804" 
d="M744 314c-10 -54 -26.335 -101.666 -49.002 -142.999s-49.167 -76 -79.5 -104s-63.5 -49.333 -99.5 -64s-73 -22 -111 -22c-44.667 0 -87.667 10.167 -129 30.5s-77.833 49 -109.5 86s-57 81.833 -76 134.5s-28.5 112 -28.5 178c0 63.333 10.333 121.333 31 174
s48.667 98 84 136s76.333 67.5 123 88.5s96.334 31.5 149.001 31.5c39.333 0 75.5 -5.83301 108.5 -17.5s61.833 -27 86.5 -46s43.834 -40.167 57.501 -63.5s20.5 -46 20.5 -68c0 -22.667 -7.33301 -40.834 -22 -54.501s-35 -20.5 -61 -20.5
c-27.333 0 -49.833 6.83301 -67.5 20.5s-28.167 41.834 -31.5 84.501c-7.33301 70.667 -47.333 106 -120 106c-35.333 0 -66.5 -8 -93.5 -24s-49.5 -37.333 -67.5 -64s-31.5 -57.834 -40.5 -93.501s-13.5 -73.167 -13.5 -112.5c0 -46.667 5.83301 -92 17.5 -136
s29 -83.167 52 -117.5s50.833 -61.833 83.5 -82.5s69.667 -31 111 -31c24.667 0 48.167 3 70.5 9s43.833 16.667 64.5 32s40.5 36.5 59.5 63.5s37.5 61.167 55.5 102.5z" />
    <glyph glyph-name="d" unicode="d" horiz-adv-x="905" 
d="M629 97c-40 -41.333 -78.6689 -70.9961 -116.002 -88.9961s-78 -27 -122 -27s-85.833 9.83301 -125.5 29.5s-74.667 47.167 -105 82.5s-54.5 77.166 -72.5 125.499s-27 101.166 -27 158.499c0 56 9.5 111.5 28.5 166.5s45.667 104.5 80 148.5s75.5 79.667 123.5 107
s101 41 159 41c71.333 0 130.333 -22.333 177 -67v149c0 56.667 -1.16699 100.167 -3.5 130.5s-5.66602 52.5 -9.99902 66.5s-10.666 22.333 -18.999 25s-18.166 4 -29.499 4c-18 0 -38.333 -5 -61 -15l-12 32l242 99h39v-937c0 -56.667 0.833008 -100.334 2.5 -131.001
s5 -53.334 10 -68.001s11.5 -23.5 19.5 -26.5s18 -4.5 30 -4.5c15.333 0 36.666 5 63.999 15l9 -31l-240 -100h-41v116zM628.998 159.004v416.999c-2.66699 33.333 -10 63 -22 89s-26.833 48 -44.5 66s-37 31.667 -58 41s-42.167 14 -63.5 14
c-30.667 0 -59.167 -8.16699 -85.5 -24.5s-49.5 -39.333 -69.5 -69s-35.667 -65.167 -47 -106.5s-17 -87.666 -17 -138.999c0 -60 7.33301 -112.833 22 -158.5s33.667 -84.167 57 -115.5s49.833 -54.833 79.5 -70.5s60.5 -23.5 92.5 -23.5c53.333 0 105.333 26.667 156 80z
" />
    <glyph glyph-name="e" unicode="e" horiz-adv-x="804" 
d="M192 512c0 -60.667 8.16992 -114.835 24.5029 -162.502s38 -88.167 65 -121.5s58.333 -58.833 94 -76.5s73.167 -26.5 112.5 -26.5c52.667 0 98.667 14.5 138 43.5s72 79.167 98 150.5l28 -17c-6 -40 -18.333 -79 -37 -117s-42.167 -72.333 -70.5 -103
s-61.5 -55.167 -99.5 -73.5s-79.333 -27.5 -124 -27.5c-48.667 0 -94.334 9.83301 -137.001 29.5s-80 47.834 -112 84.501s-57.5 80.667 -76.5 132s-28.5 109.333 -28.5 174c0 69.333 9.66699 131.333 29 186s45.666 100.834 78.999 138.501s72.666 66.167 117.999 85.5
s94.666 29 147.999 29c44.667 0 85.834 -7.66699 123.501 -23s70.5 -37.333 98.5 -66s49.833 -63.167 65.5 -103.5s23.5 -85.5 23.5 -135.5h-560zM192.003 561.999l375 -0.000976562c-4 74.667 -21.667 129.334 -53 164.001s-72 52 -122 52
c-24 0 -47.5 -4.83301 -70.5 -14.5s-43.5 -23.667 -61.5 -42s-33.167 -41 -45.5 -68s-19.833 -57.5 -22.5 -91.5z" />
    <glyph glyph-name="f" unicode="f" horiz-adv-x="603" 
d="M374 746l0.00585938 -532.001c0 -42.667 2.83301 -76.167 8.5 -100.5s13.5 -42.5 23.5 -54.5s21.833 -19.5 35.5 -22.5s28.5 -4.5 44.5 -4.5h72v-32h-483v32h36c21.333 0 39.166 2.83301 53.499 8.5s26.166 15.5 35.499 29.5s16.166 32.667 20.499 56
s6.5 52.666 6.5 87.999v532h-157v64h157v53c0 58 8 111 24 159s38.5 89.5 67.5 124.5s64.333 61.833 106 80.5s88.5 28 140.5 28c22.667 0 47 -3.66699 73 -11s50 -17.666 72 -30.999s40.333 -29.166 55 -47.499s22 -38.166 22 -59.499
c0 -17.333 -7.5 -33.666 -22.5 -48.999s-31.833 -23 -50.5 -23c-6.66699 0 -13.334 0.833008 -20.001 2.5s-14 5.16699 -22 10.5s-16.333 13 -25 23s-19 23.333 -31 40c-22.667 32.667 -42.834 54.5 -60.501 65.5s-37.834 16.5 -60.501 16.5
c-27.333 0 -50.5 -7.33301 -69.5 -22s-32.5 -37.334 -40.5 -68.001c-7.33301 -28.667 -11 -106.334 -11 -233.001v-59h208v-64h-208z" />
    <glyph glyph-name="g" unicode="g" horiz-adv-x="905" 
d="M273 390c-50 24.667 -88.1631 58.335 -114.496 101.002s-39.5 90.667 -39.5 144c0 40 8.16699 77.833 24.5 113.5s38.666 67 66.999 94s62.333 48.167 102 63.5s82.834 23 129.501 23c77.333 0 144.333 -19 201 -57h171c13.333 0 23.5 -0.166992 30.5 -0.5
s12 -0.666016 15 -0.999023s4.83301 -1.16602 5.5 -2.49902s1.33398 -3 2.00098 -5c2.66699 -4.66699 4.16699 -10.5 4.5 -17.5s0.5 -15.167 0.5 -24.5c0 -12.667 -2.83301 -20.5 -8.5 -23.5s-22.167 -4.5 -49.5 -4.5h-105c33.333 -44 50 -98.667 50 -164
c0 -36.667 -7.5 -71.5 -22.5 -104.5s-36.333 -62 -64 -87s-61.334 -44.833 -101.001 -59.5s-83.834 -22 -132.501 -22c-20 0 -40.333 1.33301 -61 4s-41 7 -61 13c-26.667 -22.667 -44.334 -42.167 -53.001 -58.5s-13 -30.5 -13 -42.5c0 -10 1.66699 -18 5 -24
s11.666 -11.333 24.999 -16s33 -8.33398 59 -11.001s61.333 -4.33398 106 -5.00098c60.667 -1.33301 110.667 -3.33301 150 -6s68 -5 86 -7c55.333 -7.33301 99.166 -27.5 131.499 -60.5s48.5 -73.5 48.5 -121.5c0 -44 -12.5 -85.167 -37.5 -123.5
s-58.667 -71.833 -101 -100.5s-90.833 -51.334 -145.5 -68.001s-111 -25 -169 -25c-40.667 0 -82 4.33301 -124 13s-80.167 20.5 -114.5 35.5s-62.333 32.833 -84 53.5s-32.5 43 -32.5 67c0 13.333 1.5 25.666 4.5 36.999s10 25 21 41s27.333 35.667 49 59l86.5 91
c-30.667 18.667 -52.167 35.334 -64.5 50.001s-18.5 31 -18.5 49c0 10.667 1.5 21.667 4.5 33s9.33301 24.333 19 39s24 31.667 43 51s43.833 41.666 74.5 66.999zM264.004 95.001c-55.333 -60.667 -83 -112.668 -83 -156.001c0 -20 8.16699 -38 24.5 -54
s38.333 -29.5 66 -40.5s60 -19.5 97 -25.5s76.5 -9 118.5 -9c53.333 0 99.5 5.16699 138.5 15.5s71.167 24.166 96.5 41.499s44.166 36.333 56.499 57s18.5 41.334 18.5 62.001c0 15.333 -3 28.333 -9 39s-17.667 19.5 -35 26.5s-40.666 12.167 -69.999 15.5s-67 6 -113 8
c-131.333 2.66699 -233.333 9.33398 -306 20.001zM428.004 887c-43.333 0 -80 -17.5 -110 -52.5s-45 -88.5 -45 -160.5c0 -39.333 4 -76 12 -110s19.667 -63.333 35 -88s33.833 -43.834 55.5 -57.501s46.5 -20.5 74.5 -20.5c44.667 0 81.5 16.833 110.5 50.5
s43.5 86.834 43.5 159.501c0 40 -3.83301 76.833 -11.5 110.5s-19 63 -34 88s-33.5 44.667 -55.5 59s-47 21.5 -75 21.5z" />
    <glyph glyph-name="h" unicode="h" horiz-adv-x="905" 
d="M294 1258l-0.00292969 -593.003c34 37.333 63.5 67 88.5 89s47.833 38.833 68.5 50.5s40 19.5 58 23.5s36.667 6 56 6c46 0 85.5 -12.5 118.5 -37.5s57.833 -64.833 74.5 -119.5c10.667 -38.667 16 -107.667 16 -207v-287c0 -26.667 0.666992 -49.5 2 -68.5
s5.66602 -34.667 12.999 -47s19.166 -21.333 35.499 -27s39.5 -8.5 69.5 -8.5v-32h-398v32h19c26.667 0 47.334 2.33301 62.001 7s25.834 12.834 33.501 24.501s12.334 27.334 14.001 47.001s2.5 43.834 2.5 72.501v287c0 53.333 -2.33301 96.833 -7 130.5
s-12.167 60 -22.5 79s-23.666 31.667 -39.999 38s-36.166 9.5 -59.499 9.5c-15.333 0 -30.5 -1.5 -45.5 -4.5s-30.5 -8.83301 -46.5 -17.5s-33.167 -20.5 -51.5 -35.5s-38.5 -34.5 -60.5 -58.5v-428c0 -28.667 0.666992 -51 2 -67s3.66602 -28.5 6.99902 -37.5
s7.83301 -15.5 13.5 -19.5s12.834 -8.66699 21.501 -14c16.667 -8.66699 45.667 -13 87 -13v-32h-401v32c22 0 40.833 1.33301 56.5 4s28.667 9 39 19s17.666 25.167 21.999 45.5s6.5 47.833 6.5 82.5v733c0 56.667 -1.16699 100.167 -3.5 130.5s-5.83301 52.5 -10.5 66.5
s-11 22.333 -19 25s-18 4 -30 4c-15.333 0 -35.666 -5 -60.999 -15l-12 32l242 99h40z" />
    <glyph glyph-name="i" unicode="i" horiz-adv-x="502" 
d="M337 834l0.00195312 -651.001c0 -38.667 2.16699 -68.334 6.5 -89.001s11.5 -35.5 21.5 -44.5s22.833 -14.167 38.5 -15.5s34.5 -2 56.5 -2v-32h-394v32c27.333 0 49.166 2 65.499 6s28.833 11.667 37.5 23s14.167 26.833 16.5 46.5s3.5 44.834 3.5 75.501v312
c0 51.333 -0.833008 91.833 -2.5 121.5s-4.83398 51.834 -9.50098 66.501s-11.167 24 -19.5 28s-18.833 6 -31.5 6c-9.33301 0 -18.5 -1.16699 -27.5 -3.5s-19.833 -5.5 -32.5 -9.5l-13 31l244 99h40zM263.002 1258c25.333 0 46.666 -8.66699 63.999 -26
s26 -38.666 26 -63.999c0 -24.667 -8.66699 -45.834 -26 -63.501s-38.666 -26.5 -63.999 -26.5s-46.666 8.83301 -63.999 26.5s-26 38.834 -26 63.501c0 25.333 8.66699 46.666 26 63.999s38.666 26 63.999 26z" />
    <glyph glyph-name="j" unicode="j" horiz-adv-x="503" 
d="M338 929l0.00195312 -816c0 -70 -8 -130.667 -24 -182s-38 -93.833 -66 -127.5s-61.5 -58.667 -100.5 -75s-81.833 -24.5 -128.5 -24.5c-27.333 0 -50.833 2.83301 -70.5 8.5s-36.167 12.667 -49.5 21s-23 17.833 -29 28.5s-9 21.334 -9 32.001c0 22.667 8 40.667 24 54
s34.333 20 55 20c5.33301 0 10.666 -0.5 15.999 -1.5s11.5 -3.33301 18.5 -7s15.5 -9.16699 25.5 -16.5s22.667 -17.666 38 -30.999c28 -25.333 52 -38 72 -38c13.333 0 24.833 2.33301 34.5 7s18 15.167 25 31.5s12.333 40.166 16 71.499s5.5 74 5.5 128v576
c0 53.333 -0.833008 94.666 -2.5 123.999s-4.66699 51.5 -9 66.5s-10.833 24.167 -19.5 27.5s-19.334 5 -32.001 5c-9.33301 0 -18.5 -1 -27.5 -3s-19.833 -5.33301 -32.5 -10l-13 32l244 99h39zM261.002 1353c25.333 0 46.833 -8.83301 64.5 -26.5s26.5 -39.167 26.5 -64.5
c0 -24.667 -8.83301 -45.834 -26.5 -63.501s-39.167 -26.5 -64.5 -26.5c-24.667 0 -45.834 8.83301 -63.501 26.5s-26.5 38.834 -26.5 63.501c0 25.333 8.83301 46.833 26.5 64.5s38.834 26.5 63.501 26.5z" />
    <glyph glyph-name="k" unicode="k" horiz-adv-x="905" 
d="M295 1258l0.00292969 -803.999l207 185l44.5 42c11 10.667 19.333 19.5 25 26.5s9.5 12.5 11.5 16.5s3 8.33301 3 13c0 12 -4.83301 22 -14.5 30s-26.167 12.667 -49.5 14v29h353v-29c-24.667 -0.666992 -47 -2.5 -67 -5.5s-38.5 -8 -55.5 -15s-33.833 -16.5 -50.5 -28.5
s-34.667 -26.667 -54 -44l-208 -193l208 -263c28.667 -36.667 52.667 -66.167 72 -88.5s34.333 -38.5 45 -48.5c13.333 -13.333 24.666 -24 33.999 -32s19.166 -14.333 29.499 -19s22.166 -7.83398 35.499 -9.50098s30.666 -2.5 51.999 -2.5v-32h-394v32
c23.333 0.666992 38.833 4 46.5 10s11.5 15 11.5 27s-11.667 33.333 -35 64l-250 316v-267c0 -27.333 0.833008 -49.166 2.5 -65.499s4.5 -29.333 8.5 -39s8.66699 -16.834 14 -21.501s11.666 -8.66699 18.999 -12c6.66699 -4.66699 17.334 -7.66699 32.001 -9
s33.334 -2.33301 56.001 -3v-32h-413v32c27.333 0 49.833 1.66699 67.5 5s31.5 10.333 41.5 21s16.833 25.5 20.5 44.5s5.5 44.167 5.5 75.5v737c0 47.333 -0.5 85.333 -1.5 114s-2.5 47.667 -4.5 57c-4 22 -10.833 37 -20.5 45s-22.167 12 -37.5 12
c-12 0 -30.333 -5.33301 -55 -16l-16 32l242 99h39z" />
    <glyph glyph-name="l" unicode="l" horiz-adv-x="503" 
d="M335 1258v-1075c0 -36.667 2 -65.167 6 -85.5s11 -35.5 21 -45.5s23.5 -15.833 40.5 -17.5s38.167 -2.5 63.5 -2.5v-32h-397v32c26 0 47 2 63 6s28.167 11.667 36.5 23s13.833 26.833 16.5 46.5s4 44.834 4 75.501v736c0 55.333 -1.16699 98.166 -3.5 128.499
s-5.83301 52.5 -10.5 66.5s-11 22.167 -19 24.5s-17.667 3.5 -29 3.5c-16.667 0 -36 -5 -58 -15l-15 32l242 99h39z" />
    <glyph glyph-name="m" unicode="m" horiz-adv-x="1408" 
d="M296 661l70.998 69.998c17.333 16.667 28.666 27.334 33.999 32.001c26 22.667 54.5 40.167 85.5 52.5s61.5 18.5 91.5 18.5c50.667 0 94.334 -14.667 131.001 -44s61 -72.333 73 -129c30 35.333 57.5 64.5 82.5 87.5s48.833 40.667 71.5 53s44.334 20.833 65.001 25.5
s42 7 64 7c30 0 57.833 -5 83.5 -15s48.334 -26.667 68.001 -50s35 -54.333 46 -93s16.5 -86.667 16.5 -144v-349c0 -26 0.666992 -48.667 2 -68s5.83301 -35.166 13.5 -47.499s19.667 -21.333 36 -27s39.5 -8.5 69.5 -8.5v-32h-400v32h17c21.333 0 39.5 1.66699 54.5 5
s26.833 10.333 35.5 21s15 25.834 19 45.501s6 46.167 6 79.5v349c0 38.667 -3 70.5 -9 95.5s-14.833 45 -26.5 60s-25.834 25.333 -42.501 31s-35.667 8.5 -57 8.5c-15.333 0 -30.5 -1.5 -45.5 -4.5s-30.667 -8.66699 -47 -17s-34 -19.5 -53 -33.5
s-39.833 -35.667 -62.5 -65v-424c0 -28.667 0.333008 -51.167 1 -67.5s2.83398 -28.666 6.50098 -36.999s8.16699 -14.666 13.5 -18.999s12.666 -9.16602 21.999 -14.499c16.667 -8.66699 46 -13 88 -13v-32h-410v32c32 0 57 2.16699 75 6.5s31.167 12.166 39.5 23.499
s13.333 27 15 47s2.5 44.667 2.5 74v349c0 38 -3.16699 69.5 -9.5 94.5s-15.666 45.167 -27.999 60.5s-27 26.333 -44 33s-35.5 10 -55.5 10s-40.167 -3.5 -60.5 -10.5s-39.666 -16 -57.999 -27s-35.5 -23.167 -51.5 -36.5s-29 -26 -39 -38v-435c0 -26.667 1 -48.5 3 -65.5
s4.66699 -30.333 8 -40s7.83301 -16.834 13.5 -21.501s12.167 -8.66699 19.5 -12c14 -8 43.333 -12 88 -12v-32h-401v32c27.333 0 49.166 2 65.499 6s28.833 11.667 37.5 23s14.334 26.666 17.001 45.999s4 44.666 4 75.999v309c0 53.333 -0.833008 94.833 -2.5 124.5
s-5 52 -10 67s-11.667 24.333 -20 28s-18.833 5.5 -31.5 5.5c-8 0 -16.833 -1.16699 -26.5 -3.5s-20.834 -5.5 -33.501 -9.5l-13 31l244 99h38v-173z" />
    <glyph glyph-name="n" unicode="n" horiz-adv-x="907" 
d="M293 663c94.667 114 184.997 170.991 270.997 170.991c30 0 57.833 -5 83.5 -15s47.834 -26.667 66.501 -50s33.334 -54.666 44.001 -93.999s16 -88 16 -146v-346c0 -34.667 2 -62.167 6 -82.5s10.667 -35.5 20 -45.5s21.833 -16.333 37.5 -19s35.834 -4 60.501 -4v-32
h-400v32h16c26.667 0 47.667 2.33301 63 7s26.666 12.834 33.999 24.501s12.166 27.334 14.499 47.001s3.5 43.834 3.5 72.501v332c0 74.667 -9.5 128.334 -28.5 161.001s-51.5 49 -97.5 49c-71.333 0 -141.333 -38.333 -210 -115v-427c0 -34 1.16699 -60.833 3.5 -80.5
s7.83301 -34.834 16.5 -45.501s21.834 -17.5 39.501 -20.5s41.834 -4.5 72.501 -4.5v-32h-401v32h17c21.333 0 38.833 2.33301 52.5 7s24.5 12.834 32.5 24.501s13.5 27.334 16.5 47.001s4.5 43.834 4.5 72.501v300c0 58 -0.833008 102.833 -2.5 134.5s-5 54.834 -10 69.501
s-11.667 23.334 -20 26.001s-18.5 4 -30.5 4c-9.33301 0 -18.5 -1.16699 -27.5 -3.5s-19.833 -5.5 -32.5 -9.5l-13 31l244 99h38v-171z" />
    <glyph glyph-name="o" unicode="o" horiz-adv-x="905" 
d="M453 840c56.667 0 108.666 -10.999 155.999 -32.999s88.333 -51.667 123 -89s62 -81.333 82 -132s30 -104 30 -160c0 -66 -10.833 -126.333 -32.5 -181s-51 -101.5 -88 -140.5s-79.667 -69.333 -128 -91s-98.833 -32.5 -151.5 -32.5
c-55.333 0 -106.666 11.5 -153.999 34.5s-87.833 53.833 -121.5 92.5s-60 83.5 -79 134.5s-28.5 104.5 -28.5 160.5c0 58.667 10.167 114.167 30.5 166.5s48 98.666 83 138.999s76.333 72.333 124 96s99.167 35.5 154.5 35.5zM424.999 782.001
c-25.333 0 -49.832 -5.49707 -73.499 -16.4971s-44.834 -28.5 -63.501 -52.5s-33.667 -55.5 -45 -94.5s-17 -86.167 -17 -141.5c0 -56.667 6 -111.334 18 -164.001s29 -98.667 51 -138s48.833 -71 80.5 -95s66.834 -36 105.501 -36c28 0 54.167 5.5 78.5 16.5
s45.166 28.833 62.499 53.5s31.166 57 41.499 97s15.5 89.333 15.5 148c0 58 -5.83301 112.667 -17.5 164s-28.167 96.166 -49.5 134.499s-47.666 68.666 -78.999 90.999s-67.333 33.5 -108 33.5z" />
    <glyph glyph-name="p" unicode="p" horiz-adv-x="905" 
d="M-2 824l249.997 100.001h33v-189c42 71.333 84 121.333 126 150s86 43 132 43s87.667 -10.5 125 -31.5s69.333 -49.833 96 -86.5s47.167 -79.167 61.5 -127.5s21.5 -99.833 21.5 -154.5c0 -61.333 -8.5 -119.833 -25.5 -175.5s-41.667 -104.5 -74 -146.5
s-71.333 -75.333 -117 -100s-96.834 -37 -153.501 -37c-20 0 -38.167 0.833008 -54.5 2.5s-32 5.16699 -47 10.5s-29.667 12.833 -44 22.5s-29.833 21.834 -46.5 36.501v-247c0 -28.667 0.833008 -51.334 2.5 -68.001s4.33398 -29.834 8.00098 -39.501
s8.33398 -16.834 14.001 -21.501s12.5 -9 20.5 -13c16.667 -8.66699 47.334 -13 92.001 -13v-32h-425v32h22c19.333 0 36.5 0.833008 51.5 2.5s27.333 7.83398 37 18.501s17.167 26.667 22.5 48s8 52 8 92v765c0 31.333 -1 56.333 -3 75s-5.66699 33.167 -11 43.5
s-12.666 17 -21.999 20s-21 4.5 -35 4.5c-7.33301 0 -15.5 -1.16699 -24.5 -3.5s-18.833 -5.5 -29.5 -9.5zM280.997 682.001l-0.000976562 -302.003c0 -64.667 2.66699 -107.667 8 -129c3.33301 -18 10.333 -34.667 21 -50s23.834 -28.833 39.501 -40.5
s33.834 -21.167 54.501 -28.5s43 -11 67 -11c34 0 64.5 8.16699 91.5 24.5s49.667 38.833 68 67.5s32.166 62.834 41.499 102.501s14 82.834 14 129.501c0 50.667 -5 97.667 -15 141s-24.5 80.833 -43.5 112.5s-42 56.5 -69 74.5s-56.5 27 -88.5 27
c-13.333 0 -25.833 -0.666992 -37.5 -2s-24 -5.5 -37 -12.5s-28.5 -18.667 -46.5 -35s-40.667 -39.166 -68 -68.499z" />
    <glyph glyph-name="q" unicode="q" horiz-adv-x="906" 
d="M774 928l-0.000976562 -1041c0 -27.333 0.833008 -49 2.5 -65s4.33398 -28.667 8.00098 -38s8 -16.166 13 -20.499s11.5 -8.16602 19.5 -11.499c16 -8.66699 45.667 -13 89 -13v-32h-408v32h16c20 0 37.333 1.33301 52 4s26.5 9 35.5 19s15.833 24.667 20.5 44
s7 46.333 7 81v348c-27.333 -32.667 -52.333 -59.5 -75 -80.5s-44.5 -37.833 -65.5 -50.5s-41.667 -21.667 -62 -27s-41.5 -8 -63.5 -8c-38.667 0 -76.167 9.16699 -112.5 27.5s-68.666 44.666 -96.999 78.999s-50.833 75.666 -67.5 123.999s-25 102.5 -25 162.5
c0 68.667 11 131.667 33 189s52 106.333 90 147s82 72.5 132 95.5s103.667 34.5 161 34.5c68.667 0 125 -19 169 -57c17.333 8.66699 34.166 17.667 50.499 27s31.833 19.333 46.5 30h31zM628.999 290l-0.000976562 381.001c0 28 -3.66699 54 -11 78
s-18.166 44.667 -32.499 62s-32.666 30.833 -54.999 40.5s-49.5 14.5 -81.5 14.5c-32.667 0 -63.5 -6.83301 -92.5 -20.5s-54.5 -34.5 -76.5 -62.5s-39.333 -63.333 -52 -106s-19 -92.667 -19 -150c0 -55.333 6.5 -103.833 19.5 -145.5s30.833 -76.334 53.5 -104.001
s48.667 -48.5 78 -62.5s60.666 -21 93.999 -21c35.333 0 66.5 7.5 93.5 22.5s54.167 39.5 81.5 73.5z" />
    <glyph glyph-name="r" unicode="r" horiz-adv-x="604" 
d="M293 834l-0.000976562 -182.002c68.667 121.333 138.667 182 210 182c16 0 30.833 -2.66699 44.5 -8s25.5 -12.5 35.5 -21.5s17.833 -19.5 23.5 -31.5s8.5 -24.667 8.5 -38c0 -22.667 -7.66699 -42 -23 -58s-33.666 -24 -54.999 -24c-9.33301 0 -20.333 3.16699 -33 9.5
s-25 13.5 -37 21.5s-23 15 -33 21s-17.667 9 -23 9c-16 0 -34.5 -12.667 -55.5 -38s-41.833 -58 -62.5 -98v-389c0 -24 1.5 -45.667 4.5 -65s9.33301 -35.833 19 -49.5s24 -24.167 43 -31.5s44.5 -11 76.5 -11v-32h-416v32c26.667 0 48 1.66699 64 5s28.833 10.333 38.5 21
s16.334 25.834 20.001 45.501s5.5 45.834 5.5 78.501v314c0 48 -0.666992 85.5 -2 112.5s-3 45.5 -5 55.5c-8.66699 35.333 -28.334 53 -59.001 53c-10 0 -19.833 -1.16699 -29.5 -3.5s-20.5 -5.5 -32.5 -9.5l-8 31l244 99h37z" />
    <glyph glyph-name="s" unicode="s" horiz-adv-x="704" 
d="M580 840l0.000976562 -276.003h-30c-10.667 43.333 -23.167 79.5 -37.5 108.5s-30.333 51.833 -48 68.5s-37.834 28.667 -60.501 36s-47 11 -73 11c-21.333 0 -40.333 -3.16699 -57 -9.5s-31.167 -14.333 -43.5 -24s-21.833 -20.667 -28.5 -33s-10 -25.166 -10 -38.499
c0 -16.667 2 -32 6 -46s11.333 -27.167 22 -39.5s25 -24.666 43 -36.999s41 -25.5 69 -39.5l130 -63c119.333 -58.667 179 -135.667 179 -231c0 -37.333 -7.66699 -71.166 -23 -101.499s-35.833 -56 -61.5 -77s-54.667 -37.5 -87 -49.5s-65.5 -18 -99.5 -18
c-25.333 0 -52 2 -80 6s-58 10.667 -90 20c-9.33301 2.66699 -18 5 -26 7s-15 3 -21 3c-13.333 0 -24 -7.66699 -32 -23h-29v289h29c8 -41.333 20.333 -77.5 37 -108.5s36 -57 58 -78s46.5 -36.667 73.5 -47s54.5 -15.5 82.5 -15.5c20 0 38.333 3 55 9
s31.167 14.5 43.5 25.5s22 24 29 39s10.5 30.833 10.5 47.5c0 20.667 -3 39 -9 55s-17 31.833 -33 47.5s-37.833 31.834 -65.5 48.501s-63.5 36 -107.5 58c-42.667 20.667 -77.5 40.334 -104.5 59.001s-48.167 37.167 -63.5 55.5s-25.666 37.666 -30.999 57.999
s-8 43.166 -8 68.499c0 34 6 65.167 18 93.5s29 53.166 51 74.499s47.833 37.833 77.5 49.5s62.834 17.5 99.501 17.5c11.333 0 25.666 -1.66699 42.999 -5s35.166 -7.16602 53.499 -11.499l49.5 -12c14.667 -3.66699 24.667 -5.5 30 -5.5c10 0 17.333 2 22 6
s10.667 13.333 18 28h30z" />
    <glyph glyph-name="t" unicode="t" horiz-adv-x="504" 
d="M293 1079v-265h188v-62h-188v-526c0 -26 1.83301 -47.833 5.5 -65.5s9.33398 -31.334 17.001 -41.001s16.334 -16.5 26.001 -20.5s20.167 -6 31.5 -6c20 0 39.167 6 57.5 18s32.166 29.667 41.499 53h34c-20 -58 -48.833 -101.5 -86.5 -130.5
s-76.834 -43.5 -117.501 -43.5c-46.667 0 -84.167 16.333 -112.5 49s-42.5 88.334 -42.5 167.001v546h-129v29c50 19.333 95 52.5 135 99.5s77.333 113.167 112 198.5h28z" />
    <glyph glyph-name="u" unicode="u" horiz-adv-x="905" 
d="M767 817l0.00195312 -490.997c0 -56 1 -99.333 3 -130s5.16699 -53.334 9.5 -68.001s10.5 -23.5 18.5 -26.5s18.333 -4.5 31 -4.5c16.667 0 37.334 5 62.001 15l12 -31l-243 -100h-40v172c-36 -38.667 -66.5 -69.5 -91.5 -92.5s-47.667 -40.5 -68 -52.5
s-39.333 -19.5 -57 -22.5s-36.834 -4.5 -57.501 -4.5c-74 0 -127.167 27.5 -159.5 82.5s-48.5 132.5 -48.5 232.5v362c0 27.333 -2.16699 49.166 -6.5 65.499s-11.5 28.833 -21.5 37.5s-23 14.667 -39 18s-35.667 5 -59 5h-11v33h284v-543
c0 -38.667 3.66699 -70.167 11 -94.5s17.166 -43 29.499 -56s26.666 -21.667 42.999 -26s33.166 -6.5 50.499 -6.5c26 0 54.833 7.83301 86.5 23.5s69.834 45.834 114.501 90.501v458c0 23.333 -1.66699 42.666 -5 57.999s-10 27.666 -20 36.999s-23.333 16 -40 20
s-38 6 -64 6v33h276z" />
    <glyph glyph-name="v" unicode="v" horiz-adv-x="905" 
d="M14 817l381.002 0.000976562v-33h-25c-22.667 0 -40 -5.5 -52 -16.5s-18 -26.167 -18 -45.5c-0.666992 -20 5.66602 -44.667 18.999 -74l189 -448l188 465c13.333 32.667 20 57.667 20 75s-7 29 -21 35s-37.667 9 -71 9v33h264v-33c-18.667 -2 -34 -5.5 -46 -10.5
s-22.333 -11.833 -31 -20.5s-16 -19.334 -22 -32.001l-20 -44l-288 -696h-35l-289 684c-9.33301 20.667 -17.833 38.167 -25.5 52.5s-16.834 25.833 -27.501 34.5s-23 15.5 -37 20.5s-31.667 8.83301 -53 11.5v33z" />
    <glyph glyph-name="w" unicode="w" horiz-adv-x="1308" 
d="M12 817l339.004 0.000976562v-33c-31.333 -2 -51.833 -7.66699 -61.5 -17s-14.5 -22.333 -14.5 -39c-1.33301 -9.33301 -0.333008 -19.333 3 -30s7.66602 -22.667 12.999 -36l172 -466l175 379l-47 120c-4.66699 15.333 -10.334 28.166 -17.001 38.499s-14.667 19 -24 26
s-21 12.5 -35 16.5s-31.333 6.66699 -52 8v33h386v-33c-36 -2 -63 -7.83301 -81 -17.5s-27 -26.834 -27 -51.501c0 -12.667 2.66699 -24.667 8 -36l183 -466l170 449c12.667 32.667 19 58.334 19 77.001c0 11.333 -5.83301 21.166 -17.5 29.499s-34.167 13.5 -67.5 15.5v33
h255v-33c-52 -8 -89.667 -43 -113 -105l-271 -698h-36l-202 517l-236 -517h-33l-260 681c-8 22 -16 39.833 -24 53.5s-16.833 24.834 -26.5 33.501s-20.834 15.5 -33.501 20.5s-27.334 9.83301 -44.001 14.5v33z" />
    <glyph glyph-name="x" unicode="x" horiz-adv-x="906" 
d="M24 810l381.006 -0.00195312v-33c-24 0 -41 -3.83301 -51 -11.5s-15 -18.5 -15 -32.5c0 -12.667 5.16699 -26.167 15.5 -40.5s25.5 -37.5 45.5 -69.5l57 -92l67 92c42.667 58 64 94.667 64 110c0 12 -4.83301 22.333 -14.5 31s-26.167 13 -49.5 13v33h274v-33
c-18 -0.666992 -33.833 -3.66699 -47.5 -9s-27.5 -13.666 -41.5 -24.999s-29.333 -26.666 -46 -45.999s-36 -44 -58 -74l-111 -148l202 -290c25.333 -37.333 46.166 -65.833 62.499 -85.5s30.666 -34.5 42.999 -44.5s24.666 -16.167 36.999 -18.5
s27.166 -3.83301 44.499 -4.5v-32h-381v32c22 0 40.667 4.33301 56 13s23 21 23 37c-2 14 -21 48.333 -57 103l-119 173l-130 -173c-20.667 -27.333 -35.834 -49 -45.501 -65s-14.5 -26 -14.5 -30c0 -15.333 6.66699 -28.5 20 -39.5s33.333 -17.167 60 -18.5v-32h-264v32
c12 1.33301 23 4 33 8s21.167 11.5 33.5 22.5s26.5 26.167 42.5 45.5s36 45 60 77l169 226l-154 223c-22.667 32 -41.834 57.5 -57.501 76.5s-30.667 33.333 -45 43s-28.333 16 -42 19s-29.167 4.5 -46.5 4.5v33z" />
    <glyph glyph-name="y" unicode="y" horiz-adv-x="906" 
d="M11 905l377.998 0.000976562v-33h-19c-26.667 0 -46.5 -5.66699 -59.5 -17s-19.5 -26 -19.5 -44c0 -23.333 9.66699 -55 29 -95l197 -409l182 448c9.33301 24.667 14 48.667 14 72c0 14 -4.5 25 -13.5 33s-31.833 12 -68.5 12v33h264v-33
c-15.333 -1.33301 -28.166 -3.33301 -38.499 -6s-19.333 -8 -27 -16s-15.5 -20 -23.5 -36s-17.667 -37.667 -29 -65l-330 -807c-16 -38.667 -35 -73 -57 -103s-45.167 -55 -69.5 -75s-49.166 -35 -74.499 -45s-50 -15 -74 -15c-17.333 0 -33.333 2.66699 -48 8
s-27.334 12.666 -38.001 21.999s-18.834 19.833 -24.501 31.5s-8.5 24.167 -8.5 37.5c0 24.667 8.16699 44.5 24.5 59.5s38.5 22.5 66.5 22.5c6.66699 0 16.334 -1.83301 29.001 -5.5l38.5 -11.5l35.5 -11c10.667 -3.33301 17.334 -5 20.001 -5c17.333 0 36.5 9.5 57.5 28.5
s42.5 54.167 64.5 105.5l58 140l-292 612c-16 36 -35 65.333 -57 88s-51 38 -87 46v33z" />
    <glyph glyph-name="z" unicode="z" horiz-adv-x="803" 
d="M760 248v-248h-725v32l539 716h-266c-28.667 0 -52 -0.833008 -70 -2.5s-32.333 -4.5 -43 -8.5s-19.167 -9.33301 -25.5 -16s-12.166 -15 -17.499 -25c-15.333 -29.333 -24.333 -66 -27 -110h-36v224h685v-33l-542 -718h294c32 0 58 1.16699 78 3.5s36.5 6.33301 49.5 12
s23.167 13 30.5 22s14.666 19.833 21.999 32.5c4 10 8.16699 24.667 12.5 44s7.83301 44.333 10.5 75h31z" />
    <glyph glyph-name="braceleft" unicode="{" horiz-adv-x="870" 
d="M743 -266l0.00292969 -29.9971c-48 6 -92.333 19.833 -133 41.5s-75.667 47.834 -105 78.501s-52.166 65.167 -68.499 103.5s-24.5 77.5 -24.5 117.5c0 19.333 2 42.166 6 68.499s8.66699 52.833 14 79.5s10 51.667 14 75s6 42 6 56c0 21.333 -4.66699 42.166 -14 62.499
s-22.666 39 -39.999 56s-38.5 31.5 -63.5 43.5s-52.833 20.333 -83.5 25v35c32 3.33301 60.167 11.166 84.5 23.499s45.166 27.166 62.499 44.499s30.666 36.333 39.999 57s14 41.667 14 63c0 14 -2 32.333 -6 55s-8.66699 47.334 -14 74.001s-10 53.167 -14 79.5
s-6 49.5 -6 69.5c0 40.667 8.16699 79.834 24.5 117.501s39.166 72 68.499 103s64.333 57 105 78s85 35.167 133 42.5v-32c-68.667 -16.667 -119 -43.5 -151 -80.5s-48 -77.833 -48 -122.5c0 -16 2 -36.333 6 -61s8.66699 -50.334 14 -77.001s10 -53 14 -79s6 -48.333 6 -67
c0 -30 -5.5 -59.667 -16.5 -89s-27.333 -57.333 -49 -84s-48.834 -51.167 -81.501 -73.5s-70.334 -41.5 -113.001 -57.5c42 -15.333 79.333 -34.5 112 -57.5s59.667 -48.167 81 -75.5s37.833 -56 49.5 -86s17.5 -59.333 17.5 -88c0 -18.667 -2 -40.834 -6 -66.501
s-8.66699 -52 -14 -79s-10 -52.667 -14 -77s-6 -44.5 -6 -60.5c0 -44.667 16 -85.667 48 -123s82.333 -65 151 -83z" />
    <glyph glyph-name="bar" unicode="|" horiz-adv-x="363" 
d="M216 1353v-1649h-73v1649h73z" />
    <glyph glyph-name="braceright" unicode="}" horiz-adv-x="869" 
d="M157 1321l0.00195312 31.998c48.667 -7.33301 93.334 -21.5 134.001 -42.5s75.834 -47 105.501 -78s52.667 -65.5 69 -103.5s24.5 -77 24.5 -117c0 -20 -2.33301 -43 -7 -69l-14 -78.5l-13.5 -74.5c-4.33301 -23.333 -6.5 -42 -6.5 -56c0 -21.333 4.5 -42.333 13.5 -63
s22.167 -39.667 39.5 -57s38.333 -32.166 63 -44.499s52.667 -20.166 84 -23.499v-35c-30.667 -4.66699 -58.334 -13 -83.001 -25s-45.834 -26.333 -63.501 -43s-31 -35.334 -40 -56.001s-13.5 -41.667 -13.5 -63c0 -14 2.16699 -32.667 6.5 -56l13.5 -75l14 -79.5
c4.66699 -26.333 7 -49.166 7 -68.499c0 -40 -8.16699 -78.833 -24.5 -116.5s-39.333 -72.167 -69 -103.5s-64.834 -57.833 -105.501 -79.5s-85.334 -35.5 -134.001 -41.5v30c68.667 18 119 45.5 151 82.5s48 78.167 48 123.5c0 15.333 -2.16699 35.333 -6.5 60l-13.5 77
l-14 79c-4.66699 26 -7 47.667 -7 65c0 30 5.5 60 16.5 90s27.5 58.5 49.5 85.5s49.333 51.5 82 73.5s71 40.667 115 56c-42 16 -79.333 35.5 -112 58.5s-60.167 48.167 -82.5 75.5s-39.333 55.833 -51 85.5s-17.5 59.167 -17.5 88.5c0 18.667 2.33301 41 7 67l14 79
l13.5 77c4.33301 24.667 6.5 45 6.5 61c0 44.667 -16 85.5 -48 122.5s-82.333 63.833 -151 80.5z" />
    <glyph glyph-name="asciitilde" unicode="~" horiz-adv-x="981" 
d="M922 511l39.998 -0.00195312c-2 -38.667 -8.66699 -73.167 -20 -103.5s-26.666 -55.833 -45.999 -76.5s-42 -36.5 -68 -47.5s-53.667 -16.5 -83 -16.5c-17.333 0 -31.666 0.5 -42.999 1.5s-27 4.66699 -47 11s-48.167 16.833 -84.5 31.5l-155.5 63
c-93.333 38 -158 57 -194 57c-41.333 0 -75.833 -12.833 -103.5 -38.5s-47.5 -67.167 -59.5 -124.5h-40c2 40 8.83301 75.333 20.5 106s27 56.334 46 77.001s40.667 36.334 65 47.001s49.5 16 75.5 16c37.333 0 81.833 -9.33301 133.5 -28s114.167 -43.667 187.5 -75
c50 -22 92.833 -38 128.5 -48s63.834 -15 84.501 -15c44.667 0 81.667 14 111 42s46.666 68.333 51.999 121z" />
    <glyph glyph-name="uni00A0" unicode="&#xa0;" horiz-adv-x="453" 
 />
    <glyph glyph-name="exclamdown" unicode="&#xa1;" horiz-adv-x="604" 
d="M285 613l33.001 0.000976562l79 -715c0 -2 0.333008 -6.66699 1 -14s1.16699 -15 1.5 -23s0.666016 -15.333 0.999023 -22s0.5 -10.334 0.5 -11.001c0 -38 -9.83301 -68.167 -29.5 -90.5s-43.167 -33.5 -70.5 -33.5c-28 0 -51.5 11.167 -70.5 33.5
s-28.5 56.166 -28.5 101.499c0 12.667 1.33301 32.334 4 59.001zM302.001 957.001c27.333 0 50.666 -9.49902 69.999 -28.499s29 -42.5 29 -70.5c0 -27.333 -9.66699 -50.333 -29 -69s-42.666 -28 -69.999 -28s-50.333 9.33301 -69 28s-28 41.667 -28 69
s9.33301 50.666 28 69.999s41.667 29 69 29z" />
    <glyph glyph-name="cent" unicode="&#xa2;" horiz-adv-x="905" 
d="M795 390c-12 -48 -28.168 -92.3301 -48.501 -132.997s-44.5 -75.5 -72.5 -104.5s-60.333 -51.667 -97 -68s-77 -24.5 -121 -24.5c-47.333 0 -95.333 10.333 -144 31l-125 -345h-62l137 378c-55.333 52.667 -94 107.5 -116 164.5s-33 121.167 -33 192.5
c0 64.667 9.66699 123.834 29 177.501s46.166 99.5 80.499 137.5s74.833 67.833 121.5 89.5s96.667 32.5 150 32.5h22c8.66699 0 19 -0.666992 31 -2l124 337h64l-128 -355c33.333 -14.667 60.5 -29.334 81.5 -44.001s37.667 -29.167 50 -43.5s21 -29 26 -44
s7.5 -30.5 7.5 -46.5c0 -22.667 -7.16699 -40.834 -21.5 -54.501s-34.833 -20.5 -61.5 -20.5s-48.667 7 -66 21s-28.333 42.333 -33 85c-2 9.33301 -4.16699 18.666 -6.5 27.999s-5.5 19.333 -9.5 30l-201 -559c14.667 -10.667 27.834 -19.167 39.501 -25.5
s23 -11.833 34 -16.5s22 -7.83398 33 -9.50098s23.5 -2.5 37.5 -2.5c36 0 70.5 7.5 103.5 22.5s57.833 32.5 74.5 52.5c18.667 21.333 43.334 65 74.001 131zM326.999 302.003l197.001 545.002c-17.333 6.66699 -35 10 -53 10c-36 0 -67.5 -8 -94.5 -24s-49.333 -38 -67 -66
s-31 -60.167 -40 -96.5s-13.5 -75.166 -13.5 -116.499c0 -22.667 1 -43.834 3 -63.501s5.66699 -39.334 11 -59.001s12.666 -39.834 21.999 -60.501s21 -43.667 35 -69z" />
    <glyph glyph-name="sterling" unicode="&#xa3;" horiz-adv-x="905" 
d="M639 589l-226.998 -0.00292969v-61c0 -29.333 -1 -56.333 -3 -81s-5.16699 -49 -9.5 -73s-9.83301 -49.167 -16.5 -75.5s-15 -55.5 -25 -87.5l135.5 -43c32.333 -10 53.166 -16 62.499 -18c32 -6.66699 61.667 -10 89 -10c49.333 0 89.166 11.167 119.499 33.5
s52.5 58.166 66.5 107.499l33 -8c-6 -47.333 -17.167 -89 -33.5 -125s-35.833 -66.167 -58.5 -90.5s-48.167 -42.666 -76.5 -54.999s-56.833 -18.5 -85.5 -18.5c-22 0 -41 1.16699 -57 3.5s-33.667 8 -53 17s-42.666 23 -69.999 42l-108 78.5
c-47.333 -94 -102.333 -141 -165 -141c-30 0 -54.667 10.167 -74 30.5s-29 48.166 -29 83.499c0 40 13.667 73 41 99s62 39 104 39c10 0 21.167 -0.666992 33.5 -2s26.166 -2.66602 41.499 -3.99902c2 14.667 3 27.667 3 39v28c0 26 -1.5 63.333 -4.5 112
s-7.5 108.667 -13.5 180h-172v83h172c-8 88 -12 147 -12 177c0 58.667 9 111.334 27 158.001s42 86.5 72 119.5s64.667 58.333 104 76s80.666 26.5 123.999 26.5c38 0 70.833 -5.83301 98.5 -17.5s50.667 -26.5 69 -44.5s32.166 -37.5 41.499 -58.5s14 -40.833 14 -59.5
c0 -18 -7 -34.5 -21 -49.5s-29.667 -22.5 -47 -22.5c-9.33301 0 -17.666 1 -24.999 3s-14.166 6.83301 -20.499 14.5s-11.333 18 -15 31s-6.5 30.5 -8.5 52.5c-2.66699 36 -13 62 -31 78s-43.333 24 -76 24c-22.667 0 -43.667 -4 -63 -12s-36.333 -21.667 -51 -41
s-26.167 -44.666 -34.5 -75.999s-12.5 -70.666 -12.5 -117.999c0 -14.667 0.833008 -34.334 2.5 -59.001l5 -76c1.66699 -26 3.66699 -50.667 6 -74s4.5 -40.666 6.5 -51.999h227v-83zM264.002 156.997c-25.333 16.667 -50.333 25 -75 25
c-26.667 0 -47.5 -7.33301 -62.5 -22s-22.5 -33.334 -22.5 -56.001c0 -21.333 5.66699 -38.166 17 -50.499s25 -18.5 41 -18.5c19.333 0 38.333 9.16699 57 27.5s33.667 49.833 45 94.5z" />
    <glyph glyph-name="currency" unicode="&#xa4;" horiz-adv-x="906" 
d="M702 859l127 125.002l52 -50l-128 -125c60.667 -78.667 91 -161.334 91 -248.001c0 -90.667 -30.333 -174.334 -91 -251.001l128 -128l-52 -49l-127 125c-78.667 -60.667 -158 -91 -238 -91c-26 0 -52 2.5 -78 7.5s-50.333 11.667 -73 20s-43.667 18 -63 29
s-35.333 22.5 -48 34.5l-128 -125l-50 49l128 128c-60.667 68.667 -91 151.667 -91 249c0 92.667 30.333 176 91 250l-128 125l50 50l128 -125c15.333 13.333 33.333 25.5 54 36.5s42.167 20.5 64.5 28.5s45 14.167 68 18.5s44.833 6.5 65.5 6.5
c41.333 0 84.5 -7.5 129.5 -22.5s84.5 -37.5 118.5 -67.5zM453 877.002c-44 0 -85.3311 -8.50098 -123.998 -25.501s-72.5 -40 -101.5 -69s-52.167 -62.833 -69.5 -101.5s-26 -80 -26 -124c0 -43.333 8.33301 -84.333 25 -123s39.667 -72.5 69 -101.5
s63.333 -51.833 102 -68.5s80 -25 124 -25c42.667 0 83.667 8.5 123 25.5s73.666 40 102.999 69s52.666 62.833 69.999 101.5s26 79.667 26 123c0 40.667 -8.16699 80.334 -24.5 119.001s-39 72.667 -68 102s-63.167 53 -102.5 71s-81.333 27 -126 27z" />
    <glyph glyph-name="yen" unicode="&#xa5;" horiz-adv-x="905" 
d="M528 376l375.997 0.000976562v-64h-376v-97c0 -30 0.333008 -54.167 1 -72.5s2.33398 -33 5.00098 -44s6.66699 -19.667 12 -26s12.333 -12.166 21 -17.499c22 -12.667 47.333 -19 76 -19h36v-36h-455v36h28c27.333 0 49.166 2.16699 65.499 6.5s28.833 12.833 37.5 25.5
s14.334 30.667 17.001 54s4 54.333 4 93v97h-375v64h375v127l-13 32h-362v64h334l-189 440c-11.333 25.333 -22 46.166 -32 62.499s-20.5 29.166 -31.5 38.499s-23.167 16 -36.5 20s-28.333 6 -45 6v34h391v-34c-42.667 -4 -71.167 -11 -85.5 -21s-21.5 -21.333 -21.5 -34
c0 -10 5.33301 -27.333 16 -52l190 -460l188 446c12.667 30 19 52 19 66c0 7.33301 -1.16699 13.833 -3.5 19.5s-6.66602 10.5 -12.999 14.5s-16.166 7.83301 -29.499 11.5s-31 6.83398 -53 9.50098v34h305v-34c-21.333 0 -39.166 -2.5 -53.499 -7.5s-27 -13 -38 -24
s-21.333 -25.333 -31 -43s-19.834 -38.834 -30.501 -63.501l-189 -429h342v-64h-370l-6 -14v-145z" />
    <glyph glyph-name="brokenbar" unicode="&#xa6;" horiz-adv-x="363" 
d="M216 356v-639h-73v639h73zM216 1349v-657h-73v657h73z" />
    <glyph glyph-name="section" unicode="&#xa7;" horiz-adv-x="906" 
d="M334 832c-39.333 44 -67.3301 83.667 -83.9971 119s-25 71.666 -25 108.999c0 34 6.5 66.167 19.5 96.5s30.833 56.833 53.5 79.5s49.167 40.5 79.5 53.5s63.166 19.5 98.499 19.5c32 0 61.667 -5.5 89 -16.5s51 -25.5 71 -43.5s35.5 -38.667 46.5 -62
s16.5 -47.333 16.5 -72c0 -18 -5.5 -35.667 -16.5 -53s-28.833 -26 -53.5 -26c-20.667 0 -37.334 6.83301 -50.001 20.5s-19 29.167 -19 46.5c0 6.66699 2 18.834 6 36.501s6 33.834 6 48.501c0 24.667 -8.66699 44.834 -26 60.501s-40.666 23.5 -69.999 23.5
c-21.333 0 -41.5 -3.83301 -60.5 -11.5s-35.5 -18.667 -49.5 -33s-25 -30.666 -33 -48.999s-12 -38.5 -12 -60.5c0 -22.667 3.5 -43.667 10.5 -63s17.167 -37.833 30.5 -55.5s29.666 -35.167 48.999 -52.5s41.666 -35 66.999 -53
c51.333 -37.333 95.166 -72.333 131.499 -105s66.5 -64.167 90.5 -94.5s41.5 -60.333 52.5 -90s16.5 -60.5 16.5 -92.5c0 -53.333 -15.667 -106.833 -47 -160.5s-81.333 -100.834 -150 -141.501c21.333 -22.667 39 -43.834 53 -63.501s25.167 -38 33.5 -55
s14.333 -34.167 18 -51.5s5.5 -35.666 5.5 -54.999c0 -36 -6.66699 -69.333 -20 -100s-31.166 -57.167 -53.499 -79.5s-48.666 -40.166 -78.999 -53.499s-63.166 -20 -98.499 -20c-32 0 -61.333 5.5 -88 16.5s-50.167 25.667 -70.5 44s-36.166 39.5 -47.499 63.5
s-17 49 -17 75c0 22 7 40.5 21 55.5s30.333 22.5 49 22.5c17.333 0 32.666 -7 45.999 -21s20 -33 20 -57c0 -14.667 -2.5 -32 -7.5 -52s-7.5 -34.667 -7.5 -44c0 -10.667 3.33301 -20.334 10 -29.001s15 -15.834 25 -21.501s21.5 -10.167 34.5 -13.5s25.5 -5 37.5 -5
c19.333 0 38.5 4.16699 57.5 12.5s35.667 19.666 50 33.999s26 30.166 35 47.499s13.5 35 13.5 53c0 44 -14.833 84.5 -44.5 121.5s-75.5 79.167 -137.5 126.5c-50.667 36.667 -93.334 71.167 -128.001 103.5s-62.5 63 -83.5 92s-36.167 57.833 -45.5 86.5
s-14 58.334 -14 89.001c0 54.667 15.667 108.167 47 160.5s80.666 98.833 147.999 139.5zM362.003 804c-88.667 -54 -132.998 -119.666 -132.998 -196.999c0 -23.333 3.66699 -46 11 -68s19.166 -44 35.499 -66s37.666 -45.167 63.999 -69.5s58.5 -50.5 96.5 -78.5l57 -46
c18 -14.667 34.667 -29.334 50 -44.001c90.667 55.333 136 120.333 136 195c0 18.667 -2.66699 37.667 -8 57s-15.5 40 -30.5 62s-35.5 45.833 -61.5 71.5s-59 54.167 -99 85.5c-24.667 18.667 -46.667 36.167 -66 52.5z" />
    <glyph glyph-name="dieresis" unicode="&#xa8;" horiz-adv-x="605" 
d="M147 943c26.667 0 49.501 -9.5 68.501 -28.5s28.5 -41.833 28.5 -68.5c0 -26 -9.5 -48.5 -28.5 -67.5s-41.833 -28.5 -68.5 -28.5c-26 0 -48.5 9.5 -67.5 28.5s-28.5 41.5 -28.5 67.5c0 26.667 9.16699 49.5 27.5 68.5s41.166 28.5 68.499 28.5zM459.001 943
c26 0 48.333 -9.5 67 -28.5s28 -41.833 28 -68.5c0 -26 -9.33301 -48.5 -28 -67.5s-41 -28.5 -67 -28.5c-26.667 0 -49.334 9.5 -68.001 28.5s-28 41.5 -28 67.5c0 26.667 9.33301 49.5 28 68.5s41.334 28.5 68.001 28.5z" />
    <glyph glyph-name="copyright" unicode="&#xa9;" horiz-adv-x="1377" 
d="M688 1233c106.667 0 209.667 -27.001 309 -81.001c99.333 -53.333 177.666 -130.666 234.999 -231.999c56 -102 84 -206.667 84 -314c0 -109.333 -27.667 -213.333 -83 -312c-54.667 -98 -132 -175.333 -232 -232c-50 -28 -100.833 -48.833 -152.5 -62.5
s-105.167 -20.5 -160.5 -20.5c-109.333 0 -213.333 27.667 -312 83c-99.333 54.667 -176.666 132 -231.999 232c-55.333 98.667 -83 202.667 -83 312c0 107.333 28 212 84 314c56 100.667 134.333 178 235 232c100 54 202.667 81 308 81zM688 1179
c-70.667 0 -139.999 -13.666 -207.999 -40.999s-128.833 -66 -182.5 -116s-97.334 -110.333 -131.001 -181s-50.5 -149 -50.5 -235c0 -73.333 14.333 -144.5 43 -213.5s68.334 -130.167 119.001 -183.5s111 -96 181 -128s146.333 -48 229 -48c74 0 145.333 14.333 214 43
s129.667 68.5 183 119.5s96 111.5 128 181.5s48 146.333 48 229c0 76.667 -14.833 149.5 -44.5 218.5s-70.167 129.667 -121.5 182s-111.833 94.166 -181.5 125.499s-144.834 47 -225.501 47zM998.001 1010l18.998 -248.003h-35
c-20.667 71.333 -54.167 123.833 -100.5 157.5s-102.166 50.5 -167.499 50.5c-86.667 0 -155.5 -29.667 -206.5 -89s-76.5 -144 -76.5 -254c0 -63.333 7 -117.833 21 -163.5s33.667 -83.5 59 -113.5s55.833 -52.333 91.5 -67s75.5 -22 119.5 -22
c115.333 0 207.333 47.667 276 143l33 -16c-82 -119.333 -194.667 -179 -338 -179c-58.667 0 -113.167 10.333 -163.5 31s-93.666 48.5 -129.999 83.5s-64.833 76.333 -85.5 124s-31 98.834 -31 153.501c0 56 11 108.833 33 158.5s52.5 93 91.5 130s85.667 66.333 140 88
s113.166 32.5 176.499 32.5c14.667 0 27 -0.166992 37 -0.5s20.333 -1.66602 31 -3.99902s23.334 -5.66602 38.001 -9.99902s33.667 -10.5 57 -18.5c12.667 -4.66699 23.667 -7 33 -7c10 0 18 2.5 24 7.5s12.667 15.833 20 32.5h34z" />
    <glyph glyph-name="ordfeminine" unicode="&#xaa;" horiz-adv-x="501" 
d="M301 876c0 32.667 -2.16699 59.1709 -6.5 79.5039s-10.5 36.166 -18.5 47.499s-17.667 19 -29 23s-24.333 6 -39 6c-56 0 -84 -26.333 -84 -79c0 -26.667 -4.83301 -46.167 -14.5 -58.5s-21.834 -18.5 -36.501 -18.5c-14 0 -25.833 5 -35.5 15s-14.5 22.667 -14.5 38
c0 16 4.16699 31.667 12.5 47s20.833 29 37.5 41s38 21.5 64 28.5s57 10.5 93 10.5c46 0 81.667 -5.16699 107 -15.5s44.333 -23.833 57 -40.5s20.667 -35.834 24 -57.501s5 -43.834 5 -66.501v-193c0 -18 0.166992 -31.5 0.5 -40.5s0.666016 -15.5 0.999023 -19.5
s1.5 -6.33301 3.5 -7s4.33301 -2.33398 7 -5.00098c4.66699 -3.33301 8.33398 -5 11.001 -5c7.33301 0 24.666 8.66699 51.999 26v-42c-22.667 -16 -40.667 -28.333 -54 -37s-24.333 -15 -33 -19s-16.167 -6.5 -22.5 -7.5s-13.833 -1.5 -22.5 -1.5
c-15.333 0 -28.666 6 -39.999 18s-19.666 33.667 -24.999 65c-74.667 -53.333 -138 -80 -190 -80c-14.667 0 -29.167 3 -43.5 9s-26.666 14 -36.999 24s-18.833 21.667 -25.5 35s-10 27 -10 41c0 24 4.16699 44.833 12.5 62.5s23.666 35.167 45.999 52.5
s53.333 35.833 93 55.5s91.167 42.5 154.5 68.5zM301 842.004c-36 -12.667 -65.8311 -25.5 -89.498 -38.5s-42.334 -26.333 -56.001 -40s-23.334 -27.5 -29.001 -41.5s-8.5 -28.333 -8.5 -43c0 -20 7.5 -37.667 22.5 -53s33.833 -23 56.5 -23c25.333 0 60 13 104 39v200z
" />
    <glyph glyph-name="guillemotleft" unicode="&#xab;" horiz-adv-x="906" 
d="M849 -5h-51l-349 417l349 416h51l-215 -416zM449 -5h-50l-342 417l342 416h50l-215 -416z" />
    <glyph glyph-name="logicalnot" unicode="&#xac;" horiz-adv-x="1022" 
d="M32 675h956v-359h-70v288h-886v71z" />
    <glyph glyph-name="macron" unicode="&#xad;" horiz-adv-x="603" 
d="M74 390h457v-133h-457v133z" />
    <glyph glyph-name="registered" unicode="&#xae;" horiz-adv-x="1377" 
d="M688 1233c106.667 0 209.667 -27.001 309 -81.001c99.333 -53.333 177.666 -130.666 234.999 -231.999c56 -102 84 -206.667 84 -314c0 -109.333 -27.667 -213.333 -83 -312c-54.667 -98 -132 -175.333 -232 -232c-50 -28 -100.833 -48.833 -152.5 -62.5
s-105.167 -20.5 -160.5 -20.5c-109.333 0 -213.333 27.667 -312 83c-99.333 54.667 -176.666 132 -231.999 232c-55.333 98.667 -83 202.667 -83 312c0 107.333 28 212 84 314c56 100.667 134.333 178 235 232c100 54 202.667 81 308 81zM688 1179
c-70.667 0 -139.999 -13.666 -207.999 -40.999s-128.833 -66 -182.5 -116s-97.334 -110.333 -131.001 -181s-50.5 -149 -50.5 -235c0 -73.333 14.333 -144.5 43 -213.5s68.334 -130.167 119.001 -183.5s111 -96 181 -128s146.333 -48 229 -48c74 0 145.333 14.333 214 43
s129.667 68.5 183 119.5s96 111.5 128 181.5s48 146.333 48 229c0 76.667 -14.833 149.5 -44.5 218.5s-70.167 129.667 -121.5 182s-111.833 94.166 -181.5 125.499s-144.834 47 -225.501 47zM342.001 991l340.999 -0.00292969c42.667 0 80.334 -5.16699 113.001 -15.5
s60 -24.333 82 -42s38.667 -38.667 50 -63s17 -50.166 17 -77.499c0 -44 -15.167 -83.167 -45.5 -117.5s-80.5 -60.166 -150.5 -77.499l186 -264c8.66699 -13.333 17 -24.833 25 -34.5s16 -17.5 24 -23.5s16.5 -10.5 25.5 -13.5s19.833 -5.16699 32.5 -6.5v-29h-164
l-260 358h-67v-273c1.33301 -10 3.83301 -18.5 7.5 -25.5s9.16699 -12.667 16.5 -17s17.5 -7.66602 30.5 -9.99902s29.5 -3.5 49.5 -3.5v-29h-323v29c20.667 0 37.167 1.33301 49.5 4s21.333 8.5 27 17.5s9.5 21.333 11.5 37s3 36.834 3 63.501v463
c0 25.333 -0.5 45.666 -1.5 60.999s-4.16699 27.5 -9.5 36.5s-13.5 14.833 -24.5 17.5s-26.167 4 -45.5 4v31zM551 622.997c91.333 0 156.166 14.5 194.499 43.5s57.5 68.167 57.5 117.5c0 23.333 -4.5 45.333 -13.5 66s-21.167 38.667 -36.5 54s-33.666 27.333 -54.999 36
s-45.333 13 -72 13c-24.667 0 -49.667 -4.66699 -75 -14v-316z" />
    <glyph glyph-name="glyph133" unicode="&#xaf;" horiz-adv-x="905" 
d="M922 980h-936v74h936v-74z" />
    <glyph glyph-name="degree" unicode="&#xb0;" horiz-adv-x="725" 
d="M358 1061c37.333 0 72.833 -7.33301 106.5 -22s62.834 -34.334 87.501 -59.001s44 -53.667 58 -87s21 -68.333 21 -105c0 -37.333 -7.33301 -72.5 -22 -105.5s-34.334 -61.833 -59.001 -86.5s-53.5 -44 -86.5 -58s-68.167 -21 -105.5 -21s-72.5 7.33301 -105.5 22
s-61.5 34 -85.5 58s-43.333 52.5 -58 85.5s-22 68.167 -22 105.5s7 72.5 21 105.5s33.333 61.833 58 86.5s53.5 44.334 86.5 59.001s68.167 22 105.5 22zM358 986c-27.333 0 -53 -5.33301 -77 -16s-45 -24.834 -63 -42.501s-32 -38.334 -42 -62.001s-15 -49.167 -15 -76.5
c0 -26.667 5 -52 15 -76s24 -44.833 42 -62.5s39 -31.834 63 -42.501s49.667 -16 77 -16s53 5.33301 77 16s44.833 25 62.5 43s31.834 38.833 42.501 62.5s16 48.834 16 75.501c0 27.333 -5.33301 52.833 -16 76.5s-24.834 44.334 -42.501 62.001s-38.5 31.834 -62.5 42.501
s-49.667 16 -77 16z" />
    <glyph glyph-name="plusminus" unicode="&#xb1;" horiz-adv-x="994" 
d="M7 94v73h441v369h-441v73h441v439h71v-439h442v-73h-442v-369h442v-73h-954z" />
    <glyph glyph-name="twosuperior" unicode="&#xb2;" horiz-adv-x="544" 
d="M509 580l-54.001 -135.002h-437v25c60.667 46.667 112.167 89.167 154.5 127.5s76.833 73.833 103.5 106.5s46.167 62.834 58.5 90.501s18.5 54.167 18.5 79.5c0 36 -12.333 66.167 -37 90.5s-55.334 36.5 -92.001 36.5c-33.333 0 -62.833 -8.66699 -88.5 -26
s-45.167 -43.666 -58.5 -78.999h-39c8.66699 58.667 31.5 104.167 68.5 136.5s85.5 48.5 145.5 48.5c31.333 0 60 -4.83301 86 -14.5s48.167 -22.167 66.5 -37.5s32.666 -32.833 42.999 -52.5s15.5 -40.167 15.5 -61.5c0 -24.667 -5.66699 -50.5 -17 -77.5
s-29.166 -56 -53.499 -87s-55.666 -64.667 -93.999 -101s-84.166 -76.5 -137.499 -120.5h163c26.667 0 48.167 1 64.5 3s29.5 5 39.5 9s17.833 9 23.5 15s11.5 14 17.5 24h40z" />
    <glyph glyph-name="threesuperior" unicode="&#xb3;" horiz-adv-x="543" 
d="M50 947c24.667 51.333 53.6689 86.9951 87.002 106.995s72 30 116 30c27.333 0 51.666 -3.66699 72.999 -11s39.5 -17.166 54.5 -29.499s26.667 -26.166 35 -41.499s12.5 -31 12.5 -47c0 -39.333 -31 -85 -93 -137c42.667 -16 74.667 -38 96 -66s32 -59.667 32 -95
c0 -30 -6.5 -58.5 -19.5 -85.5s-32 -50.5 -57 -70.5s-55.5 -36 -91.5 -48s-77.667 -18 -125 -18c-41.333 0 -73.5 5 -96.5 15s-34.5 23.333 -34.5 40c0 10 5 19.167 15 27.5s22.667 12.5 38 12.5c6.66699 0 16.667 -2.16699 30 -6.5s27.333 -9.16602 42 -14.499
s29 -10.166 43 -14.499s26.333 -6.5 37 -6.5c16.667 0 32.167 3.33301 46.5 10s27 15.167 38 25.5s19.667 22.666 26 36.999s9.5 28.833 9.5 43.5c0 25.333 -5.83301 47.5 -17.5 66.5s-26.167 34.5 -43.5 46.5s-36.333 20.833 -57 26.5s-40.667 8.5 -60 8.5h-27v24
c22 0 43 3.66699 63 11s37.167 17.333 51.5 30s25.666 27.334 33.999 44.001s12.5 34 12.5 52c0 28.667 -9.66699 52.334 -29 71.001s-45.333 28 -78 28c-50 0 -93.333 -26 -130 -78z" />
    <glyph glyph-name="acute" unicode="&#xb4;" horiz-adv-x="604" 
d="M501 1005l-262 -305h-30l92 305h200z" />
    <glyph glyph-name="mu" unicode="&#xb5;" horiz-adv-x="1044" 
d="M173 905l145.003 -0.00195312v-471c0 -87.333 5.33301 -146 16 -176c8 -23.333 22.167 -42.333 42.5 -57s42.833 -22 67.5 -22c70 0 139.333 39.333 208 118v608h147v-578c0 -34 1 -61.667 3 -83s5.33301 -37.666 10 -48.999s10.834 -19 18.501 -23s17.5 -6 29.5 -6
c17.333 0 32.166 9.5 44.499 28.5s21.166 46.167 26.499 81.5h37c-5.33301 -71.333 -23.833 -123.5 -55.5 -156.5s-71.834 -49.5 -120.501 -49.5c-39.333 0 -70.833 12.667 -94.5 38s-38.834 69 -45.501 131c-50.667 -60.667 -98 -104 -142 -130s-89 -39 -135 -39
c-28 0 -52.167 4.33301 -72.5 13s-41.833 29.334 -64.5 62.001v-41c0 -47.333 9.66699 -117.666 29 -210.999c8 -36 12 -66.333 12 -91c0 -28.667 -8.16699 -52.167 -24.5 -70.5s-35.833 -27.5 -58.5 -27.5c-22 0 -40.333 8.33301 -55 25s-22 40.334 -22 71.001
c0 30 8.33301 78.667 25 146c8 34 14.167 62.667 18.5 86s7.33301 44.166 9 62.499s2.5 35.166 2.5 50.499v70c0 11.333 -0.333008 27 -1 47v643z" />
    <glyph glyph-name="mu" unicode="&#x3bc;" horiz-adv-x="1044" 
d="M173 905l145.003 -0.00195312v-471c0 -87.333 5.33301 -146 16 -176c8 -23.333 22.167 -42.333 42.5 -57s42.833 -22 67.5 -22c70 0 139.333 39.333 208 118v608h147v-578c0 -34 1 -61.667 3 -83s5.33301 -37.666 10 -48.999s10.834 -19 18.501 -23s17.5 -6 29.5 -6
c17.333 0 32.166 9.5 44.499 28.5s21.166 46.167 26.499 81.5h37c-5.33301 -71.333 -23.833 -123.5 -55.5 -156.5s-71.834 -49.5 -120.501 -49.5c-39.333 0 -70.833 12.667 -94.5 38s-38.834 69 -45.501 131c-50.667 -60.667 -98 -104 -142 -130s-89 -39 -135 -39
c-28 0 -52.167 4.33301 -72.5 13s-41.833 29.334 -64.5 62.001v-41c0 -47.333 9.66699 -117.666 29 -210.999c8 -36 12 -66.333 12 -91c0 -28.667 -8.16699 -52.167 -24.5 -70.5s-35.833 -27.5 -58.5 -27.5c-22 0 -40.333 8.33301 -55 25s-22 40.334 -22 71.001
c0 30 8.33301 78.667 25 146c8 34 14.167 62.667 18.5 86s7.33301 44.166 9 62.499s2.5 35.166 2.5 50.499v70c0 11.333 -0.333008 27 -1 47v643z" />
    <glyph glyph-name="paragraph" unicode="&#xb6;" horiz-adv-x="820" 
d="M706 1246v-1542h-65v1542h-165v-1542h-64v923c-112.667 4 -196.667 18.333 -252 43c-56.667 26 -99.5 65.167 -128.5 117.5s-43.5 110.5 -43.5 174.5c0 54.667 9.5 102.667 28.5 144s45.833 76 80.5 104s76.5 49.167 125.5 63.5s103.167 21.5 162.5 21.5h439v-49h-118z
" />
    <glyph glyph-name="periodcentered" unicode="&#xb7;" horiz-adv-x="603" 
d="M530 586c26.667 0 48.833 -8.83301 66.5 -26.5s26.5 -39.834 26.5 -66.501c0 -25.333 -9 -47 -27 -65s-40 -27 -66 -27c-25.333 0 -47 9 -65 27s-27 39.667 -27 65c0 26.667 8.83301 48.834 26.5 66.501s39.5 26.5 65.5 26.5z" />
    <glyph glyph-name="periodcentered" unicode="&#x2219;" horiz-adv-x="603" 
d="M530 586c26.667 0 48.833 -8.83301 66.5 -26.5s26.5 -39.834 26.5 -66.501c0 -25.333 -9 -47 -27 -65s-40 -27 -66 -27c-25.333 0 -47 9 -65 27s-27 39.667 -27 65c0 26.667 8.83301 48.834 26.5 66.501s39.5 26.5 65.5 26.5z" />
    <glyph glyph-name="cedilla" unicode="&#xb8;" horiz-adv-x="603" 
d="M319 98l53 0.000976562l-43 -70c36.667 -9.33301 64 -25.333 82 -48s27 -49.667 27 -81c0 -21.333 -4.83301 -41.666 -14.5 -60.999s-22.834 -36.333 -39.501 -51s-36.667 -26.334 -60 -35.001s-48.666 -13 -75.999 -13c-10.667 0 -22.834 0.5 -36.501 1.5l-46.5 3.5v39
c8.66699 -2 16.667 -3 24 -3h18c15.333 0 29.5 2.66699 42.5 8s24.333 12.333 34 21s17.334 18.667 23.001 30s8.5 23.666 8.5 36.999c0 18 -6.66699 33.5 -20 46.5s-30.333 19.5 -51 19.5c-3.33301 0 -6.83301 -0.166992 -10.5 -0.5s-8.16699 -0.833008 -13.5 -1.5z" />
    <glyph glyph-name="onesuperior" unicode="&#xb9;" horiz-adv-x="542" 
d="M120 1005l181 75.999h32v-522c0 -24 0.833008 -42.167 2.5 -54.5s5.83398 -20.666 12.501 -24.999s15.667 -6.5 27 -6.5h47v-28h-287v28c24 0 42.5 0.333008 55.5 1s21.833 3.66699 26.5 9s7 13.666 7 24.999v381c0 23.333 -0.333008 42.333 -1 57
s-2.16699 25.834 -4.5 33.501s-5.5 12.667 -9.5 15s-9 3.5 -15 3.5c-10.667 0 -30.334 -6 -59.001 -18z" />
    <glyph glyph-name="ordmasculine" unicode="&#xba;" horiz-adv-x="561" 
d="M540 796c0 -36 -7.00488 -70.333 -21.0049 -103s-33.333 -61.167 -58 -85.5s-53.167 -43.833 -85.5 -58.5s-66.166 -22 -101.499 -22c-34 0 -66.167 6.33301 -96.5 19s-56.666 30.5 -78.999 53.5s-40.166 50.167 -53.499 81.5s-20 65 -20 101
c0 40 6.33301 76.833 19 110.5s30.667 62.5 54 86.5s50.833 42.667 82.5 56s66.834 20 105.501 20c36 0 69.667 -6.83301 101 -20.5s58.333 -32.167 81 -55.5s40.334 -50.833 53.001 -82.5s19 -65.167 19 -100.5zM417.995 736c0 34.667 -3.66504 68.998 -10.998 102.998
s-17.833 64.167 -31.5 90.5s-30.167 47.5 -49.5 63.5s-41 24 -65 24c-30.667 0 -56.834 -13 -78.501 -39s-32.5 -68 -32.5 -126c0 -34.667 3.33301 -68.667 10 -102s16.167 -63.166 28.5 -89.499s28 -47.666 47 -63.999s40.833 -24.5 65.5 -24.5
c33.333 0 61.166 13.167 83.499 39.5s33.5 67.833 33.5 124.5z" />
    <glyph glyph-name="guillemotright" unicode="&#xbb;" horiz-adv-x="906" 
d="M57 828h51l349 -417l-349 -416h-51l215 416zM457 828h50l342 -417l-342 -416h-50l215 416z" />
    <glyph glyph-name="onequarter" unicode="&#xbc;" horiz-adv-x="1359" 
d="M1328 210v-72h-96v-162h-103v162h-304v65l333 410h74v-403h96zM1143 1235l-826 -1271h-79l826 1271h79zM119 1159l181.002 75.9971h32v-523c0 -15.333 0.166992 -27.833 0.5 -37.5s1.16602 -17.167 2.49902 -22.5s3 -9.16602 5 -11.499s5.33301 -4.16602 10 -5.49902
c10.667 -5.33301 34 -8 70 -8v-28h-288v28c25.333 0 44.5 0.666992 57.5 2s21.833 4.5 26.5 9.5s7 13.5 7 25.5v378c0 24 -0.333008 43.333 -1 58s-2.33398 25.834 -5.00098 33.501s-6 12.667 -10 15s-9 3.5 -15 3.5c-10.667 0 -30.667 -6 -60 -18zM1129 209.997v279
l-230 -279h230z" />
    <glyph glyph-name="onehalf" unicode="&#xbd;" horiz-adv-x="1359" 
d="M1322 112l-55.002 -135.998h-437v26c60 46.667 111.167 89 153.5 127s76.833 73.167 103.5 105.5s46.167 62.5 58.5 90.5s18.5 55 18.5 81c0 36 -12 66.167 -36 90.5s-54.667 36.5 -92 36.5c-33.333 0 -63 -8.66699 -89 -26s-45 -43.333 -57 -78h-40
c8.66699 58 31.5 103.167 68.5 135.5s85.5 48.5 145.5 48.5c32 0 61 -4.83301 87 -14.5s48.167 -22.334 66.5 -38.001s32.5 -33.5 42.5 -53.5s15 -40 15 -60c0 -24.667 -5.66699 -50.334 -17 -77.001s-29.166 -55.5 -53.499 -86.5s-55.833 -64.667 -94.5 -101
s-84.667 -76.5 -138 -120.5h166c26.667 0 47.834 0.666992 63.501 2s28.667 4 39 8s18.333 9.16699 24 15.5s11.5 14.5 17.5 24.5h40zM1122 1235l-827 -1271h-80l828 1271h79zM118.998 1159l181.002 75.9971h32v-523c0 -15.333 0.166992 -27.833 0.5 -37.5
s1.16602 -17.167 2.49902 -22.5s3 -9.16602 5 -11.499s5.33301 -4.16602 10 -5.49902c10.667 -5.33301 34 -8 70 -8v-28h-288v28c25.333 0 44.5 0.666992 57.5 2s21.833 4.5 26.5 9.5s7 13.5 7 25.5v378c0 24 -0.333008 43.333 -1 58s-2.33398 25.834 -5.00098 33.501
s-6 12.667 -10 15s-9 3.5 -15 3.5c-10.667 0 -30.667 -6 -60 -18z" />
    <glyph glyph-name="threequarters" unicode="&#xbe;" horiz-adv-x="1358" 
d="M1328 210v-72h-96v-162h-102v162h-305v65l333 410h74v-403h96zM48 1098c24.667 50.667 53.6699 86.1602 87.0029 106.493s72 30.5 116 30.5c27.333 0 51.666 -3.66699 72.999 -11s39.5 -17.166 54.5 -29.499s26.5 -26.166 34.5 -41.499s12 -31 12 -47
c0 -40.667 -30.667 -86.334 -92 -137.001c42 -16 73.833 -38.167 95.5 -66.5s32.5 -60.166 32.5 -95.499c0 -29.333 -6.5 -57.5 -19.5 -84.5s-32 -50.667 -57 -71s-55.5 -36.333 -91.5 -48s-77.667 -17.5 -125 -17.5c-42.667 0 -75.167 5 -97.5 15s-33.5 23.333 -33.5 40
c0 10 4.83301 19.167 14.5 27.5s22.5 12.5 38.5 12.5c6.66699 0 16.667 -2.16699 30 -6.5s27.333 -9.16602 42 -14.499s29 -10.166 43 -14.499s26.333 -6.5 37 -6.5c16.667 0 32.167 3.16699 46.5 9.5s27 14.833 38 25.5s19.667 23 26 37s9.5 28.667 9.5 44
c0 42 -16.333 77.167 -49 105.5s-84.667 42.5 -156 42.5v23c22 0 43 3.83301 63 11.5s37.167 17.834 51.5 30.501s25.666 27.334 33.999 44.001s12.5 34 12.5 52c0 28.667 -9.83301 52.334 -29.5 71.001s-45.834 28 -78.501 28c-50 0 -93 -26 -129 -78zM1130 1234.99
l-824 -1271h-79l826 1271h77zM1130 209.993v279l-231 -279h231z" />
    <glyph glyph-name="questiondown" unicode="&#xbf;" horiz-adv-x="804" 
d="M389 648l36.0029 -0.00292969c-2.66699 -70.667 -10.334 -128.667 -23.001 -174c-11.333 -41.333 -41 -113.666 -89 -216.999c-48.667 -102 -73 -187.333 -73 -256c0 -78 19.667 -138.167 59 -180.5s89.333 -63.5 150 -63.5c25.333 0 48.166 3.33301 68.499 10
s37.666 15.5 51.999 26.5s25.333 23.333 33 37s11.5 27.834 11.5 42.501c0 8 -3 18.833 -9 32.5s-12.5 27.667 -19.5 42s-13.333 28.333 -19 42s-8.5 24.834 -8.5 33.501c0 20.667 7 37.834 21 51.501s31.333 20.5 52 20.5c24.667 0 47 -12.333 67 -37
s30 -57.334 30 -98.001c0 -33.333 -7.33301 -65.333 -22 -96s-36 -58 -64 -82s-62 -43 -102 -57s-84.667 -21 -134 -21c-50 0 -95 7.5 -135 22.5s-74.333 35 -103 60s-50.667 54.5 -66 88.5s-23 70.333 -23 109c0 30 3 58 9 84s15.5 51.833 28.5 77.5s29.333 52.167 49 79.5
s43.5 57 71.5 89c32 36.667 57.667 69.167 77 97.5s34 52.5 44 72.5c18 40 28.333 94.667 31 164zM400.003 956.997c27.333 0 50.333 -9.5 69 -28.5s28 -42.167 28 -69.5s-9.33301 -50.5 -28 -69.5s-41.667 -28.5 -69 -28.5s-50.666 9.5 -69.999 28.5s-29 42.167 -29 69.5
s9.66699 50.5 29 69.5s42.666 28.5 69.999 28.5z" />
    <glyph glyph-name="Agrave" unicode="&#xc0;" horiz-adv-x="1308" 
d="M828 401h-463.995l-82 -188c-19.333 -46.667 -29 -81.667 -29 -105c0 -9.33301 1.5 -18 4.5 -26s9.66699 -15.333 20 -22s24.5 -12.334 42.5 -17.001s42 -8 72 -10v-33h-378v33c30 4.66699 54.167 11.334 72.5 20.001s34.166 20.667 47.499 36s25.5 35.333 36.5 60
l40.5 91l422 986h30l418 -996c16.667 -41.333 32.167 -74.666 46.5 -99.999s29.166 -45 44.499 -59s32.166 -23.667 50.499 -29s40.166 -8.33301 65.499 -9v-33h-474v33c47.333 2 79.666 9.83301 96.999 23.5s26 30.167 26 49.5c-1.33301 25.333 -13.333 66.666 -36 123.999
zM803.005 467l-203 485l-208 -485h411zM330.005 1597h197l93 -305h-30z" />
    <glyph glyph-name="Aacute" unicode="&#xc1;" horiz-adv-x="1308" 
d="M828 401h-463.995l-82 -188c-19.333 -46.667 -29 -81.667 -29 -105c0 -9.33301 1.5 -18 4.5 -26s9.66699 -15.333 20 -22s24.5 -12.334 42.5 -17.001s42 -8 72 -10v-33h-378v33c30 4.66699 54.167 11.334 72.5 20.001s34.166 20.667 47.499 36s25.5 35.333 36.5 60
l40.5 91l422 986h30l418 -996c16.667 -41.333 32.167 -74.666 46.5 -99.999s29.166 -45 44.499 -59s32.166 -23.667 50.499 -29s40.166 -8.33301 65.499 -9v-33h-474v33c47.333 2 79.666 9.83301 96.999 23.5s26 30.167 26 49.5c-1.33301 25.333 -13.333 66.666 -36 123.999
zM803.005 467l-203 485l-208 -485h411zM961.005 1597l-262 -305h-30l92 305h200z" />
    <glyph glyph-name="Acircumflex" unicode="&#xc2;" horiz-adv-x="1308" 
d="M828 401h-463.995l-82 -188c-19.333 -46.667 -29 -81.667 -29 -105c0 -9.33301 1.5 -18 4.5 -26s9.66699 -15.333 20 -22s24.5 -12.334 42.5 -17.001s42 -8 72 -10v-33h-378v33c30 4.66699 54.167 11.334 72.5 20.001s34.166 20.667 47.499 36s25.5 35.333 36.5 60
l40.5 91l422 986h30l418 -996c16.667 -41.333 32.167 -74.666 46.5 -99.999s29.166 -45 44.499 -59s32.166 -23.667 50.499 -29s40.166 -8.33301 65.499 -9v-33h-474v33c47.333 2 79.666 9.83301 96.999 23.5s26 30.167 26 49.5c-1.33301 25.333 -13.333 66.666 -36 123.999
zM803.005 467l-203 485l-208 -485h411zM601.005 1457h162l168 -293h-27l-241 189l-204 -189h-26z" />
    <glyph glyph-name="Atilde" unicode="&#xc3;" horiz-adv-x="1308" 
d="M828 401h-463.995l-82 -188c-19.333 -46.667 -29 -81.667 -29 -105c0 -9.33301 1.5 -18 4.5 -26s9.66699 -15.333 20 -22s24.5 -12.334 42.5 -17.001s42 -8 72 -10v-33h-378v33c30 4.66699 54.167 11.334 72.5 20.001s34.166 20.667 47.499 36s25.5 35.333 36.5 60
l40.5 91l422 986h30l418 -996c16.667 -41.333 32.167 -74.666 46.5 -99.999s29.166 -45 44.499 -59s32.166 -23.667 50.499 -29s40.166 -8.33301 65.499 -9v-33h-474v33c47.333 2 79.666 9.83301 96.999 23.5s26 30.167 26 49.5c-1.33301 25.333 -13.333 66.666 -36 123.999
zM803.005 467l-203 485l-208 -485h411zM455.005 1294l-27.9961 0.000976562c2.66699 80.667 19.667 139.167 51 175.5s69.666 54.5 114.999 54.5c13.333 0 26.166 -1.16699 38.499 -3.5s25.166 -6.33301 38.499 -12s28.166 -13.334 44.499 -23.001s35.5 -22.167 57.5 -37.5
c46 -32 82 -48 108 -48c8.66699 0 17.334 1.5 26.001 4.5s16.5 9.16699 23.5 18.5s13.5 22 19.5 38s11 37 15 63h28c0 -38.667 -4.33301 -72.667 -13 -102s-20.834 -53.833 -36.501 -73.5s-33.5 -34.334 -53.5 -44.001s-41.667 -14.5 -65 -14.5
c-46.667 0 -104.667 23.667 -174 71c-19.333 13.333 -34.666 23.5 -45.999 30.5s-21 12.333 -29 16s-14.667 5.83398 -20 6.50098s-11.333 1 -18 1c-10.667 0 -19.834 -0.833008 -27.501 -2.5s-14.5 -6.5 -20.5 -14.5s-11.667 -20 -17 -36s-11 -38.667 -17 -68z" />
    <glyph glyph-name="Adieresis" unicode="&#xc4;" horiz-adv-x="1308" 
d="M828 401h-463.995l-82 -188c-19.333 -46.667 -29 -81.667 -29 -105c0 -9.33301 1.5 -18 4.5 -26s9.66699 -15.333 20 -22s24.5 -12.334 42.5 -17.001s42 -8 72 -10v-33h-378v33c30 4.66699 54.167 11.334 72.5 20.001s34.166 20.667 47.499 36s25.5 35.333 36.5 60
l40.5 91l422 986h30l418 -996c16.667 -41.333 32.167 -74.666 46.5 -99.999s29.166 -45 44.499 -59s32.166 -23.667 50.499 -29s40.166 -8.33301 65.499 -9v-33h-474v33c47.333 2 79.666 9.83301 96.999 23.5s26 30.167 26 49.5c-1.33301 25.333 -13.333 66.666 -36 123.999
zM803.005 467l-203 485l-208 -485h411zM500.005 1472c26.667 0 49.501 -9.5 68.501 -28.5s28.5 -41.833 28.5 -68.5c0 -26 -9.5 -48.5 -28.5 -67.5s-41.833 -28.5 -68.5 -28.5c-26 0 -48.5 9.5 -67.5 28.5s-28.5 41.5 -28.5 67.5c0 26.667 9.16699 49.5 27.5 68.5
s41.166 28.5 68.499 28.5zM812.006 1472c26 0 48.333 -9.5 67 -28.5s28 -41.833 28 -68.5c0 -26 -9.33301 -48.5 -28 -67.5s-41 -28.5 -67 -28.5c-26.667 0 -49.334 9.5 -68.001 28.5s-28 41.5 -28 67.5c0 26.667 9.33301 49.5 28 68.5s41.334 28.5 68.001 28.5z" />
    <glyph glyph-name="Aring" unicode="&#xc5;" horiz-adv-x="1308" 
d="M646 1505c23.333 0 45.3408 -4.50293 66.0078 -13.5029s38.667 -21.167 54 -36.5s27.333 -33.333 36 -54s13 -42.334 13 -65.001c0 -40.667 -12.333 -76.167 -37 -106.5s-55.334 -50.166 -92.001 -59.499l395 -940c16.667 -41.333 32.167 -74.666 46.5 -99.999
s29.166 -45 44.499 -59s32.166 -23.667 50.499 -29s40.166 -8.33301 65.499 -9v-33h-474v33c47.333 2 79.666 9.83301 96.999 23.5s26 30.167 26 49.5c-1.33301 12.667 -4.5 29.334 -9.5 50.001s-13.833 45.334 -26.5 74.001l-73 171h-464l-82 -188
c-19.333 -46.667 -29 -81.667 -29 -105c0 -9.33301 1.5 -18 4.5 -26s9.66699 -15.333 20 -22s24.5 -12.334 42.5 -17.001s42 -8 72 -10v-33h-378v33c30 4.66699 54.167 11.334 72.5 20.001s34.166 20.667 47.499 36s25.5 35.333 36.5 60l40.5 91l397 930
c-38 8.66699 -69.333 28.334 -94 59.001s-37 66.334 -37 107.001c0 23.333 4.5 45.166 13.5 65.499s21.167 38.166 36.5 53.499s33.166 27.5 53.499 36.5s42.166 13.5 65.499 13.5zM803.008 466.997l-203 485l-208 -485h411zM646.008 1443
c-28.667 0 -53.833 -10.166 -75.5 -30.499s-32.5 -45.833 -32.5 -76.5c0 -30 10.5 -55.5 31.5 -76.5s46.5 -31.5 76.5 -31.5s55.667 10.667 77 32s32 46.666 32 75.999c0 30 -10.667 55.333 -32 76s-47 31 -77 31z" />
    <glyph glyph-name="AE" unicode="&#xc6;" horiz-adv-x="1610" 
d="M908 1134l-0.000976562 -474.002h227c34.667 0 63.667 2.83301 87 8.5s42.5 15.334 57.5 29.001s26.167 31.667 33.5 54s12.333 49.833 15 82.5h32v-417h-32c-4.66699 38.667 -10.167 69.667 -16.5 93s-16.333 41.333 -30 54s-32 21 -55 25s-53.5 6 -91.5 6h-227v-397
c0 -29.333 0.333008 -52.666 1 -69.999s4 -30.666 10 -39.999s16 -15.333 30 -18s34.333 -4 61 -4h161c32.667 0 60.834 1.16699 84.501 3.5s45 6.33301 64 12s36.333 13.5 52 23.5s31.834 23 48.501 39c21.333 20 41 43 59 69s33.667 55.333 47 88h34l-95 -301h-901v33h46
c48.667 0 84.334 14.667 107.001 44c14 17.333 21 62 21 134v254h-350l-109 -206c-41.333 -78.667 -62 -129.667 -62 -153c0 -9.33301 1.66699 -17.833 5 -25.5s10.166 -14.667 20.499 -21s24.5 -11.833 42.5 -16.5s41.333 -8 70 -10v-33h-376v33
c19.333 0.666992 36.666 3.66699 51.999 9s30.666 15.666 45.999 30.999s31.833 36.5 49.5 63.5s38.5 62.5 62.5 106.5l364 681c46 83.333 69 140 69 170c0 21.333 -10.667 38 -32 50s-61.666 19.667 -120.999 23v33h982v-264h-16c-5.33301 38 -12 69.5 -20 94.5
s-20.333 45.167 -37 60.5s-39 26.333 -67 33s-64.667 10 -110 10h-293zM737.999 1134l-315 -605h315v605z" />
    <glyph glyph-name="Ccedilla" unicode="&#xc7;" horiz-adv-x="1207" 
d="M1090 1233l28.001 -407.999h-28c-36.667 122.667 -88.667 210.834 -156 264.501s-148.666 80.5 -243.999 80.5c-61.333 0 -118 -11.667 -170 -35s-96.667 -59.333 -134 -108s-66.5 -109.5 -87.5 -182.5s-31.5 -159.167 -31.5 -258.5c0 -80 9.83301 -152.5 29.5 -217.5
s48.667 -120.667 87 -167s85.166 -82 140.499 -107s119 -37.5 191 -37.5c76 0 144.667 16.667 206 50c59.333 30.667 125 96.667 197 198l28 -17c-60.667 -106.667 -130.834 -184.834 -210.501 -234.501s-175.167 -74.5 -286.5 -74.5c-85.333 0 -163.5 15 -234.5 45
s-132.333 72 -184 126s-92 118.167 -121 192.5s-43.5 156.166 -43.5 245.499c0 120 27 230 81 330c52.667 100 126 177.333 220 232c95.333 55.333 198.333 83 309 83c87.333 0 172.666 -21 255.999 -63c24.667 -13.333 42.334 -20 53.001 -20
c19.333 0 35.333 7.83301 48 23.5s21.667 35.5 27 59.5h30zM475.001 -45.999l53 0.000976562l-43 -70c36.667 -9.33301 64 -25.333 82 -48s27 -49.667 27 -81c0 -21.333 -4.83301 -41.666 -14.5 -60.999s-22.834 -36.333 -39.501 -51s-36.667 -26.334 -60 -35.001
s-48.666 -13 -75.999 -13c-10.667 0 -22.834 0.5 -36.501 1.5l-46.5 3.5v39c8.66699 -2 16.667 -3 24 -3h18c15.333 0 29.5 2.66699 42.5 8s24.333 12.333 34 21s17.334 18.667 23.001 30s8.5 23.666 8.5 36.999c0 18 -6.66699 33.5 -20 46.5s-30.333 19.5 -51 19.5
c-3.33301 0 -6.83301 -0.166992 -10.5 -0.5s-8.16699 -0.833008 -13.5 -1.5z" />
    <glyph glyph-name="Egrave" unicode="&#xc8;" horiz-adv-x="1106" 
d="M379 1134l0.000976562 -474.004h263c38.667 0 69.834 3.5 93.501 10.5s42.334 17.5 56.001 31.5s23.167 32 28.5 54s8.66602 48 9.99902 78h33v-417h-33c-4 34.667 -8.83301 63.334 -14.5 86.001s-15 40.834 -28 54.501s-30.833 23.334 -53.5 29.001
s-53.334 8.5 -92.001 8.5h-263v-396c0 -30 0.5 -53.667 1.5 -71s4.5 -30.666 10.5 -39.999s15.667 -15.333 29 -18s32.666 -4 57.999 -4h203c34.667 0 63.834 0.833008 87.501 2.5s44 5.16699 61 10.5s32.167 12.666 45.5 21.999s27.333 21 42 35c35.333 34 73 89 113 165
h35l-104 -301h-924v33h42c11.333 0 23.166 1.33301 35.499 4s24 6.33398 35 11.001s21 11 30 19s15.167 17.333 18.5 28c7.33301 19.333 11 58 11 116v779c0 76.667 -7.66699 123.667 -23 141c-21.333 24 -57 36 -107 36h-42v33h924v-263h-21
c-8.66699 43.333 -18.167 78 -28.5 104s-23.833 46 -40.5 60s-38 23 -64 27s-59 6 -99 6h-329zM311.001 1588h197l93 -305h-30z" />
    <glyph glyph-name="Eacute" unicode="&#xc9;" horiz-adv-x="1106" 
d="M379 1134l0.000976562 -474.004h263c38.667 0 69.834 3.5 93.501 10.5s42.334 17.5 56.001 31.5s23.167 32 28.5 54s8.66602 48 9.99902 78h33v-417h-33c-4 34.667 -8.83301 63.334 -14.5 86.001s-15 40.834 -28 54.501s-30.833 23.334 -53.5 29.001
s-53.334 8.5 -92.001 8.5h-263v-396c0 -30 0.5 -53.667 1.5 -71s4.5 -30.666 10.5 -39.999s15.667 -15.333 29 -18s32.666 -4 57.999 -4h203c34.667 0 63.834 0.833008 87.501 2.5s44 5.16699 61 10.5s32.167 12.666 45.5 21.999s27.333 21 42 35c35.333 34 73 89 113 165
h35l-104 -301h-924v33h42c11.333 0 23.166 1.33301 35.499 4s24 6.33398 35 11.001s21 11 30 19s15.167 17.333 18.5 28c7.33301 19.333 11 58 11 116v779c0 76.667 -7.66699 123.667 -23 141c-21.333 24 -57 36 -107 36h-42v33h924v-263h-21
c-8.66699 43.333 -18.167 78 -28.5 104s-23.833 46 -40.5 60s-38 23 -64 27s-59 6 -99 6h-329zM792.001 1598l-262 -305h-30l92 305h200z" />
    <glyph glyph-name="Ecircumflex" unicode="&#xca;" horiz-adv-x="1106" 
d="M379 1134l0.000976562 -474.004h263c38.667 0 69.834 3.5 93.501 10.5s42.334 17.5 56.001 31.5s23.167 32 28.5 54s8.66602 48 9.99902 78h33v-417h-33c-4 34.667 -8.83301 63.334 -14.5 86.001s-15 40.834 -28 54.501s-30.833 23.334 -53.5 29.001
s-53.334 8.5 -92.001 8.5h-263v-396c0 -30 0.5 -53.667 1.5 -71s4.5 -30.666 10.5 -39.999s15.667 -15.333 29 -18s32.666 -4 57.999 -4h203c34.667 0 63.834 0.833008 87.501 2.5s44 5.16699 61 10.5s32.167 12.666 45.5 21.999s27.333 21 42 35c35.333 34 73 89 113 165
h35l-104 -301h-924v33h42c11.333 0 23.166 1.33301 35.499 4s24 6.33398 35 11.001s21 11 30 19s15.167 17.333 18.5 28c7.33301 19.333 11 58 11 116v779c0 76.667 -7.66699 123.667 -23 141c-21.333 24 -57 36 -107 36h-42v33h924v-263h-21
c-8.66699 43.333 -18.167 78 -28.5 104s-23.833 46 -40.5 60s-38 23 -64 27s-59 6 -99 6h-329zM484.001 1597h162l168 -293h-27l-241 189l-204 -189h-26z" />
    <glyph glyph-name="Edieresis" unicode="&#xcb;" horiz-adv-x="1106" 
d="M379 1134l0.000976562 -474.004h263c38.667 0 69.834 3.5 93.501 10.5s42.334 17.5 56.001 31.5s23.167 32 28.5 54s8.66602 48 9.99902 78h33v-417h-33c-4 34.667 -8.83301 63.334 -14.5 86.001s-15 40.834 -28 54.501s-30.833 23.334 -53.5 29.001
s-53.334 8.5 -92.001 8.5h-263v-396c0 -30 0.5 -53.667 1.5 -71s4.5 -30.666 10.5 -39.999s15.667 -15.333 29 -18s32.666 -4 57.999 -4h203c34.667 0 63.834 0.833008 87.501 2.5s44 5.16699 61 10.5s32.167 12.666 45.5 21.999s27.333 21 42 35c35.333 34 73 89 113 165
h35l-104 -301h-924v33h42c11.333 0 23.166 1.33301 35.499 4s24 6.33398 35 11.001s21 11 30 19s15.167 17.333 18.5 28c7.33301 19.333 11 58 11 116v779c0 76.667 -7.66699 123.667 -23 141c-21.333 24 -57 36 -107 36h-42v33h924v-263h-21
c-8.66699 43.333 -18.167 78 -28.5 104s-23.833 46 -40.5 60s-38 23 -64 27s-59 6 -99 6h-329zM461.001 1503c26.667 0 49.501 -9.5 68.501 -28.5s28.5 -41.833 28.5 -68.5c0 -26 -9.5 -48.5 -28.5 -67.5s-41.833 -28.5 -68.5 -28.5c-26 0 -48.5 9.5 -67.5 28.5
s-28.5 41.5 -28.5 67.5c0 26.667 9.16699 49.5 27.5 68.5s41.166 28.5 68.499 28.5zM773.002 1503c26 0 48.333 -9.5 67 -28.5s28 -41.833 28 -68.5c0 -26 -9.33301 -48.5 -28 -67.5s-41 -28.5 -67 -28.5c-26.667 0 -49.334 9.5 -68.001 28.5s-28 41.5 -28 67.5
c0 26.667 9.33301 49.5 28 68.5s41.334 28.5 68.001 28.5z" />
    <glyph glyph-name="Igrave" unicode="&#xcc;" horiz-adv-x="604" 
d="M558 33v-32.999h-513v33h42c21.333 0 40.166 1.5 56.499 4.5s29.666 10.5 39.999 22.5s18.5 30 24.5 54s9 57 9 99v774c0 27.333 -0.666992 50 -2 68s-3.66602 32.833 -6.99902 44.5s-8 20.834 -14 27.501s-14.333 13 -25 19c-26.667 14 -54 21 -82 21h-42v33h513v-33
h-42c-20.667 0 -39.167 -1.83301 -55.5 -5.5s-29.833 -11.334 -40.5 -23.001s-18.834 -29.667 -24.501 -54s-8.5 -56.833 -8.5 -97.5v-774c0 -28.667 0.5 -51.834 1.5 -69.501s3.16699 -32.167 6.5 -43.5s8.33301 -20.333 15 -27s15.334 -13 26.001 -19
c24.667 -14 51.334 -21 80.001 -21h42zM90 1597h197l93 -305h-30z" />
    <glyph glyph-name="Iacute" unicode="&#xcd;" horiz-adv-x="604" 
d="M558 33v-32.999h-513v33h42c21.333 0 40.166 1.5 56.499 4.5s29.666 10.5 39.999 22.5s18.5 30 24.5 54s9 57 9 99v774c0 27.333 -0.666992 50 -2 68s-3.66602 32.833 -6.99902 44.5s-8 20.834 -14 27.501s-14.333 13 -25 19c-26.667 14 -54 21 -82 21h-42v33h513v-33
h-42c-20.667 0 -39.167 -1.83301 -55.5 -5.5s-29.833 -11.334 -40.5 -23.001s-18.834 -29.667 -24.501 -54s-8.5 -56.833 -8.5 -97.5v-774c0 -28.667 0.5 -51.834 1.5 -69.501s3.16699 -32.167 6.5 -43.5s8.33301 -20.333 15 -27s15.334 -13 26.001 -19
c24.667 -14 51.334 -21 80.001 -21h42zM553 1597l-262 -305h-30l92 305h200z" />
    <glyph glyph-name="Icircumflex" unicode="&#xce;" horiz-adv-x="604" 
d="M558 33v-32.999h-513v33h42c21.333 0 40.166 1.5 56.499 4.5s29.666 10.5 39.999 22.5s18.5 30 24.5 54s9 57 9 99v774c0 27.333 -0.666992 50 -2 68s-3.66602 32.833 -6.99902 44.5s-8 20.834 -14 27.501s-14.333 13 -25 19c-26.667 14 -54 21 -82 21h-42v33h513v-33
h-42c-20.667 0 -39.167 -1.83301 -55.5 -5.5s-29.833 -11.334 -40.5 -23.001s-18.834 -29.667 -24.501 -54s-8.5 -56.833 -8.5 -97.5v-774c0 -28.667 0.5 -51.834 1.5 -69.501s3.16699 -32.167 6.5 -43.5s8.33301 -20.333 15 -27s15.334 -13 26.001 -19
c24.667 -14 51.334 -21 80.001 -21h42zM257 1597h162l168 -293h-27l-241 189l-204 -189h-26z" />
    <glyph glyph-name="Idieresis" unicode="&#xcf;" horiz-adv-x="604" 
d="M558 33v-32.999h-513v33h42c21.333 0 40.166 1.5 56.499 4.5s29.666 10.5 39.999 22.5s18.5 30 24.5 54s9 57 9 99v774c0 27.333 -0.666992 50 -2 68s-3.66602 32.833 -6.99902 44.5s-8 20.834 -14 27.501s-14.333 13 -25 19c-26.667 14 -54 21 -82 21h-42v33h513v-33
h-42c-20.667 0 -39.167 -1.83301 -55.5 -5.5s-29.833 -11.334 -40.5 -23.001s-18.834 -29.667 -24.501 -54s-8.5 -56.833 -8.5 -97.5v-774c0 -28.667 0.5 -51.834 1.5 -69.501s3.16699 -32.167 6.5 -43.5s8.33301 -20.333 15 -27s15.334 -13 26.001 -19
c24.667 -14 51.334 -21 80.001 -21h42zM185 1543c26.667 0 49.501 -9.5 68.501 -28.5s28.5 -41.833 28.5 -68.5c0 -26 -9.5 -48.5 -28.5 -67.5s-41.833 -28.5 -68.5 -28.5c-26 0 -48.5 9.5 -67.5 28.5s-28.5 41.5 -28.5 67.5c0 26.667 9.16699 49.5 27.5 68.5
s41.166 28.5 68.499 28.5zM497.001 1543c26 0 48.333 -9.5 67 -28.5s28 -41.833 28 -68.5c0 -26 -9.33301 -48.5 -28 -67.5s-41 -28.5 -67 -28.5c-26.667 0 -49.334 9.5 -68.001 28.5s-28 41.5 -28 67.5c0 26.667 9.33301 49.5 28 68.5s41.334 28.5 68.001 28.5z" />
    <glyph glyph-name="Eth" unicode="&#xd0;" horiz-adv-x="1309" 
d="M31 0l0.00195312 33h46c49.333 0 85.333 16.333 108 49c12.667 19.333 19 63 19 131v386h-173v66h173v322c0 74 -8.33301 120.667 -25 140c-22.667 26.667 -56.667 40 -102 40h-46v33h488c184 0 322 -21.667 414 -65c89.333 -42.667 162.333 -110 219 -202
c58 -94 87 -202.667 87 -326c0 -82.667 -13.167 -160.667 -39.5 -234s-66.833 -137.833 -121.5 -193.5s-124.334 -99.5 -209.001 -131.5s-185.334 -48 -302.001 -48h-536zM374.002 88c38 -8.66699 72.668 -15 104.001 -19s59.666 -6 84.999 -6c68 0 131 12.667 189 38
s108.167 61 150.5 107s75.5 102.333 99.5 169s36 140.667 36 222c0 82.667 -12 157 -36 223s-57.333 122.167 -100 168.5s-93.5 81.833 -152.5 106.5s-123.5 37 -193.5 37c-26 0 -54.167 -2.16699 -84.5 -6.5s-62.833 -10.5 -97.5 -18.5v-444h349v-66h-349v-511z" />
    <glyph glyph-name="Ntilde" unicode="&#xd1;" horiz-adv-x="1308" 
d="M-24 1205l324.998 -0.000976562l734 -901v692c0 40.667 -3 72.834 -9 96.501s-14.5 41.167 -25.5 52.5s-24.333 18.666 -40 21.999s-33.5 5 -53.5 5h-43v33h419v-33h-44c-20.667 0 -39 -1.83301 -55 -5.5s-29.333 -11.667 -40 -24s-18.5 -29.833 -23.5 -52.5
s-7.5 -54 -7.5 -94v-1011h-32l-791 966v-739c0 -41.333 2.83301 -73.666 8.5 -96.999s13.834 -40.666 24.501 -51.999s24 -18.333 40 -21s34 -4 54 -4h42v-33h-417v33h42c21.333 0 39.833 1.66699 55.5 5s29 11 40 23s19.167 29.5 24.5 52.5s8 54.167 8 93.5v834
c-17.333 21.333 -32 38.166 -44 50.499s-23.167 22.5 -33.5 30.5s-21.666 14.667 -33.999 20s-27.833 11 -46.5 17c-18 5.33301 -44 8 -78 8v33zM387.998 1367l-27.9961 0.000976562c2.66699 80.667 19.667 139.167 51 175.5s69.666 54.5 114.999 54.5
c13.333 0 26.166 -1.16699 38.499 -3.5s25.166 -6.33301 38.499 -12s28.166 -13.334 44.499 -23.001s35.5 -22.167 57.5 -37.5c46 -32 82 -48 108 -48c8.66699 0 17.334 1.5 26.001 4.5s16.5 9.16699 23.5 18.5s13.5 22 19.5 38s11 37 15 63h28
c0 -38.667 -4.33301 -72.667 -13 -102s-20.834 -53.833 -36.501 -73.5s-33.5 -34.334 -53.5 -44.001s-41.667 -14.5 -65 -14.5c-46.667 0 -104.667 23.667 -174 71c-19.333 13.333 -34.666 23.5 -45.999 30.5s-21 12.333 -29 16s-14.667 5.83398 -20 6.50098
s-11.333 1 -18 1c-10.667 0 -19.834 -0.833008 -27.501 -2.5s-14.5 -6.5 -20.5 -14.5s-11.667 -20 -17 -36s-11 -38.667 -17 -68z" />
    <glyph glyph-name="Ograve" unicode="&#xd2;" horiz-adv-x="1309" 
d="M629 1227c76.667 0 149.831 -15.8359 219.498 -47.5029s130.834 -75.167 183.501 -130.5s94.667 -120.666 126 -195.999s47 -157 47 -245c0 -90.667 -15.667 -174.667 -47 -252s-73.666 -144.5 -126.999 -201.5s-115.833 -101.5 -187.5 -133.5s-147.834 -48 -228.501 -48
c-82 0 -158.667 15.333 -230 46s-133.166 74 -185.499 130s-93.666 122.667 -123.999 200s-45.5 162.666 -45.5 255.999c0 86.667 15.167 167.834 45.5 243.501s72.166 141.334 125.499 197.001s116.5 99.834 189.5 132.501s152.5 49 238.5 49zM611.997 1162
c-60.667 0 -114.5 -13.002 -161.5 -39.002s-86.667 -62.833 -119 -110.5s-56.833 -105.667 -73.5 -174s-25 -145.166 -25 -230.499c0 -84.667 8.16699 -162 24.5 -232s40.5 -130.167 72.5 -180.5s71.833 -89.5 119.5 -117.5s102.167 -42 163.5 -42
c56 0 107.5 10.667 154.5 32s88 54.166 123 98.499s62.5 101 82.5 170s30 151.5 30 247.5c0 90.667 -8.16699 171.834 -24.5 243.501s-41 132.334 -74 182.001s-74 87.5 -123 113.5s-105.5 39 -169.5 39zM328.997 1597h197l93 -305h-30z" />
    <glyph glyph-name="Oacute" unicode="&#xd3;" horiz-adv-x="1309" 
d="M663 1233c76.667 0 149.831 -15.8359 219.498 -47.5029s130.834 -75.167 183.501 -130.5s94.667 -120.666 126 -195.999s47 -157 47 -245c0 -90.667 -15.667 -174.667 -47 -252s-73.666 -144.5 -126.999 -201.5s-115.833 -101.5 -187.5 -133.5s-147.834 -48 -228.501 -48
c-82 0 -158.667 15.333 -230 46s-133.166 74 -185.499 130s-93.666 122.667 -123.999 200s-45.5 162.666 -45.5 255.999c0 86.667 15.167 167.834 45.5 243.501s72.166 141.334 125.499 197.001s116.5 99.834 189.5 132.501s152.5 49 238.5 49zM645.997 1168
c-60.667 0 -114.5 -13.002 -161.5 -39.002s-86.667 -62.833 -119 -110.5s-56.833 -105.667 -73.5 -174s-25 -145.166 -25 -230.499c0 -84.667 8.16699 -162 24.5 -232s40.5 -130.167 72.5 -180.5s71.833 -89.5 119.5 -117.5s102.167 -42 163.5 -42
c56 0 107.5 10.667 154.5 32s88 54.166 123 98.499s62.5 101 82.5 170s30 151.5 30 247.5c0 90.667 -8.16699 171.834 -24.5 243.501s-41 132.334 -74 182.001s-74 87.5 -123 113.5s-105.5 39 -169.5 39zM844.997 1597l-262 -305h-30l92 305h200z" />
    <glyph glyph-name="Ocircumflex" unicode="&#xd4;" horiz-adv-x="1309" 
d="M663 1233c76.667 0 149.831 -15.8359 219.498 -47.5029s130.834 -75.167 183.501 -130.5s94.667 -120.666 126 -195.999s47 -157 47 -245c0 -90.667 -15.667 -174.667 -47 -252s-73.666 -144.5 -126.999 -201.5s-115.833 -101.5 -187.5 -133.5s-147.834 -48 -228.501 -48
c-82 0 -158.667 15.333 -230 46s-133.166 74 -185.499 130s-93.666 122.667 -123.999 200s-45.5 162.666 -45.5 255.999c0 86.667 15.167 167.834 45.5 243.501s72.166 141.334 125.499 197.001s116.5 99.834 189.5 132.501s152.5 49 238.5 49zM645.997 1168
c-60.667 0 -114.5 -13.002 -161.5 -39.002s-86.667 -62.833 -119 -110.5s-56.833 -105.667 -73.5 -174s-25 -145.166 -25 -230.499c0 -84.667 8.16699 -162 24.5 -232s40.5 -130.167 72.5 -180.5s71.833 -89.5 119.5 -117.5s102.167 -42 163.5 -42
c56 0 107.5 10.667 154.5 32s88 54.166 123 98.499s62.5 101 82.5 170s30 151.5 30 247.5c0 90.667 -8.16699 171.834 -24.5 243.501s-41 132.334 -74 182.001s-74 87.5 -123 113.5s-105.5 39 -169.5 39zM601.997 1597h162l168 -293h-27l-241 189l-204 -189h-26z" />
    <glyph glyph-name="Otilde" unicode="&#xd5;" horiz-adv-x="1309" 
d="M688 1262c76.667 0 149.831 -15.8359 219.498 -47.5029s130.834 -75.167 183.501 -130.5s94.667 -120.666 126 -195.999s47 -157 47 -245c0 -90.667 -15.667 -174.667 -47 -252s-73.666 -144.5 -126.999 -201.5s-115.833 -101.5 -187.5 -133.5s-147.834 -48 -228.501 -48
c-82 0 -158.667 15.333 -230 46s-133.166 74 -185.499 130s-93.666 122.667 -123.999 200s-45.5 162.666 -45.5 255.999c0 86.667 15.167 167.834 45.5 243.501s72.166 141.334 125.499 197.001s116.5 99.834 189.5 132.501s152.5 49 238.5 49zM670.997 1197
c-60.667 0 -114.5 -13.002 -161.5 -39.002s-86.667 -62.833 -119 -110.5s-56.833 -105.667 -73.5 -174s-25 -145.166 -25 -230.499c0 -84.667 8.16699 -162 24.5 -232s40.5 -130.167 72.5 -180.5s71.833 -89.5 119.5 -117.5s102.167 -42 163.5 -42
c56 0 107.5 10.667 154.5 32s88 54.166 123 98.499s62.5 101 82.5 170s30 151.5 30 247.5c0 90.667 -8.16699 171.834 -24.5 243.501s-41 132.334 -74 182.001s-74 87.5 -123 113.5s-105.5 39 -169.5 39zM418.997 1367l-27.9961 0.000976562
c2.66699 80.667 19.667 139.167 51 175.5s69.666 54.5 114.999 54.5c13.333 0 26.166 -1.16699 38.499 -3.5s25.166 -6.33301 38.499 -12s28.166 -13.334 44.499 -23.001s35.5 -22.167 57.5 -37.5c46 -32 82 -48 108 -48c8.66699 0 17.334 1.5 26.001 4.5
s16.5 9.16699 23.5 18.5s13.5 22 19.5 38s11 37 15 63h28c0 -38.667 -4.33301 -72.667 -13 -102s-20.834 -53.833 -36.501 -73.5s-33.5 -34.334 -53.5 -44.001s-41.667 -14.5 -65 -14.5c-46.667 0 -104.667 23.667 -174 71c-19.333 13.333 -34.666 23.5 -45.999 30.5
s-21 12.333 -29 16s-14.667 5.83398 -20 6.50098s-11.333 1 -18 1c-10.667 0 -19.834 -0.833008 -27.501 -2.5s-14.5 -6.5 -20.5 -14.5s-11.667 -20 -17 -36s-11 -38.667 -17 -68z" />
    <glyph glyph-name="Odieresis" unicode="&#xd6;" horiz-adv-x="1309" 
d="M688 1250c76.667 0 149.831 -15.8359 219.498 -47.5029s130.834 -75.167 183.501 -130.5s94.667 -120.666 126 -195.999s47 -157 47 -245c0 -90.667 -15.667 -174.667 -47 -252s-73.666 -144.5 -126.999 -201.5s-115.833 -101.5 -187.5 -133.5s-147.834 -48 -228.501 -48
c-82 0 -158.667 15.333 -230 46s-133.166 74 -185.499 130s-93.666 122.667 -123.999 200s-45.5 162.666 -45.5 255.999c0 86.667 15.167 167.834 45.5 243.501s72.166 141.334 125.499 197.001s116.5 99.834 189.5 132.501s152.5 49 238.5 49zM670.997 1185
c-60.667 0 -114.5 -13.002 -161.5 -39.002s-86.667 -62.833 -119 -110.5s-56.833 -105.667 -73.5 -174s-25 -145.166 -25 -230.499c0 -84.667 8.16699 -162 24.5 -232s40.5 -130.167 72.5 -180.5s71.833 -89.5 119.5 -117.5s102.167 -42 163.5 -42
c56 0 107.5 10.667 154.5 32s88 54.166 123 98.499s62.5 101 82.5 170s30 151.5 30 247.5c0 90.667 -8.16699 171.834 -24.5 243.501s-41 132.334 -74 182.001s-74 87.5 -123 113.5s-105.5 39 -169.5 39zM521.997 1503c26.667 0 49.501 -9.5 68.501 -28.5
s28.5 -41.833 28.5 -68.5c0 -26 -9.5 -48.5 -28.5 -67.5s-41.833 -28.5 -68.5 -28.5c-26 0 -48.5 9.5 -67.5 28.5s-28.5 41.5 -28.5 67.5c0 26.667 9.16699 49.5 27.5 68.5s41.166 28.5 68.499 28.5zM833.998 1503c26 0 48.333 -9.5 67 -28.5s28 -41.833 28 -68.5
c0 -26 -9.33301 -48.5 -28 -67.5s-41 -28.5 -67 -28.5c-26.667 0 -49.334 9.5 -68.001 28.5s-28 41.5 -28 67.5c0 26.667 9.33301 49.5 28 68.5s41.334 28.5 68.001 28.5z" />
    <glyph glyph-name="multiply" unicode="&#xd7;" horiz-adv-x="1022" 
d="M146 232l312 312l-312 312l51 51l312 -312l312 312l48 -50l-311 -312l314 -313l-51 -51l-313 313l-312 -312z" />
    <glyph glyph-name="Oslash" unicode="&#xd8;" horiz-adv-x="1308" 
d="M1014 1104l116 144.001l52 -38l-118 -148c62 -68.667 106.667 -136.334 134 -203.001c28 -68.667 42 -149.334 42 -242.001c0 -201.333 -72.333 -365 -217 -491c-110 -96 -231.667 -144 -365 -144c-30 0 -61.167 2.83301 -93.5 8.5s-64.5 14 -96.5 25
s-63.167 24.333 -93.5 40s-57.833 33.5 -82.5 53.5l-113 -140l-53 41l117 145c-118.667 121.333 -178 277 -178 467c0 86.667 15.667 167.334 47 242.001s73.833 139.5 127.5 194.5s116.167 98.333 187.5 130s147.333 47.5 228 47.5c135.333 0 255 -44 359 -132zM940 1013
c-66.667 107.333 -163 161 -289 161c-69.333 0 -128.5 -15 -177.5 -45s-88.667 -70 -119 -120s-52.5 -108 -66.5 -174s-21 -135.667 -21 -209c0 -137.333 21.667 -257.333 65 -360zM974 950.001l-605.003 -749.002c36.667 -56.667 78.334 -96.667 125.001 -120
s97.334 -35 152.001 -35c53.333 0 103.833 10 151.5 30s89 51.833 124 95.5s62.667 100 83 169s30.5 152.5 30.5 250.5c0 32.667 -0.666992 62.834 -2 90.501s-4.16602 55.334 -8.49902 83.001s-10.5 56.5 -18.5 86.5s-18.667 63 -32 99z" />
    <glyph glyph-name="Ugrave" unicode="&#xd9;" horiz-adv-x="1308" 
d="M864 1174l0.000976562 33.001h424v-33h-45c-45.333 0 -81.333 -20 -108 -60c-12.667 -17.333 -19 -60 -19 -128v-486c0 -117.333 -12 -211 -36 -281c-12.667 -33.333 -30.5 -64.5 -53.5 -93.5s-52 -54.333 -87 -76s-76 -38.834 -123 -51.501s-101.167 -19 -162.5 -19
c-66 0 -123.5 5.66699 -172.5 17s-91.167 28 -126.5 50s-64.5 48.5 -87.5 79.5s-41.5 65.833 -55.5 104.5c-19.333 53.333 -29 151.666 -29 294.999v469c0 37.333 -2.33301 67.5 -7 90.5s-12.334 41.167 -23.001 54.5s-24.167 22.5 -40.5 27.5s-35.5 7.5 -57.5 7.5h-46v33
h519v-33h-46c-21.333 0 -40 -2.33301 -56 -7s-29.167 -13.334 -39.5 -26.001s-18.333 -30.667 -24 -54s-8.5 -54.333 -8.5 -93v-523c0 -52.667 3.5 -104 10.5 -154s21.5 -94.667 43.5 -134s53.333 -70.666 94 -93.999s95 -35 163 -35c38.667 0 76 4.66699 112 14
s68.833 21.833 98.5 37.5s55.5 34.834 77.5 57.501s38.333 47 49 73c22.667 52 34 142.667 34 272v486c0 74 -8.33301 120.667 -25 140c-22.667 26.667 -56.667 40 -102 40h-45zM447.001 1526h197l93 -305h-30z" />
    <glyph glyph-name="Uacute" unicode="&#xda;" horiz-adv-x="1308" 
d="M864 1174l0.000976562 33.001h424v-33h-45c-45.333 0 -81.333 -20 -108 -60c-12.667 -17.333 -19 -60 -19 -128v-486c0 -117.333 -12 -211 -36 -281c-12.667 -33.333 -30.5 -64.5 -53.5 -93.5s-52 -54.333 -87 -76s-76 -38.834 -123 -51.501s-101.167 -19 -162.5 -19
c-66 0 -123.5 5.66699 -172.5 17s-91.167 28 -126.5 50s-64.5 48.5 -87.5 79.5s-41.5 65.833 -55.5 104.5c-19.333 53.333 -29 151.666 -29 294.999v469c0 37.333 -2.33301 67.5 -7 90.5s-12.334 41.167 -23.001 54.5s-24.167 22.5 -40.5 27.5s-35.5 7.5 -57.5 7.5h-46v33
h519v-33h-46c-21.333 0 -40 -2.33301 -56 -7s-29.167 -13.334 -39.5 -26.001s-18.333 -30.667 -24 -54s-8.5 -54.333 -8.5 -93v-523c0 -52.667 3.5 -104 10.5 -154s21.5 -94.667 43.5 -134s53.333 -70.666 94 -93.999s95 -35 163 -35c38.667 0 76 4.66699 112 14
s68.833 21.833 98.5 37.5s55.5 34.834 77.5 57.501s38.333 47 49 73c22.667 52 34 142.667 34 272v486c0 74 -8.33301 120.667 -25 140c-22.667 26.667 -56.667 40 -102 40h-45zM878.001 1543l-262 -305h-30l92 305h200z" />
    <glyph glyph-name="Ucircumflex" unicode="&#xdb;" horiz-adv-x="1308" 
d="M864 1174l0.000976562 33.001h424v-33h-45c-45.333 0 -81.333 -20 -108 -60c-12.667 -17.333 -19 -60 -19 -128v-486c0 -117.333 -12 -211 -36 -281c-12.667 -33.333 -30.5 -64.5 -53.5 -93.5s-52 -54.333 -87 -76s-76 -38.834 -123 -51.501s-101.167 -19 -162.5 -19
c-66 0 -123.5 5.66699 -172.5 17s-91.167 28 -126.5 50s-64.5 48.5 -87.5 79.5s-41.5 65.833 -55.5 104.5c-19.333 53.333 -29 151.666 -29 294.999v469c0 37.333 -2.33301 67.5 -7 90.5s-12.334 41.167 -23.001 54.5s-24.167 22.5 -40.5 27.5s-35.5 7.5 -57.5 7.5h-46v33
h519v-33h-46c-21.333 0 -40 -2.33301 -56 -7s-29.167 -13.334 -39.5 -26.001s-18.333 -30.667 -24 -54s-8.5 -54.333 -8.5 -93v-523c0 -52.667 3.5 -104 10.5 -154s21.5 -94.667 43.5 -134s53.333 -70.666 94 -93.999s95 -35 163 -35c38.667 0 76 4.66699 112 14
s68.833 21.833 98.5 37.5s55.5 34.834 77.5 57.501s38.333 47 49 73c22.667 52 34 142.667 34 272v486c0 74 -8.33301 120.667 -25 140c-22.667 26.667 -56.667 40 -102 40h-45zM621.001 1597h162l168 -293h-27l-241 189l-204 -189h-26z" />
    <glyph glyph-name="Udieresis" unicode="&#xdc;" horiz-adv-x="1308" 
d="M864 1174l0.000976562 33.001h424v-33h-45c-45.333 0 -81.333 -20 -108 -60c-12.667 -17.333 -19 -60 -19 -128v-486c0 -117.333 -12 -211 -36 -281c-12.667 -33.333 -30.5 -64.5 -53.5 -93.5s-52 -54.333 -87 -76s-76 -38.834 -123 -51.501s-101.167 -19 -162.5 -19
c-66 0 -123.5 5.66699 -172.5 17s-91.167 28 -126.5 50s-64.5 48.5 -87.5 79.5s-41.5 65.833 -55.5 104.5c-19.333 53.333 -29 151.666 -29 294.999v469c0 37.333 -2.33301 67.5 -7 90.5s-12.334 41.167 -23.001 54.5s-24.167 22.5 -40.5 27.5s-35.5 7.5 -57.5 7.5h-46v33
h519v-33h-46c-21.333 0 -40 -2.33301 -56 -7s-29.167 -13.334 -39.5 -26.001s-18.333 -30.667 -24 -54s-8.5 -54.333 -8.5 -93v-523c0 -52.667 3.5 -104 10.5 -154s21.5 -94.667 43.5 -134s53.333 -70.666 94 -93.999s95 -35 163 -35c38.667 0 76 4.66699 112 14
s68.833 21.833 98.5 37.5s55.5 34.834 77.5 57.501s38.333 47 49 73c22.667 52 34 142.667 34 272v486c0 74 -8.33301 120.667 -25 140c-22.667 26.667 -56.667 40 -102 40h-45zM519.001 1486c26.667 0 49.501 -9.5 68.501 -28.5s28.5 -41.833 28.5 -68.5
c0 -26 -9.5 -48.5 -28.5 -67.5s-41.833 -28.5 -68.5 -28.5c-26 0 -48.5 9.5 -67.5 28.5s-28.5 41.5 -28.5 67.5c0 26.667 9.16699 49.5 27.5 68.5s41.166 28.5 68.499 28.5zM831.002 1486c26 0 48.333 -9.5 67 -28.5s28 -41.833 28 -68.5c0 -26 -9.33301 -48.5 -28 -67.5
s-41 -28.5 -67 -28.5c-26.667 0 -49.334 9.5 -68.001 28.5s-28 41.5 -28 67.5c0 26.667 9.33301 49.5 28 68.5s41.334 28.5 68.001 28.5z" />
    <glyph glyph-name="Yacute" unicode="&#xdd;" horiz-adv-x="1309" 
d="M864 1200l418.997 -0.000976562v-33h-24c-33.333 0 -69.5 -15.167 -108.5 -45.5s-81.5 -82.833 -127.5 -157.5l-290 -456v-301c0 -40 3 -71.667 9 -95s14.5 -40.833 25.5 -52.5s24.5 -19 40.5 -22s34.667 -4.5 56 -4.5h38v-33h-509v33h43c21.333 0 40 1.83301 56 5.5
s29.167 11.334 39.5 23.001s18.166 29 23.499 52s8 54.167 8 93.5v285l-329 502l-49 72c-12.667 18 -22.667 31 -30 39c-3.33301 3.33301 -9.16602 8.5 -17.499 15.5s-18.666 13.833 -30.999 20.5s-26 12.667 -41 18s-30.833 8 -47.5 8v33h512v-33h-26
c-13.333 0 -26.666 -1.5 -39.999 -4.5s-25.166 -7.66699 -35.499 -14s-18.833 -14.5 -25.5 -24.5s-10 -21.667 -10 -35c-0.666992 -10.667 3.83301 -25.5 13.5 -44.5s23.167 -42.5 40.5 -70.5l249 -387l237 370c33.333 54 51 95.333 53 124c-2 12.667 -5 24.167 -9 34.5
s-10.667 19.333 -20 27s-21.5 13.667 -36.5 18s-33.833 6.5 -56.5 6.5v33zM960.997 1543l-262 -305h-30l92 305h200z" />
    <glyph glyph-name="Thorn" unicode="&#xde;" horiz-adv-x="1008" 
d="M371 927h66.001c45.333 0 84.166 -1 116.499 -3s59.5 -4.66699 81.5 -8c44 -8 84.5 -20.833 121.5 -38.5s69 -39.834 96 -66.501s48 -57.667 63 -93s22.5 -74 22.5 -116c0 -88 -28.167 -161.333 -84.5 -220s-140.166 -95 -251.499 -109c-20.667 -2.66699 -77 -4 -169 -4
h-62v-54c0 -38.667 2.5 -69.834 7.5 -93.501s12.667 -42.167 23 -55.5s24.166 -22.166 41.499 -26.499s38.666 -6.5 63.999 -6.5h36v-33h-511v33h34c26 0 49.333 4.16699 70 12.5s36.667 20.5 48 36.5c11.333 16.667 17 60.334 17 131.001v766c0 66 -3 107.667 -9 125
c-7.33301 15.333 -22 29.666 -44 42.999s-48.667 20 -80 20h-36v33h511v-33h-34c-10 0 -21 -0.833008 -33 -2.5s-23.833 -5 -35.5 -10s-22.667 -11.667 -33 -20s-18.166 -19.166 -23.499 -32.499c-8.66699 -22 -13 -61 -13 -117v-58zM371.001 858v-527h40
c58 0 107.667 6.66699 149 20s74.833 31.833 100.5 55.5s44.334 52 56.001 85s17.5 69.5 17.5 109.5c0 33.333 -5.16699 64.333 -15.5 93s-24.833 53.667 -43.5 75s-40 39.333 -64 54s-49.333 24 -76 28c-12.667 2 -28.834 3.66699 -48.501 5s-43.5 2 -71.5 2h-44z" />
    <glyph glyph-name="germandbls" unicode="&#xdf;" horiz-adv-x="906" 
d="M31 3l0.00488281 32.002c27.333 1.33301 48.833 4.83301 64.5 10.5s27.5 14.667 35.5 27s12.833 28.833 14.5 49.5s2.5 47.334 2.5 80.001v655c0 74 7.16699 136.667 21.5 188s35.166 93.166 62.499 125.499s60.333 55.5 99 69.5s83 21 133 21
c47.333 0 90.166 -7.33301 128.499 -22s71.166 -34.667 98.499 -60s48.166 -55.666 62.499 -90.999s21.5 -73.666 21.5 -114.999c0 -54.667 -11.833 -102 -35.5 -142s-67.834 -74 -132.501 -102c160.667 -46.667 241 -164.334 241 -353.001c0 -50 -7 -98.333 -21 -145
s-33.833 -87.834 -59.5 -123.501s-56.667 -64 -93 -85s-77.5 -31.5 -123.5 -31.5c-25.333 0 -48.333 3.66699 -69 11s-38.5 17.666 -53.5 30.999s-26.5 28.833 -34.5 46.5s-12 36.167 -12 55.5c0 24.667 6.33301 43.5 19 56.5s29.667 19.5 51 19.5
c22.667 0 40.5 -6.33301 53.5 -19s19.5 -29.667 19.5 -51c0 -11.333 -1.66699 -22.833 -5 -34.5s-5 -19.834 -5 -24.501c0 -10.667 4.5 -20.167 13.5 -28.5s20.833 -12.5 35.5 -12.5c42.667 0 75.667 21 99 63s35 100.333 35 175c0 123.333 -21.667 220.833 -65 292.5
s-109 110.5 -197 116.5v50c63.333 0 110.833 18.333 142.5 55s47.5 98 47.5 184c0 79.333 -15.333 136.833 -46 172.5s-71.667 53.5 -123 53.5c-23.333 0 -45 -4 -65 -12s-37.167 -22.5 -51.5 -43.5s-25.5 -49.833 -33.5 -86.5s-12 -83.667 -12 -141v-917h-264z" />
    <glyph glyph-name="agrave" unicode="&#xe0;" horiz-adv-x="805" 
d="M516 120l-101.999 -75.498c-26 -19 -44.333 -30.833 -55 -35.5c-32 -14.667 -65.667 -22 -101 -22c-28.667 0 -54.5 5 -77.5 15s-43.167 24 -60.5 42s-30.833 39.833 -40.5 65.5s-14.5 54.5 -14.5 86.5c0 36.667 7.33301 69.5 22 98.5s37.167 55.667 67.5 80
s69.5 46.5 117.5 66.5c76 35.333 157.333 68.666 244 99.999v32c0 40.667 -3.16699 74.667 -9.5 102s-16.166 49 -29.499 65s-29.166 27.333 -47.499 34s-39.5 10 -63.5 10c-38 0 -68 -10 -90 -30s-33 -43 -33 -69l3 -51c0 -27.333 -6.83301 -48.333 -20.5 -63
s-31.834 -22 -54.501 -22c-22 0 -40.167 7.83301 -54.5 23.5s-21.5 36.5 -21.5 62.5c0 24.667 6.66699 49.167 20 73.5s32.833 46.166 58.5 65.499s56.667 34.833 93 46.5s78.166 17.5 125.499 17.5c62.667 0 115.834 -9.16699 159.501 -27.5s75.167 -49.833 94.5 -94.5
c10.667 -26 16 -78 16 -156v-275c0 -46.667 0.666992 -82.5 2 -107.5s3.66602 -43.167 6.99902 -54.5s7.66602 -18.166 12.999 -20.499s12 -3.5 20 -3.5c6 0 11.667 0.833008 17 2.5s11.5 5.16699 18.5 10.5s15.167 12.666 24.5 21.999l36 36v-50
c-66 -88 -129 -132 -189 -132c-28 0 -50.833 10 -68.5 30s-26.5 54 -26.5 102zM516.001 178.002v308.999c-61.333 -24.667 -131.666 -56.334 -210.999 -95.001c-28.667 -14.667 -51.167 -35.667 -67.5 -63s-24.5 -57.666 -24.5 -90.999c0 -21.333 3.5 -41 10.5 -59
s16.167 -33.667 27.5 -47s24.666 -23.666 39.999 -30.999s31.666 -11 48.999 -11c44.667 0 103.334 29.333 176.001 88zM190.001 1212h197l93 -305h-30z" />
    <glyph glyph-name="aacute" unicode="&#xe1;" horiz-adv-x="805" 
d="M516 120l-101.999 -75.498c-26 -19 -44.333 -30.833 -55 -35.5c-32 -14.667 -65.667 -22 -101 -22c-28.667 0 -54.5 5 -77.5 15s-43.167 24 -60.5 42s-30.833 39.833 -40.5 65.5s-14.5 54.5 -14.5 86.5c0 36.667 7.33301 69.5 22 98.5s37.167 55.667 67.5 80
s69.5 46.5 117.5 66.5c76 35.333 157.333 68.666 244 99.999v32c0 40.667 -3.16699 74.667 -9.5 102s-16.166 49 -29.499 65s-29.166 27.333 -47.499 34s-39.5 10 -63.5 10c-38 0 -68 -10 -90 -30s-33 -43 -33 -69l3 -51c0 -27.333 -6.83301 -48.333 -20.5 -63
s-31.834 -22 -54.501 -22c-22 0 -40.167 7.83301 -54.5 23.5s-21.5 36.5 -21.5 62.5c0 24.667 6.66699 49.167 20 73.5s32.833 46.166 58.5 65.499s56.667 34.833 93 46.5s78.166 17.5 125.499 17.5c62.667 0 115.834 -9.16699 159.501 -27.5s75.167 -49.833 94.5 -94.5
c10.667 -26 16 -78 16 -156v-275c0 -46.667 0.666992 -82.5 2 -107.5s3.66602 -43.167 6.99902 -54.5s7.66602 -18.166 12.999 -20.499s12 -3.5 20 -3.5c6 0 11.667 0.833008 17 2.5s11.5 5.16699 18.5 10.5s15.167 12.666 24.5 21.999l36 36v-50
c-66 -88 -129 -132 -189 -132c-28 0 -50.833 10 -68.5 30s-26.5 54 -26.5 102zM516.001 178.002v308.999c-61.333 -24.667 -131.666 -56.334 -210.999 -95.001c-28.667 -14.667 -51.167 -35.667 -67.5 -63s-24.5 -57.666 -24.5 -90.999c0 -21.333 3.5 -41 10.5 -59
s16.167 -33.667 27.5 -47s24.666 -23.666 39.999 -30.999s31.666 -11 48.999 -11c44.667 0 103.334 29.333 176.001 88zM669.001 1270l-262 -305h-30l92 305h200z" />
    <glyph glyph-name="acircumflex" unicode="&#xe2;" horiz-adv-x="805" 
d="M516 120l-101.999 -75.498c-26 -19 -44.333 -30.833 -55 -35.5c-32 -14.667 -65.667 -22 -101 -22c-28.667 0 -54.5 5 -77.5 15s-43.167 24 -60.5 42s-30.833 39.833 -40.5 65.5s-14.5 54.5 -14.5 86.5c0 36.667 7.33301 69.5 22 98.5s37.167 55.667 67.5 80
s69.5 46.5 117.5 66.5c76 35.333 157.333 68.666 244 99.999v32c0 40.667 -3.16699 74.667 -9.5 102s-16.166 49 -29.499 65s-29.166 27.333 -47.499 34s-39.5 10 -63.5 10c-38 0 -68 -10 -90 -30s-33 -43 -33 -69l3 -51c0 -27.333 -6.83301 -48.333 -20.5 -63
s-31.834 -22 -54.501 -22c-22 0 -40.167 7.83301 -54.5 23.5s-21.5 36.5 -21.5 62.5c0 24.667 6.66699 49.167 20 73.5s32.833 46.166 58.5 65.499s56.667 34.833 93 46.5s78.166 17.5 125.499 17.5c62.667 0 115.834 -9.16699 159.501 -27.5s75.167 -49.833 94.5 -94.5
c10.667 -26 16 -78 16 -156v-275c0 -46.667 0.666992 -82.5 2 -107.5s3.66602 -43.167 6.99902 -54.5s7.66602 -18.166 12.999 -20.499s12 -3.5 20 -3.5c6 0 11.667 0.833008 17 2.5s11.5 5.16699 18.5 10.5s15.167 12.666 24.5 21.999l36 36v-50
c-66 -88 -129 -132 -189 -132c-28 0 -50.833 10 -68.5 30s-26.5 54 -26.5 102zM516.001 178.002v308.999c-61.333 -24.667 -131.666 -56.334 -210.999 -95.001c-28.667 -14.667 -51.167 -35.667 -67.5 -63s-24.5 -57.666 -24.5 -90.999c0 -21.333 3.5 -41 10.5 -59
s16.167 -33.667 27.5 -47s24.666 -23.666 39.999 -30.999s31.666 -11 48.999 -11c44.667 0 103.334 29.333 176.001 88zM339.001 1189h162l168 -293h-27l-241 189l-204 -189h-26z" />
    <glyph glyph-name="atilde" unicode="&#xe3;" horiz-adv-x="805" 
d="M516 120l-101.999 -75.498c-26 -19 -44.333 -30.833 -55 -35.5c-32 -14.667 -65.667 -22 -101 -22c-28.667 0 -54.5 5 -77.5 15s-43.167 24 -60.5 42s-30.833 39.833 -40.5 65.5s-14.5 54.5 -14.5 86.5c0 36.667 7.33301 69.5 22 98.5s37.167 55.667 67.5 80
s69.5 46.5 117.5 66.5c76 35.333 157.333 68.666 244 99.999v32c0 40.667 -3.16699 74.667 -9.5 102s-16.166 49 -29.499 65s-29.166 27.333 -47.499 34s-39.5 10 -63.5 10c-38 0 -68 -10 -90 -30s-33 -43 -33 -69l3 -51c0 -27.333 -6.83301 -48.333 -20.5 -63
s-31.834 -22 -54.501 -22c-22 0 -40.167 7.83301 -54.5 23.5s-21.5 36.5 -21.5 62.5c0 24.667 6.66699 49.167 20 73.5s32.833 46.166 58.5 65.499s56.667 34.833 93 46.5s78.166 17.5 125.499 17.5c62.667 0 115.834 -9.16699 159.501 -27.5s75.167 -49.833 94.5 -94.5
c10.667 -26 16 -78 16 -156v-275c0 -46.667 0.666992 -82.5 2 -107.5s3.66602 -43.167 6.99902 -54.5s7.66602 -18.166 12.999 -20.499s12 -3.5 20 -3.5c6 0 11.667 0.833008 17 2.5s11.5 5.16699 18.5 10.5s15.167 12.666 24.5 21.999l36 36v-50
c-66 -88 -129 -132 -189 -132c-28 0 -50.833 10 -68.5 30s-26.5 54 -26.5 102zM516.001 178.002v308.999c-61.333 -24.667 -131.666 -56.334 -210.999 -95.001c-28.667 -14.667 -51.167 -35.667 -67.5 -63s-24.5 -57.666 -24.5 -90.999c0 -21.333 3.5 -41 10.5 -59
s16.167 -33.667 27.5 -47s24.666 -23.666 39.999 -30.999s31.666 -11 48.999 -11c44.667 0 103.334 29.333 176.001 88zM132.001 966.001l-27.9961 0.000976562c2.66699 80.667 19.667 139.167 51 175.5s69.666 54.5 114.999 54.5c13.333 0 26.166 -1.16699 38.499 -3.5
s25.166 -6.33301 38.499 -12s28.166 -13.334 44.499 -23.001s35.5 -22.167 57.5 -37.5c46 -32 82 -48 108 -48c8.66699 0 17.334 1.5 26.001 4.5s16.5 9.16699 23.5 18.5s13.5 22 19.5 38s11 37 15 63h28c0 -38.667 -4.33301 -72.667 -13 -102
s-20.834 -53.833 -36.501 -73.5s-33.5 -34.334 -53.5 -44.001s-41.667 -14.5 -65 -14.5c-46.667 0 -104.667 23.667 -174 71c-19.333 13.333 -34.666 23.5 -45.999 30.5s-21 12.333 -29 16s-14.667 5.83398 -20 6.50098s-11.333 1 -18 1
c-10.667 0 -19.834 -0.833008 -27.501 -2.5s-14.5 -6.5 -20.5 -14.5s-11.667 -20 -17 -36s-11 -38.667 -17 -68z" />
    <glyph glyph-name="adieresis" unicode="&#xe4;" horiz-adv-x="805" 
d="M516 120l-101.999 -75.498c-26 -19 -44.333 -30.833 -55 -35.5c-32 -14.667 -65.667 -22 -101 -22c-28.667 0 -54.5 5 -77.5 15s-43.167 24 -60.5 42s-30.833 39.833 -40.5 65.5s-14.5 54.5 -14.5 86.5c0 36.667 7.33301 69.5 22 98.5s37.167 55.667 67.5 80
s69.5 46.5 117.5 66.5c76 35.333 157.333 68.666 244 99.999v32c0 40.667 -3.16699 74.667 -9.5 102s-16.166 49 -29.499 65s-29.166 27.333 -47.499 34s-39.5 10 -63.5 10c-38 0 -68 -10 -90 -30s-33 -43 -33 -69l3 -51c0 -27.333 -6.83301 -48.333 -20.5 -63
s-31.834 -22 -54.501 -22c-22 0 -40.167 7.83301 -54.5 23.5s-21.5 36.5 -21.5 62.5c0 24.667 6.66699 49.167 20 73.5s32.833 46.166 58.5 65.499s56.667 34.833 93 46.5s78.166 17.5 125.499 17.5c62.667 0 115.834 -9.16699 159.501 -27.5s75.167 -49.833 94.5 -94.5
c10.667 -26 16 -78 16 -156v-275c0 -46.667 0.666992 -82.5 2 -107.5s3.66602 -43.167 6.99902 -54.5s7.66602 -18.166 12.999 -20.499s12 -3.5 20 -3.5c6 0 11.667 0.833008 17 2.5s11.5 5.16699 18.5 10.5s15.167 12.666 24.5 21.999l36 36v-50
c-66 -88 -129 -132 -189 -132c-28 0 -50.833 10 -68.5 30s-26.5 54 -26.5 102zM516.001 178.002v308.999c-61.333 -24.667 -131.666 -56.334 -210.999 -95.001c-28.667 -14.667 -51.167 -35.667 -67.5 -63s-24.5 -57.666 -24.5 -90.999c0 -21.333 3.5 -41 10.5 -59
s16.167 -33.667 27.5 -47s24.666 -23.666 39.999 -30.999s31.666 -11 48.999 -11c44.667 0 103.334 29.333 176.001 88zM262.001 1097c26.667 0 49.501 -9.5 68.501 -28.5s28.5 -41.833 28.5 -68.5c0 -26 -9.5 -48.5 -28.5 -67.5s-41.833 -28.5 -68.5 -28.5
c-26 0 -48.5 9.5 -67.5 28.5s-28.5 41.5 -28.5 67.5c0 26.667 9.16699 49.5 27.5 68.5s41.166 28.5 68.499 28.5zM574.002 1097c26 0 48.333 -9.5 67 -28.5s28 -41.833 28 -68.5c0 -26 -9.33301 -48.5 -28 -67.5s-41 -28.5 -67 -28.5c-26.667 0 -49.334 9.5 -68.001 28.5
s-28 41.5 -28 67.5c0 26.667 9.33301 49.5 28 68.5s41.334 28.5 68.001 28.5z" />
    <glyph glyph-name="aring" unicode="&#xe5;" horiz-adv-x="805" 
d="M516 120l-102.002 -75.498c-26 -19 -44.333 -30.833 -55 -35.5c-32 -14.667 -65.667 -22 -101 -22c-28.667 0 -54.5 5 -77.5 15s-43.167 24 -60.5 42s-30.833 39.833 -40.5 65.5s-14.5 54.5 -14.5 86.5c0 36.667 7.33301 69.5 22 98.5s39.334 56.333 74.001 82
s80.834 51.667 138.501 78s129.834 55.166 216.501 86.499v32c0 40.667 -3.16699 74.667 -9.5 102s-16.166 49 -29.499 65s-29.166 27.333 -47.499 34s-39.5 10 -63.5 10c-38 0 -68 -10 -90 -30s-33 -43 -33 -69l3 -51c0 -27.333 -6.83301 -48.333 -20.5 -63
s-31.834 -22 -54.501 -22c-22 0 -40.167 7.83301 -54.5 23.5s-21.5 36.5 -21.5 62.5c0 24.667 6.66699 49.167 20 73.5s32.833 46.166 58.5 65.499s56.667 34.833 93 46.5s78.166 17.5 125.499 17.5c62.667 0 115.834 -9.16699 159.501 -27.5s75.167 -49.833 94.5 -94.5
c10.667 -26 16 -78 16 -156v-275c0 -46.667 0.666992 -82.5 2 -107.5s3.66602 -43.167 6.99902 -54.5s7.66602 -18.166 12.999 -20.499s12 -3.5 20 -3.5c6 0 11.667 0.833008 17 2.5s11.5 5.16699 18.5 10.5s15.167 12.666 24.5 21.999l36 36v-50
c-66 -88 -129 -132 -189 -132c-28 0 -50.833 10 -68.5 30s-26.5 54 -26.5 102zM405.998 1265c22.667 0 44.3311 -4.50098 64.998 -13.501s38.667 -21.167 54 -36.5s27.5 -33.166 36.5 -53.499s13.5 -42.166 13.5 -65.499c0 -24 -4.5 -46.167 -13.5 -66.5
s-21.167 -38.166 -36.5 -53.499s-33.166 -27.333 -53.499 -36s-42.166 -13 -65.499 -13c-24 0 -46.167 4.33301 -66.5 13s-38.166 20.667 -53.499 36s-27.333 33.333 -36 54s-13 42.667 -13 66s4.33301 45.166 13 65.499s20.667 38.166 36 53.499s33.166 27.5 53.499 36.5
s42.5 13.5 66.5 13.5zM515.995 178.001v308.996c-61.333 -24.667 -111.833 -46.667 -151.5 -66s-70.667 -38.166 -93 -56.499s-37.666 -37.666 -45.999 -57.999s-12.5 -43.166 -12.5 -68.499c0 -21.333 3.5 -41 10.5 -59s16.167 -33.667 27.5 -47
s24.666 -23.666 39.999 -30.999s31.666 -11 48.999 -11c44.667 0 103.334 29.333 176.001 88zM405.995 1204c-29.333 0 -54.835 -10.332 -76.502 -30.999s-32.5 -46.334 -32.5 -77.001c0 -29.333 10.667 -54.5 32 -75.5s47 -31.5 77 -31.5c14.667 0 28.667 2.83301 42 8.5
s24.833 13.5 34.5 23.5s17.334 21.5 23.001 34.5s8.5 26.5 8.5 40.5c0 30 -10.667 55.5 -32 76.5s-46.666 31.5 -75.999 31.5z" />
    <glyph glyph-name="ae" unicode="&#xe6;" horiz-adv-x="1208" 
d="M650 508c-1.33301 -15.333 -1.99707 -28.6631 -1.99707 -39.9961v-26c0 -60 5.83301 -110.667 17.5 -152s27.5 -75 47.5 -101s44 -45 72 -57s58 -18 90 -18c24 0 46.5 2.33301 67.5 7s42 13.667 63 27s41.167 32.833 60.5 58.5s39 59.5 59 101.5l29 -19
c-8.66699 -39.333 -22 -77.333 -40 -114s-40.833 -69.334 -68.5 -98.001s-59.834 -51.834 -96.501 -69.501s-77.334 -26.5 -122.001 -26.5c-27.333 0 -51.333 1.33301 -72 4s-40.5 8.83398 -59.5 18.501s-38.833 23.667 -59.5 42s-44.667 43.833 -72 76.5l-82.5 -61.5
c-24.333 -17.667 -47.833 -32.5 -70.5 -44.5s-46 -20.833 -70 -26.5s-50.333 -8.5 -79 -8.5s-54.834 5.33301 -78.501 16s-44.334 25.167 -62.001 43.5s-31.5 39.833 -41.5 64.5s-15 51 -15 79c0 26 2.66699 49.5 8 70.5s15 41.167 29 60.5s37.667 41.166 71 65.499
s83.666 51.833 150.999 82.5c60.667 28 118.667 51.667 174 71v82c0 63.333 -11.667 108.166 -35 134.499s-54.666 39.5 -93.999 39.5c-40 0 -71 -9.83301 -93 -29.5s-33 -41.167 -33 -64.5c0 -28.667 -1 -52.334 -3 -71.001s-6 -33.167 -12 -43.5s-13.333 -17.333 -22 -21
s-19.667 -5.5 -33 -5.5c-14 0 -26 2.66699 -36 8s-18.333 12 -25 20s-11.5 17 -14.5 27s-4.5 20 -4.5 30c0 23.333 6.5 47.166 19.5 71.499s32.333 46 58 65s57 34.333 94 46s78.833 17.5 125.5 17.5c72.667 0 127.5 -10.333 164.5 -31s61.833 -46.334 74.5 -77.001
c32 41.333 66.833 69.666 104.5 84.999s81.834 23 132.501 23c42.667 0 81.5 -7.16699 116.5 -21.5s65.333 -35.666 91 -63.999s45.5 -63.166 59.5 -104.499s21 -88.666 21 -141.999h-504zM540.003 168.003c-6 13.333 -11.499 28.9922 -16.499 46.9922
s-9.33301 37.333 -13 58s-6.66699 41.834 -9 63.501s-3.5 42.167 -3.5 61.5v78c-47.333 -16.667 -102 -39.667 -164 -69c-45.333 -23.333 -76.833 -50.166 -94.5 -80.499s-26.5 -61.166 -26.5 -92.499c0 -23.333 3.66699 -44.666 11 -63.999s17.666 -36.166 30.999 -50.499
s28.5 -25.166 45.5 -32.499s35.167 -11 54.5 -11c12.667 0 24.667 1.33301 36 4s23.833 7.33398 37.5 14.001s29.5 15.834 47.5 27.501s39.333 27.167 64 46.5zM650.004 563.995h334c-2 75.333 -18 129.833 -48 163.5s-68.667 50.5 -116 50.5
c-46.667 0 -86.5 -18.167 -119.5 -54.5s-49.833 -89.5 -50.5 -159.5z" />
    <glyph glyph-name="ccedilla" unicode="&#xe7;" horiz-adv-x="804" 
d="M744 314c-10 -54 -26.335 -101.666 -49.002 -142.999s-49.167 -76 -79.5 -104s-63.5 -49.333 -99.5 -64s-73 -22 -111 -22c-44.667 0 -87.667 10.167 -129 30.5s-77.833 49 -109.5 86s-57 81.833 -76 134.5s-28.5 112 -28.5 178c0 63.333 10.333 121.333 31 174
s48.667 98 84 136s76.333 67.5 123 88.5s96.334 31.5 149.001 31.5c39.333 0 75.5 -5.83301 108.5 -17.5s61.833 -27 86.5 -46s43.834 -40.167 57.501 -63.5s20.5 -46 20.5 -68c0 -22.667 -7.33301 -40.834 -22 -54.501s-35 -20.5 -61 -20.5
c-27.333 0 -49.833 6.83301 -67.5 20.5s-28.167 41.834 -31.5 84.501c-7.33301 70.667 -47.333 106 -120 106c-35.333 0 -66.5 -8 -93.5 -24s-49.5 -37.333 -67.5 -64s-31.5 -57.834 -40.5 -93.501s-13.5 -73.167 -13.5 -112.5c0 -46.667 5.83301 -92 17.5 -136
s29 -83.167 52 -117.5s50.833 -61.833 83.5 -82.5s69.667 -31 111 -31c24.667 0 48.167 3 70.5 9s43.833 16.667 64.5 32s40.5 36.5 59.5 63.5s37.5 61.167 55.5 102.5zM331.998 -46.999l53 0.000976562l-43 -70c36.667 -9.33301 64 -25.333 82 -48s27 -49.667 27 -81
c0 -21.333 -4.83301 -41.666 -14.5 -60.999s-22.834 -36.333 -39.501 -51s-36.667 -26.334 -60 -35.001s-48.666 -13 -75.999 -13c-10.667 0 -22.834 0.5 -36.501 1.5l-46.5 3.5v39c8.66699 -2 16.667 -3 24 -3h18c15.333 0 29.5 2.66699 42.5 8s24.333 12.333 34 21
s17.334 18.667 23.001 30s8.5 23.666 8.5 36.999c0 18 -6.66699 33.5 -20 46.5s-30.333 19.5 -51 19.5c-3.33301 0 -6.83301 -0.166992 -10.5 -0.5s-8.16699 -0.833008 -13.5 -1.5z" />
    <glyph glyph-name="egrave" unicode="&#xe8;" horiz-adv-x="804" 
d="M192 512c0 -60.667 8.16992 -114.835 24.5029 -162.502s38 -88.167 65 -121.5s58.333 -58.833 94 -76.5s73.167 -26.5 112.5 -26.5c52.667 0 98.667 14.5 138 43.5s72 79.167 98 150.5l28 -17c-6 -40 -18.333 -79 -37 -117s-42.167 -72.333 -70.5 -103
s-61.5 -55.167 -99.5 -73.5s-79.333 -27.5 -124 -27.5c-48.667 0 -94.334 9.83301 -137.001 29.5s-80 47.834 -112 84.501s-57.5 80.667 -76.5 132s-28.5 109.333 -28.5 174c0 69.333 9.66699 131.333 29 186s45.666 100.834 78.999 138.501s72.666 66.167 117.999 85.5
s94.666 29 147.999 29c44.667 0 85.834 -7.66699 123.501 -23s70.5 -37.333 98.5 -66s49.833 -63.167 65.5 -103.5s23.5 -85.5 23.5 -135.5h-560zM192.003 561.999l375 -0.000976562c-4 74.667 -21.667 129.334 -53 164.001s-72 52 -122 52
c-24 0 -47.5 -4.83301 -70.5 -14.5s-43.5 -23.667 -61.5 -42s-33.167 -41 -45.5 -68s-19.833 -57.5 -22.5 -91.5zM184.003 1252h197l93 -305h-30z" />
    <glyph glyph-name="eacute" unicode="&#xe9;" horiz-adv-x="804" 
d="M192 512c0 -60.667 8.16992 -114.835 24.5029 -162.502s38 -88.167 65 -121.5s58.333 -58.833 94 -76.5s73.167 -26.5 112.5 -26.5c52.667 0 98.667 14.5 138 43.5s72 79.167 98 150.5l28 -17c-6 -40 -18.333 -79 -37 -117s-42.167 -72.333 -70.5 -103
s-61.5 -55.167 -99.5 -73.5s-79.333 -27.5 -124 -27.5c-48.667 0 -94.334 9.83301 -137.001 29.5s-80 47.834 -112 84.501s-57.5 80.667 -76.5 132s-28.5 109.333 -28.5 174c0 69.333 9.66699 131.333 29 186s45.666 100.834 78.999 138.501s72.666 66.167 117.999 85.5
s94.666 29 147.999 29c44.667 0 85.834 -7.66699 123.501 -23s70.5 -37.333 98.5 -66s49.833 -63.167 65.5 -103.5s23.5 -85.5 23.5 -135.5h-560zM192.003 561.999l375 -0.000976562c-4 74.667 -21.667 129.334 -53 164.001s-72 52 -122 52
c-24 0 -47.5 -4.83301 -70.5 -14.5s-43.5 -23.667 -61.5 -42s-33.167 -41 -45.5 -68s-19.833 -57.5 -22.5 -91.5zM669.003 1236l-262 -305h-30l92 305h200z" />
    <glyph glyph-name="ecircumflex" unicode="&#xea;" horiz-adv-x="804" 
d="M192 512c0 -60.667 8.16992 -114.835 24.5029 -162.502s38 -88.167 65 -121.5s58.333 -58.833 94 -76.5s73.167 -26.5 112.5 -26.5c52.667 0 98.667 14.5 138 43.5s72 79.167 98 150.5l28 -17c-6 -40 -18.333 -79 -37 -117s-42.167 -72.333 -70.5 -103
s-61.5 -55.167 -99.5 -73.5s-79.333 -27.5 -124 -27.5c-48.667 0 -94.334 9.83301 -137.001 29.5s-80 47.834 -112 84.501s-57.5 80.667 -76.5 132s-28.5 109.333 -28.5 174c0 69.333 9.66699 131.333 29 186s45.666 100.834 78.999 138.501s72.666 66.167 117.999 85.5
s94.666 29 147.999 29c44.667 0 85.834 -7.66699 123.501 -23s70.5 -37.333 98.5 -66s49.833 -63.167 65.5 -103.5s23.5 -85.5 23.5 -135.5h-560zM192.003 561.999l375 -0.000976562c-4 74.667 -21.667 129.334 -53 164.001s-72 52 -122 52
c-24 0 -47.5 -4.83301 -70.5 -14.5s-43.5 -23.667 -61.5 -42s-33.167 -41 -45.5 -68s-19.833 -57.5 -22.5 -91.5zM339.003 1201h162l168 -293h-27l-241 189l-204 -189h-26z" />
    <glyph glyph-name="edieresis" unicode="&#xeb;" horiz-adv-x="804" 
d="M192 512c0 -60.667 8.16992 -114.835 24.5029 -162.502s38 -88.167 65 -121.5s58.333 -58.833 94 -76.5s73.167 -26.5 112.5 -26.5c52.667 0 98.667 14.5 138 43.5s72 79.167 98 150.5l28 -17c-6 -40 -18.333 -79 -37 -117s-42.167 -72.333 -70.5 -103
s-61.5 -55.167 -99.5 -73.5s-79.333 -27.5 -124 -27.5c-48.667 0 -94.334 9.83301 -137.001 29.5s-80 47.834 -112 84.501s-57.5 80.667 -76.5 132s-28.5 109.333 -28.5 174c0 69.333 9.66699 131.333 29 186s45.666 100.834 78.999 138.501s72.666 66.167 117.999 85.5
s94.666 29 147.999 29c44.667 0 85.834 -7.66699 123.501 -23s70.5 -37.333 98.5 -66s49.833 -63.167 65.5 -103.5s23.5 -85.5 23.5 -135.5h-560zM192.003 561.999l375 -0.000976562c-4 74.667 -21.667 129.334 -53 164.001s-72 52 -122 52
c-24 0 -47.5 -4.83301 -70.5 -14.5s-43.5 -23.667 -61.5 -42s-33.167 -41 -45.5 -68s-19.833 -57.5 -22.5 -91.5zM262.003 1156c26.667 0 49.501 -9.5 68.501 -28.5s28.5 -41.833 28.5 -68.5c0 -26 -9.5 -48.5 -28.5 -67.5s-41.833 -28.5 -68.5 -28.5
c-26 0 -48.5 9.5 -67.5 28.5s-28.5 41.5 -28.5 67.5c0 26.667 9.16699 49.5 27.5 68.5s41.166 28.5 68.499 28.5zM574.004 1156c26 0 48.333 -9.5 67 -28.5s28 -41.833 28 -68.5c0 -26 -9.33301 -48.5 -28 -67.5s-41 -28.5 -67 -28.5c-26.667 0 -49.334 9.5 -68.001 28.5
s-28 41.5 -28 67.5c0 26.667 9.33301 49.5 28 68.5s41.334 28.5 68.001 28.5z" />
    <glyph glyph-name="igrave" unicode="&#xec;" horiz-adv-x="502" 
d="M335 834l0.00195312 -651.001c0 -38.667 2.5 -68.334 7.5 -89.001s12.5 -35.5 22.5 -44.5s22.833 -14.167 38.5 -15.5s34.5 -2 56.5 -2v-32h-394v32c27.333 0 49.166 2 65.499 6s28.833 11.667 37.5 23s14.167 26.833 16.5 46.5s3.5 44.834 3.5 75.501v312
c0 51.333 -0.833008 91.833 -2.5 121.5s-4.83398 51.834 -9.50098 66.501s-11.167 24 -19.5 28s-18.833 6 -31.5 6c-9.33301 0 -18.5 -1.16699 -27.5 -3.5s-19.833 -5.5 -32.5 -9.5l-13 31l244 99h38zM69.002 1229h197l93 -305h-30z" />
    <glyph glyph-name="iacute" unicode="&#xed;" horiz-adv-x="502" 
d="M335 834l0.00195312 -651.001c0 -38.667 2.5 -68.334 7.5 -89.001s12.5 -35.5 22.5 -44.5s22.833 -14.167 38.5 -15.5s34.5 -2 56.5 -2v-32h-394v32c27.333 0 49.166 2 65.499 6s28.833 11.667 37.5 23s14.167 26.833 16.5 46.5s3.5 44.834 3.5 75.501v312
c0 51.333 -0.833008 91.833 -2.5 121.5s-4.83398 51.834 -9.50098 66.501s-11.167 24 -19.5 28s-18.833 6 -31.5 6c-9.33301 0 -18.5 -1.16699 -27.5 -3.5s-19.833 -5.5 -32.5 -9.5l-13 31l244 99h38zM441.002 1229l-261 -305h-31l94 305h198z" />
    <glyph glyph-name="icircumflex" unicode="&#xee;" horiz-adv-x="503" 
d="M335 834l0.00195312 -651.001c0 -38.667 2.5 -68.334 7.5 -89.001s12.5 -35.5 22.5 -44.5s22.667 -14.167 38 -15.5s34 -2 56 -2v-32h-393v32c27.333 0 49.166 2 65.499 6s28.833 11.667 37.5 23s14.167 26.833 16.5 46.5s3.5 44.834 3.5 75.501v312
c0 51.333 -0.833008 91.833 -2.5 121.5s-4.83398 51.834 -9.50098 66.501s-11.167 24 -19.5 28s-18.833 6 -31.5 6c-9.33301 0 -18.5 -1.16699 -27.5 -3.5s-19.833 -5.5 -32.5 -9.5l-13 31l244 99h38zM178.002 1225h164l168 -293h-28l-242 189l-202 -189h-26z" />
    <glyph glyph-name="idieresis" unicode="&#xef;" horiz-adv-x="503" 
d="M335 834l-0.000976562 -651.001c0 -38.667 2.33301 -68.334 7 -89.001s12.167 -35.5 22.5 -44.5s23.166 -14.167 38.499 -15.5s34 -2 56 -2v-32h-393v32c27.333 0 49 2 65 6s28.5 11.667 37.5 23s14.5 26.833 16.5 46.5s3 44.834 3 75.501v312
c0 51.333 -0.833008 91.833 -2.5 121.5s-4.66699 51.834 -9 66.501s-10.666 24 -18.999 28s-19.166 6 -32.499 6c-8.66699 0 -17.667 -1.16699 -27 -3.5s-20 -5.5 -32 -9.5l-14 31l245 99h38zM96.999 1181c27.333 0 50.334 -9.33301 69.001 -28s28 -41.334 28 -68.001
s-9.5 -49.167 -28.5 -67.5s-41.833 -27.5 -68.5 -27.5c-26 0 -48.5 9.16699 -67.5 27.5s-28.5 40.833 -28.5 67.5s9.16699 49.334 27.5 68.001s41.166 28 68.499 28zM409 1181c26 0 48.5 -9.33301 67.5 -28s28.5 -41.334 28.5 -68.001s-9.5 -49.167 -28.5 -67.5
s-41.5 -27.5 -67.5 -27.5c-26.667 0 -49.334 9.16699 -68.001 27.5s-28 40.833 -28 67.5s9.33301 49.334 28 68.001s41.334 28 68.001 28z" />
    <glyph glyph-name="eth" unicode="&#xf0;" horiz-adv-x="906" 
d="M415 1040l-218.001 -118.999l-26 49l205 116c-20 21.333 -36.833 38.333 -50.5 51l-37 33c-11 9.33301 -22.333 18.166 -34 26.499s-26.5 18.166 -44.5 29.499l24 38c35.333 -17.333 71 -37.5 107 -60.5s73 -48.5 111 -76.5l220 123l31 -49l-202 -115
c56 -49.333 104.833 -100.666 146.5 -153.999s77.167 -109.333 106.5 -168c57.333 -117.333 86 -230 86 -338c0 -60.667 -9.5 -118.167 -28.5 -172.5s-46.167 -101.5 -81.5 -141.5s-77.333 -71.833 -126 -95.5s-103 -35.5 -163 -35.5c-52 0 -101 10.333 -147 31
s-86.167 49.5 -120.5 86.5s-61.666 80.833 -81.999 131.5s-30.5 105.667 -30.5 165c0 56 9.16699 110.167 27.5 162.5s43.833 98.833 76.5 139.5s71.667 73.334 117 98.001s95.333 37 150 37c13.333 0 25.666 -0.333008 36.999 -1s22.5 -2.83398 33.5 -6.50098
s22.833 -9 35.5 -16s27 -16.167 43 -27.5c-22.667 49.333 -48.167 95.333 -76.5 138s-58.166 83 -89.499 121zM423.999 780.001c-28 0 -54.166 -5.49902 -78.499 -16.499s-45.333 -29.167 -63 -54.5s-31.667 -58 -42 -98s-15.5 -89 -15.5 -147
c0 -68 7.5 -128.167 22.5 -180.5s34.5 -96.333 58.5 -132s51.667 -62.667 83 -81s62.666 -27.5 93.999 -27.5c26.667 0 51.667 5.5 75 16.5s43.833 28.667 61.5 53s31.5 55.166 41.5 92.499s15 82.333 15 135c0 65.333 -6.16699 125 -18.5 179s-29.5 100.333 -51.5 139
s-48.333 68.667 -79 90s-65 32 -103 32z" />
    <glyph glyph-name="ntilde" unicode="&#xf1;" horiz-adv-x="907" 
d="M293 663c94.667 114 184.997 170.991 270.997 170.991c30 0 57.833 -5 83.5 -15s47.834 -26.667 66.501 -50s33.334 -54.666 44.001 -93.999s16 -88 16 -146v-346c0 -34.667 2 -62.167 6 -82.5s10.667 -35.5 20 -45.5s21.833 -16.333 37.5 -19s35.834 -4 60.501 -4v-32
h-400v32h16c26.667 0 47.667 2.33301 63 7s26.666 12.834 33.999 24.501s12.166 27.334 14.499 47.001s3.5 43.834 3.5 72.501v332c0 74.667 -9.5 128.334 -28.5 161.001s-51.5 49 -97.5 49c-71.333 0 -141.333 -38.333 -210 -115v-427c0 -34 1.16699 -60.833 3.5 -80.5
s7.83301 -34.834 16.5 -45.501s21.834 -17.5 39.501 -20.5s41.834 -4.5 72.501 -4.5v-32h-401v32h17c21.333 0 38.833 2.33301 52.5 7s24.5 12.834 32.5 24.501s13.5 27.334 16.5 47.001s4.5 43.834 4.5 72.501v300c0 58 -0.833008 102.833 -2.5 134.5s-5 54.834 -10 69.501
s-11.667 23.334 -20 26.001s-18.5 4 -30.5 4c-9.33301 0 -18.5 -1.16699 -27.5 -3.5s-19.833 -5.5 -32.5 -9.5l-13 31l244 99h38v-171zM201.997 949.991l-27.9961 0.000976562c2.66699 80.667 19.667 139.167 51 175.5s69.666 54.5 114.999 54.5
c13.333 0 26.166 -1.16699 38.499 -3.5s25.166 -6.33301 38.499 -12s28.166 -13.334 44.499 -23.001s35.5 -22.167 57.5 -37.5c46 -32 82 -48 108 -48c8.66699 0 17.334 1.5 26.001 4.5s16.5 9.16699 23.5 18.5s13.5 22 19.5 38s11 37 15 63h28
c0 -38.667 -4.33301 -72.667 -13 -102s-20.834 -53.833 -36.501 -73.5s-33.5 -34.334 -53.5 -44.001s-41.667 -14.5 -65 -14.5c-46.667 0 -104.667 23.667 -174 71c-19.333 13.333 -34.666 23.5 -45.999 30.5s-21 12.333 -29 16s-14.667 5.83398 -20 6.50098
s-11.333 1 -18 1c-10.667 0 -19.834 -0.833008 -27.501 -2.5s-14.5 -6.5 -20.5 -14.5s-11.667 -20 -17 -36s-11 -38.667 -17 -68z" />
    <glyph glyph-name="ograve" unicode="&#xf2;" horiz-adv-x="905" 
d="M453 840c56.667 0 108.666 -10.999 155.999 -32.999s88.333 -51.667 123 -89s62 -81.333 82 -132s30 -104 30 -160c0 -66 -10.833 -126.333 -32.5 -181s-51 -101.5 -88 -140.5s-79.667 -69.333 -128 -91s-98.833 -32.5 -151.5 -32.5
c-55.333 0 -106.666 11.5 -153.999 34.5s-87.833 53.833 -121.5 92.5s-60 83.5 -79 134.5s-28.5 104.5 -28.5 160.5c0 58.667 10.167 114.167 30.5 166.5s48 98.666 83 138.999s76.333 72.333 124 96s99.167 35.5 154.5 35.5zM424.999 782.001
c-25.333 0 -49.832 -5.49707 -73.499 -16.4971s-44.834 -28.5 -63.501 -52.5s-33.667 -55.5 -45 -94.5s-17 -86.167 -17 -141.5c0 -56.667 6 -111.334 18 -164.001s29 -98.667 51 -138s48.833 -71 80.5 -95s66.834 -36 105.501 -36c28 0 54.167 5.5 78.5 16.5
s45.166 28.833 62.499 53.5s31.166 57 41.499 97s15.5 89.333 15.5 148c0 58 -5.83301 112.667 -17.5 164s-28.167 96.166 -49.5 134.499s-47.666 68.666 -78.999 90.999s-67.333 33.5 -108 33.5zM159 1206h197l93 -305h-30z" />
    <glyph glyph-name="oacute" unicode="&#xf3;" horiz-adv-x="905" 
d="M453 840c56.667 0 108.666 -10.999 155.999 -32.999s88.333 -51.667 123 -89s62 -81.333 82 -132s30 -104 30 -160c0 -66 -10.833 -126.333 -32.5 -181s-51 -101.5 -88 -140.5s-79.667 -69.333 -128 -91s-98.833 -32.5 -151.5 -32.5
c-55.333 0 -106.666 11.5 -153.999 34.5s-87.833 53.833 -121.5 92.5s-60 83.5 -79 134.5s-28.5 104.5 -28.5 160.5c0 58.667 10.167 114.167 30.5 166.5s48 98.666 83 138.999s76.333 72.333 124 96s99.167 35.5 154.5 35.5zM424.999 782.001
c-25.333 0 -49.832 -5.49707 -73.499 -16.4971s-44.834 -28.5 -63.501 -52.5s-33.667 -55.5 -45 -94.5s-17 -86.167 -17 -141.5c0 -56.667 6 -111.334 18 -164.001s29 -98.667 51 -138s48.833 -71 80.5 -95s66.834 -36 105.501 -36c28 0 54.167 5.5 78.5 16.5
s45.166 28.833 62.499 53.5s31.166 57 41.499 97s15.5 89.333 15.5 148c0 58 -5.83301 112.667 -17.5 164s-28.167 96.166 -49.5 134.499s-47.666 68.666 -78.999 90.999s-67.333 33.5 -108 33.5zM669 1230l-262 -305h-30l92 305h200z" />
    <glyph glyph-name="ocircumflex" unicode="&#xf4;" horiz-adv-x="905" 
d="M453 840c56.667 0 108.666 -10.999 155.999 -32.999s88.333 -51.667 123 -89s62 -81.333 82 -132s30 -104 30 -160c0 -66 -10.833 -126.333 -32.5 -181s-51 -101.5 -88 -140.5s-79.667 -69.333 -128 -91s-98.833 -32.5 -151.5 -32.5
c-55.333 0 -106.666 11.5 -153.999 34.5s-87.833 53.833 -121.5 92.5s-60 83.5 -79 134.5s-28.5 104.5 -28.5 160.5c0 58.667 10.167 114.167 30.5 166.5s48 98.666 83 138.999s76.333 72.333 124 96s99.167 35.5 154.5 35.5zM424.999 782.001
c-25.333 0 -49.832 -5.49707 -73.499 -16.4971s-44.834 -28.5 -63.501 -52.5s-33.667 -55.5 -45 -94.5s-17 -86.167 -17 -141.5c0 -56.667 6 -111.334 18 -164.001s29 -98.667 51 -138s48.833 -71 80.5 -95s66.834 -36 105.501 -36c28 0 54.167 5.5 78.5 16.5
s45.166 28.833 62.499 53.5s31.166 57 41.499 97s15.5 89.333 15.5 148c0 58 -5.83301 112.667 -17.5 164s-28.167 96.166 -49.5 134.499s-47.666 68.666 -78.999 90.999s-67.333 33.5 -108 33.5zM339 1195h162l168 -293h-27l-241 189l-204 -189h-26z" />
    <glyph glyph-name="otilde" unicode="&#xf5;" horiz-adv-x="905" 
d="M453 840c56.667 0 108.666 -10.999 155.999 -32.999s88.333 -51.667 123 -89s62 -81.333 82 -132s30 -104 30 -160c0 -66 -10.833 -126.333 -32.5 -181s-51 -101.5 -88 -140.5s-79.667 -69.333 -128 -91s-98.833 -32.5 -151.5 -32.5
c-55.333 0 -106.666 11.5 -153.999 34.5s-87.833 53.833 -121.5 92.5s-60 83.5 -79 134.5s-28.5 104.5 -28.5 160.5c0 58.667 10.167 114.167 30.5 166.5s48 98.666 83 138.999s76.333 72.333 124 96s99.167 35.5 154.5 35.5zM424.999 782.001
c-25.333 0 -49.832 -5.49707 -73.499 -16.4971s-44.834 -28.5 -63.501 -52.5s-33.667 -55.5 -45 -94.5s-17 -86.167 -17 -141.5c0 -56.667 6 -111.334 18 -164.001s29 -98.667 51 -138s48.833 -71 80.5 -95s66.834 -36 105.501 -36c28 0 54.167 5.5 78.5 16.5
s45.166 28.833 62.499 53.5s31.166 57 41.499 97s15.5 89.333 15.5 148c0 58 -5.83301 112.667 -17.5 164s-28.167 96.166 -49.5 134.499s-47.666 68.666 -78.999 90.999s-67.333 33.5 -108 33.5zM230 944.004l-27.9961 0.000976562c2.66699 80.667 19.667 139.167 51 175.5
s69.666 54.5 114.999 54.5c13.333 0 26.166 -1.16699 38.499 -3.5s25.166 -6.33301 38.499 -12s28.166 -13.334 44.499 -23.001s35.5 -22.167 57.5 -37.5c46 -32 82 -48 108 -48c8.66699 0 17.334 1.5 26.001 4.5s16.5 9.16699 23.5 18.5s13.5 22 19.5 38s11 37 15 63h28
c0 -38.667 -4.33301 -72.667 -13 -102s-20.834 -53.833 -36.501 -73.5s-33.5 -34.334 -53.5 -44.001s-41.667 -14.5 -65 -14.5c-46.667 0 -104.667 23.667 -174 71c-19.333 13.333 -34.666 23.5 -45.999 30.5s-21 12.333 -29 16s-14.667 5.83398 -20 6.50098
s-11.333 1 -18 1c-10.667 0 -19.834 -0.833008 -27.501 -2.5s-14.5 -6.5 -20.5 -14.5s-11.667 -20 -17 -36s-11 -38.667 -17 -68z" />
    <glyph glyph-name="odieresis" unicode="&#xf6;" horiz-adv-x="905" 
d="M453 840c56.667 0 108.666 -10.999 155.999 -32.999s88.333 -51.667 123 -89s62 -81.333 82 -132s30 -104 30 -160c0 -66 -10.833 -126.333 -32.5 -181s-51 -101.5 -88 -140.5s-79.667 -69.333 -128 -91s-98.833 -32.5 -151.5 -32.5
c-55.333 0 -106.666 11.5 -153.999 34.5s-87.833 53.833 -121.5 92.5s-60 83.5 -79 134.5s-28.5 104.5 -28.5 160.5c0 58.667 10.167 114.167 30.5 166.5s48 98.666 83 138.999s76.333 72.333 124 96s99.167 35.5 154.5 35.5zM424.999 782.001
c-25.333 0 -49.832 -5.49707 -73.499 -16.4971s-44.834 -28.5 -63.501 -52.5s-33.667 -55.5 -45 -94.5s-17 -86.167 -17 -141.5c0 -56.667 6 -111.334 18 -164.001s29 -98.667 51 -138s48.833 -71 80.5 -95s66.834 -36 105.501 -36c28 0 54.167 5.5 78.5 16.5
s45.166 28.833 62.499 53.5s31.166 57 41.499 97s15.5 89.333 15.5 148c0 58 -5.83301 112.667 -17.5 164s-28.167 96.166 -49.5 134.499s-47.666 68.666 -78.999 90.999s-67.333 33.5 -108 33.5zM262 1097c26.667 0 49.501 -9.5 68.501 -28.5s28.5 -41.833 28.5 -68.5
c0 -26 -9.5 -48.5 -28.5 -67.5s-41.833 -28.5 -68.5 -28.5c-26 0 -48.5 9.5 -67.5 28.5s-28.5 41.5 -28.5 67.5c0 26.667 9.16699 49.5 27.5 68.5s41.166 28.5 68.499 28.5zM574.001 1097c26 0 48.333 -9.5 67 -28.5s28 -41.833 28 -68.5c0 -26 -9.33301 -48.5 -28 -67.5
s-41 -28.5 -67 -28.5c-26.667 0 -49.334 9.5 -68.001 28.5s-28 41.5 -28 67.5c0 26.667 9.33301 49.5 28 68.5s41.334 28.5 68.001 28.5z" />
    <glyph glyph-name="divide" unicode="&#xf7;" horiz-adv-x="994" 
d="M974 506h-954v73h954v-73zM498 343c21.333 0 39.333 -7.66699 54 -23s22 -33.666 22 -54.999s-7.33301 -39.666 -22 -54.999s-32.667 -23 -54 -23c-22 0 -40.5 7.66699 -55.5 23s-22.5 33.666 -22.5 54.999s7.5 39.666 22.5 54.999s33.5 23 55.5 23zM498 891
c21.333 0 39.333 -7.5 54 -22.5s22 -33.167 22 -54.5s-7.33301 -39.5 -22 -54.5s-33 -22.5 -55 -22.5c-21.333 0 -39.5 7.5 -54.5 22.5s-22.5 33.167 -22.5 54.5s7.5 39.5 22.5 54.5s33.5 22.5 55.5 22.5z" />
    <glyph glyph-name="oslash" unicode="&#xf8;" horiz-adv-x="905" 
d="M712 750l117.999 130.001l41 -38l-120 -135c63.333 -78.667 95 -170.334 95 -275.001c0 -64.667 -10.833 -124 -32.5 -178s-50.5 -100.667 -86.5 -140s-78.167 -70 -126.5 -92s-99.166 -33 -152.499 -33c-24 0 -46.667 1.83301 -68 5.5s-41.833 9.5 -61.5 17.5
s-39.667 18.5 -60 31.5s-41.5 28.833 -63.5 47.5l-119 -136l-42 38l125 140c-14.667 18 -27.667 38.667 -39 62s-21 47.666 -29 72.999s-14.167 50.833 -18.5 76.5s-6.5 49.834 -6.5 72.501c0 62.667 11 120.334 33 173.001s51 98.167 87 136.5s77.667 68.333 125 90
s97 32.5 149 32.5c48.667 0 92.5 -7.83301 131.5 -23.5s79.167 -40.834 120.5 -75.501zM645.999 593.001l-356.001 -398.001c16 -27.333 31 -50.166 45 -68.499s28.667 -33 44 -44s31.333 -18.667 48 -23s35.334 -6.5 56.001 -6.5c28.667 0 55.167 5.16699 79.5 15.5
s45.333 28.166 63 53.499s31.5 58 41.5 98s15 89.667 15 149c0 72.667 -12 147.334 -36 224.001zM622.998 651c-30.667 52 -60.667 88.333 -90 109s-63.333 31 -102 31c-28 0 -54.333 -5.83301 -79 -17.5s-46 -29.5 -64 -53.5s-32.333 -55.5 -43 -94.5
s-16 -86.167 -16 -141.5c0 -70 11.667 -147 35 -231z" />
    <glyph glyph-name="ugrave" unicode="&#xf9;" horiz-adv-x="905" 
d="M767 817l0.00195312 -490.997c0 -56 1 -99.333 3 -130s5.16699 -53.334 9.5 -68.001s10.5 -23.5 18.5 -26.5s18.333 -4.5 31 -4.5c16.667 0 37.334 5 62.001 15l12 -31l-243 -100h-40v172c-36 -38.667 -66.5 -69.5 -91.5 -92.5s-47.667 -40.5 -68 -52.5
s-39.333 -19.5 -57 -22.5s-36.834 -4.5 -57.501 -4.5c-74 0 -127.167 27.5 -159.5 82.5s-48.5 132.5 -48.5 232.5v362c0 27.333 -2.16699 49.166 -6.5 65.499s-11.5 28.833 -21.5 37.5s-23 14.667 -39 18s-35.667 5 -59 5h-11v33h284v-543
c0 -38.667 3.66699 -70.167 11 -94.5s17.166 -43 29.499 -56s26.666 -21.667 42.999 -26s33.166 -6.5 50.499 -6.5c26 0 54.833 7.83301 86.5 23.5s69.834 45.834 114.501 90.501v458c0 23.333 -1.66699 42.666 -5 57.999s-10 27.666 -20 36.999s-23.333 16 -40 20
s-38 6 -64 6v33h276zM89.002 1218h197l93 -305h-30z" />
    <glyph glyph-name="uacute" unicode="&#xfa;" horiz-adv-x="905" 
d="M767 817l0.00195312 -490.997c0 -56 1 -99.333 3 -130s5.16699 -53.334 9.5 -68.001s10.5 -23.5 18.5 -26.5s18.333 -4.5 31 -4.5c16.667 0 37.334 5 62.001 15l12 -31l-243 -100h-40v172c-36 -38.667 -66.5 -69.5 -91.5 -92.5s-47.667 -40.5 -68 -52.5
s-39.333 -19.5 -57 -22.5s-36.834 -4.5 -57.501 -4.5c-74 0 -127.167 27.5 -159.5 82.5s-48.5 132.5 -48.5 232.5v362c0 27.333 -2.16699 49.166 -6.5 65.499s-11.5 28.833 -21.5 37.5s-23 14.667 -39 18s-35.667 5 -59 5h-11v33h284v-543
c0 -38.667 3.66699 -70.167 11 -94.5s17.166 -43 29.499 -56s26.666 -21.667 42.999 -26s33.166 -6.5 50.499 -6.5c26 0 54.833 7.83301 86.5 23.5s69.834 45.834 114.501 90.501v458c0 23.333 -1.66699 42.666 -5 57.999s-10 27.666 -20 36.999s-23.333 16 -40 20
s-38 6 -64 6v33h276zM669.002 1172l-262 -305h-30l92 305h200z" />
    <glyph glyph-name="ucircumflex" unicode="&#xfb;" horiz-adv-x="905" 
d="M767 817l0.00195312 -490.997c0 -56 1 -99.333 3 -130s5.16699 -53.334 9.5 -68.001s10.5 -23.5 18.5 -26.5s18.333 -4.5 31 -4.5c16.667 0 37.334 5 62.001 15l12 -31l-243 -100h-40v172c-36 -38.667 -66.5 -69.5 -91.5 -92.5s-47.667 -40.5 -68 -52.5
s-39.333 -19.5 -57 -22.5s-36.834 -4.5 -57.501 -4.5c-74 0 -127.167 27.5 -159.5 82.5s-48.5 132.5 -48.5 232.5v362c0 27.333 -2.16699 49.166 -6.5 65.499s-11.5 28.833 -21.5 37.5s-23 14.667 -39 18s-35.667 5 -59 5h-11v33h284v-543
c0 -38.667 3.66699 -70.167 11 -94.5s17.166 -43 29.499 -56s26.666 -21.667 42.999 -26s33.166 -6.5 50.499 -6.5c26 0 54.833 7.83301 86.5 23.5s69.834 45.834 114.501 90.501v458c0 23.333 -1.66699 42.666 -5 57.999s-10 27.666 -20 36.999s-23.333 16 -40 20
s-38 6 -64 6v33h276zM339.002 1218h162l168 -293h-27l-241 189l-204 -189h-26z" />
    <glyph glyph-name="udieresis" unicode="&#xfc;" horiz-adv-x="905" 
d="M767 817l0.00195312 -490.997c0 -56 1 -99.333 3 -130s5.16699 -53.334 9.5 -68.001s10.5 -23.5 18.5 -26.5s18.333 -4.5 31 -4.5c16.667 0 37.334 5 62.001 15l12 -31l-243 -100h-40v172c-36 -38.667 -66.5 -69.5 -91.5 -92.5s-47.667 -40.5 -68 -52.5
s-39.333 -19.5 -57 -22.5s-36.834 -4.5 -57.501 -4.5c-74 0 -127.167 27.5 -159.5 82.5s-48.5 132.5 -48.5 232.5v362c0 27.333 -2.16699 49.166 -6.5 65.499s-11.5 28.833 -21.5 37.5s-23 14.667 -39 18s-35.667 5 -59 5h-11v33h284v-543
c0 -38.667 3.66699 -70.167 11 -94.5s17.166 -43 29.499 -56s26.666 -21.667 42.999 -26s33.166 -6.5 50.499 -6.5c26 0 54.833 7.83301 86.5 23.5s69.834 45.834 114.501 90.501v458c0 23.333 -1.66699 42.666 -5 57.999s-10 27.666 -20 36.999s-23.333 16 -40 20
s-38 6 -64 6v33h276zM262.002 1117c26.667 0 49.501 -9.5 68.501 -28.5s28.5 -41.833 28.5 -68.5c0 -26 -9.5 -48.5 -28.5 -67.5s-41.833 -28.5 -68.5 -28.5c-26 0 -48.5 9.5 -67.5 28.5s-28.5 41.5 -28.5 67.5c0 26.667 9.16699 49.5 27.5 68.5s41.166 28.5 68.499 28.5z
M574.003 1117c26 0 48.333 -9.5 67 -28.5s28 -41.833 28 -68.5c0 -26 -9.33301 -48.5 -28 -67.5s-41 -28.5 -67 -28.5c-26.667 0 -49.334 9.5 -68.001 28.5s-28 41.5 -28 67.5c0 26.667 9.33301 49.5 28 68.5s41.334 28.5 68.001 28.5z" />
    <glyph glyph-name="yacute" unicode="&#xfd;" horiz-adv-x="906" 
d="M11 905l377.998 0.000976562v-33h-19c-26.667 0 -46.5 -5.66699 -59.5 -17s-19.5 -26 -19.5 -44c0 -23.333 9.66699 -55 29 -95l197 -409l182 448c9.33301 24.667 14 48.667 14 72c0 14 -4.5 25 -13.5 33s-31.833 12 -68.5 12v33h264v-33
c-15.333 -1.33301 -28.166 -3.33301 -38.499 -6s-19.333 -8 -27 -16s-15.5 -20 -23.5 -36s-17.667 -37.667 -29 -65l-330 -807c-16 -38.667 -35 -73 -57 -103s-45.167 -55 -69.5 -75s-49.166 -35 -74.499 -45s-50 -15 -74 -15c-17.333 0 -33.333 2.66699 -48 8
s-27.334 12.666 -38.001 21.999s-18.834 19.833 -24.501 31.5s-8.5 24.167 -8.5 37.5c0 24.667 8.16699 44.5 24.5 59.5s38.5 22.5 66.5 22.5c6.66699 0 16.334 -1.83301 29.001 -5.5l38.5 -11.5l35.5 -11c10.667 -3.33301 17.334 -5 20.001 -5c17.333 0 36.5 9.5 57.5 28.5
s42.5 54.167 64.5 105.5l58 140l-292 612c-16 36 -35 65.333 -57 88s-51 38 -87 46v33zM794.998 1287l-262 -305h-30l92 305h200z" />
    <glyph glyph-name="thorn" unicode="&#xfe;" horiz-adv-x="905" 
d="M-2 1250l250 101.999h33v-617c42 71.333 84 121.333 126 150s86 43 132 43s87.667 -10.5 125 -31.5s69.333 -49.833 96 -86.5s47.167 -79.167 61.5 -127.5s21.5 -99.833 21.5 -154.5c0 -61.333 -8.5 -119.833 -25.5 -175.5s-41.667 -104.5 -74 -146.5
s-71.333 -75.333 -117 -100s-96.834 -37 -153.501 -37c-20 0 -38.167 0.833008 -54.5 2.5s-32 5.16699 -47 10.5s-29.667 12.833 -44 22.5s-29.833 21.834 -46.5 36.501v-247c0 -28 0.666992 -50.333 2 -67s3.66602 -29.667 6.99902 -39s7.83301 -16.166 13.5 -20.499
s13.167 -8.5 22.5 -12.5c16.667 -9.33301 47.334 -14 92.001 -14v-34h-425v34l22 -1c19.333 0 36.5 0.833008 51.5 2.5s27.333 7.66699 37 18s17.167 26.166 22.5 47.499s8 52 8 92v1192c0 31.333 -1 56.5 -3 75.5s-5.66699 33.5 -11 43.5s-12.666 16.667 -21.999 20
s-21 5 -35 5c-16 0 -34 -4.66699 -54 -14zM281 681.999l-0.000976562 -302.003c0 -64.667 2.66699 -107.667 8 -129c3.33301 -18 10.333 -34.667 21 -50s23.834 -28.833 39.501 -40.5s33.834 -21.167 54.501 -28.5s43 -11 67 -11c34 0 64.5 8.16699 91.5 24.5
s49.667 38.833 68 67.5s32.166 62.834 41.499 102.501s14 82.834 14 129.501c0 50.667 -5 97.667 -15 141s-24.5 80.833 -43.5 112.5s-42 56.5 -69 74.5s-56.5 27 -88.5 27c-13.333 0 -25.833 -0.666992 -37.5 -2s-24 -5.5 -37 -12.5s-28.5 -18.667 -46.5 -35
s-40.667 -39.166 -68 -68.499z" />
    <glyph glyph-name="ydieresis" unicode="&#xff;" horiz-adv-x="906" 
d="M11 905l377.998 0.000976562v-33h-19c-26.667 0 -46.5 -5.66699 -59.5 -17s-19.5 -26 -19.5 -44c0 -23.333 9.66699 -55 29 -95l197 -409l182 448c9.33301 24.667 14 48.667 14 72c0 14 -4.5 25 -13.5 33s-31.833 12 -68.5 12v33h264v-33
c-15.333 -1.33301 -28.166 -3.33301 -38.499 -6s-19.333 -8 -27 -16s-15.5 -20 -23.5 -36s-17.667 -37.667 -29 -65l-330 -807c-16 -38.667 -35 -73 -57 -103s-45.167 -55 -69.5 -75s-49.166 -35 -74.499 -45s-50 -15 -74 -15c-17.333 0 -33.333 2.66699 -48 8
s-27.334 12.666 -38.001 21.999s-18.834 19.833 -24.501 31.5s-8.5 24.167 -8.5 37.5c0 24.667 8.16699 44.5 24.5 59.5s38.5 22.5 66.5 22.5c6.66699 0 16.334 -1.83301 29.001 -5.5l38.5 -11.5l35.5 -11c10.667 -3.33301 17.334 -5 20.001 -5c17.333 0 36.5 9.5 57.5 28.5
s42.5 54.167 64.5 105.5l58 140l-292 612c-16 36 -35 65.333 -57 88s-51 38 -87 46v33zM350.998 1219c26.667 0 49.501 -9.5 68.501 -28.5s28.5 -41.833 28.5 -68.5c0 -26 -9.5 -48.5 -28.5 -67.5s-41.833 -28.5 -68.5 -28.5c-26 0 -48.5 9.5 -67.5 28.5
s-28.5 41.5 -28.5 67.5c0 26.667 9.16699 49.5 27.5 68.5s41.166 28.5 68.499 28.5zM662.999 1219c26 0 48.333 -9.5 67 -28.5s28 -41.833 28 -68.5c0 -26 -9.33301 -48.5 -28 -67.5s-41 -28.5 -67 -28.5c-26.667 0 -49.334 9.5 -68.001 28.5s-28 41.5 -28 67.5
c0 26.667 9.33301 49.5 28 68.5s41.334 28.5 68.001 28.5z" />
    <glyph glyph-name="OE" unicode="&#x152;" horiz-adv-x="1611" 
d="M977 1137v-473.006h161c68.667 0 116.834 13.833 144.501 41.5s41.5 71.834 41.5 132.501h34v-417h-34c-2.66699 36.667 -7.5 66.5 -14.5 89.5s-17.333 41 -31 54s-32 22 -55 27s-51.5 7.5 -85.5 7.5h-161v-396c0 -32.667 1.33301 -58 4 -76s7.66699 -31.167 15 -39.5
s17.833 -13.166 31.5 -14.499s31.834 -2 54.501 -2h93c36.667 0 66.667 0.666992 90 2s43.166 4.16602 59.499 8.49902s30.666 10.666 42.999 18.999s26.5 19.5 42.5 33.5c44 40.667 81.667 97.334 113 170.001h36l-95 -300h-429c-40 0 -83 -0.666992 -129 -2
s-90 -3.16602 -132 -5.49902s-78.333 -4.16602 -109 -5.49902s-50 -2 -58 -2c-70 0 -137.667 14 -203 42s-123 68.5 -173 121.5s-90 117.333 -120 193s-45 160.834 -45 255.501c0 152 41.667 286.333 125 403c98.667 140 244 210 436 210c2 0 17 -0.666992 45 -2
s62.5 -2.66602 103.5 -3.99902s84.833 -2.5 131.5 -3.5s89.334 -1.5 128.001 -1.5h418v-264h-18c-7.33301 38.667 -14.333 69 -21 91s-13.834 39 -21.501 51s-16.667 20.833 -27 26.5s-22.5 11.834 -36.5 18.501c-20 7.33301 -62 11 -126 11h-226zM807 924.994
c0 39.333 -1.33301 71.1689 -4 95.502s-6.66699 43.666 -12 57.999s-12 25.166 -20 32.499s-17.333 14 -28 20c-14.667 8 -31.334 14.333 -50.001 19s-39.334 7 -62.001 7c-54.667 0 -104.167 -11.833 -148.5 -35.5s-82.333 -59 -114 -106s-56.167 -105.833 -73.5 -176.5
s-26 -152 -26 -244c0 -77.333 7.66699 -149.333 23 -216s38 -124.167 68 -172.5s67.333 -86.166 112 -113.499s96.334 -41 155.001 -41c88.667 0 143.334 28.667 164.001 86c10.667 27.333 16 82.666 16 165.999v621z" />
    <glyph glyph-name="oe" unicode="&#x153;" horiz-adv-x="1308" 
d="M763 513c0 -7.33301 -0.331055 -13.8311 -0.998047 -19.498s-1 -10.5 -1 -14.5c0 -54.667 6.66699 -103.667 20 -147s31.166 -80.166 53.499 -110.499s48.333 -53.5 78 -69.5s61.167 -24 94.5 -24c47.333 0 89 14.833 125 44.5s64.667 78.834 86 147.501l29 -16
c-21.333 -113.333 -58.333 -195.5 -111 -246.5s-115.667 -76.5 -189 -76.5c-58 0 -107.167 13.833 -147.5 41.5s-70.833 61.5 -91.5 101.5c-72.667 -95.333 -166.334 -143 -281.001 -143c-52 0 -100.167 9.83301 -144.5 29.5s-83.166 47.667 -116.499 84
s-59.5 80.166 -78.5 131.499s-28.5 108.666 -28.5 171.999c0 68 9.83301 129.167 29.5 183.5s46.5 100.666 80.5 138.999s73.667 67.833 119 88.5s93.666 31 144.999 31c63.333 0 118 -13 164 -39s83 -59.667 111 -101c35.333 50.667 72 86.667 110 108s85 32 141 32
c42.667 0 81.5 -7 116.5 -21s65.333 -34.667 91 -62s45.5 -60.333 59.5 -99s21 -82.334 21 -131.001v-14h-484zM401.002 791.002c-20 0 -40.667 -4.83008 -62 -14.4971s-40.5 -26.334 -57.5 -50.001s-30.833 -55.334 -41.5 -95.001s-16 -89.167 -16 -148.5
c0 -58.667 5 -114.334 15 -167.001s24.5 -99 43.5 -139s42.667 -72.167 71 -96.5s60.5 -36.5 96.5 -36.5c25.333 0 49 4.83301 71 14.5s41.333 26 58 49s29.667 53.5 39 91.5s14 85 14 141c0 68 -5 129.667 -15 185s-24.833 102.833 -44.5 142.5s-44 70.167 -73 91.5
s-61.833 32 -98.5 32zM763.002 570.005l310 -0.000976562c0 28 -3.16699 54.833 -9.5 80.5s-15.833 48.334 -28.5 68.001s-28.667 35.167 -48 46.5s-42.333 17 -69 17c-39.333 0 -74 -17.5 -104 -52.5s-47 -88.167 -51 -159.5z" />
    <glyph glyph-name="Scaron" unicode="&#x160;" horiz-adv-x="1006" 
d="M830 1233l-0.00390625 -414.004h-33c-15.333 111.333 -52 196.5 -110 255.5s-132 88.5 -222 88.5c-30.667 0 -58.667 -5.33301 -84 -16s-47.666 -24.5 -66.999 -41.5s-34.333 -36.5 -45 -58.5s-16 -45 -16 -69c0 -22 4.33301 -42.833 13 -62.5s24.5 -40.167 47.5 -61.5
s53.667 -44 92 -68s87.5 -52 147.5 -84c56 -30.667 103 -57.667 141 -81s67 -43 87 -59c41.333 -31.333 73 -68.833 95 -112.5s33 -89.167 33 -136.5c0 -44.667 -9.16699 -87.334 -27.5 -128.001s-44 -76.167 -77 -106.5s-72.833 -54.5 -119.5 -72.5s-98 -27 -154 -27
c-34.667 0 -67 2.66699 -97 8c-5.33301 0.666992 -19.166 4.33398 -41.499 11.001l-72 20.5l-71.5 20c-22 6.33301 -34.667 9.5 -38 9.5c-15.333 0 -27.166 -4.5 -35.499 -13.5s-14.5 -27.5 -18.5 -55.5h-33v412h33c15.333 -84.667 36 -149.334 62 -194.001
c12 -21.333 28.333 -41 49 -59s44 -33.833 70 -47.5s54 -24.167 84 -31.5s60.333 -11 91 -11c36.667 0 69.834 5.16699 99.501 15.5s54.834 24.5 75.501 42.5s36.5 39 47.5 63s16.5 49 16.5 75c0 30 -8.16699 60 -24.5 90s-41.5 58.333 -75.5 85
c-4.66699 2.66699 -16.167 9.66699 -34.5 21l-67.5 40l-86.5 50.5l-89.5 54l-78 48.5c-23.333 14.667 -40.333 26.334 -51 35.001c-43.333 34.667 -76.166 72.334 -98.499 113.001s-33.5 86.334 -33.5 137.001c0 42 8.83301 82.167 26.5 120.5s42.167 72 73.5 101
s68.5 51.833 111.5 68.5s89.5 25 139.5 25c63.333 0 130.666 -15.333 201.999 -46c16.667 -7.33301 30.667 -13.166 42 -17.499s20.666 -6.16602 27.999 -5.49902c16 0 28.833 4.5 38.5 13.5s17.167 27.5 22.5 55.5h33zM579.996 1300h-162l-168 292h27l241 -187l204 187h26z
" />
    <glyph glyph-name="scaron" unicode="&#x161;" horiz-adv-x="704" 
d="M580 840l0.000976562 -276.003h-30c-10.667 43.333 -23.167 79.5 -37.5 108.5s-30.333 51.833 -48 68.5s-37.834 28.667 -60.501 36s-47 11 -73 11c-21.333 0 -40.333 -3.16699 -57 -9.5s-31.167 -14.333 -43.5 -24s-21.833 -20.667 -28.5 -33s-10 -25.166 -10 -38.499
c0 -16.667 2 -32 6 -46s11.333 -27.167 22 -39.5s25 -24.666 43 -36.999s41 -25.5 69 -39.5l130 -63c119.333 -58.667 179 -135.667 179 -231c0 -37.333 -7.66699 -71.166 -23 -101.499s-35.833 -56 -61.5 -77s-54.667 -37.5 -87 -49.5s-65.5 -18 -99.5 -18
c-25.333 0 -52 2 -80 6s-58 10.667 -90 20c-9.33301 2.66699 -18 5 -26 7s-15 3 -21 3c-13.333 0 -24 -7.66699 -32 -23h-29v289h29c8 -41.333 20.333 -77.5 37 -108.5s36 -57 58 -78s46.5 -36.667 73.5 -47s54.5 -15.5 82.5 -15.5c20 0 38.333 3 55 9
s31.167 14.5 43.5 25.5s22 24 29 39s10.5 30.833 10.5 47.5c0 20.667 -3 39 -9 55s-17 31.833 -33 47.5s-37.833 31.834 -65.5 48.501s-63.5 36 -107.5 58c-42.667 20.667 -77.5 40.334 -104.5 59.001s-48.167 37.167 -63.5 55.5s-25.666 37.666 -30.999 57.999
s-8 43.166 -8 68.499c0 34 6 65.167 18 93.5s29 53.166 51 74.499s47.833 37.833 77.5 49.5s62.834 17.5 99.501 17.5c11.333 0 25.666 -1.66699 42.999 -5s35.166 -7.16602 53.499 -11.499l49.5 -12c14.667 -3.66699 24.667 -5.5 30 -5.5c10 0 17.333 2 22 6
s10.667 13.333 18 28h30zM434.001 937.997h-163l-168 293h27l242 -187l202 187h27z" />
    <glyph glyph-name="Ydieresis" unicode="&#x178;" horiz-adv-x="1309" 
d="M884 1194l418.997 -0.000976562v-33h-24c-33.333 0 -69.5 -15.167 -108.5 -45.5s-81.5 -82.833 -127.5 -157.5l-290 -456v-301c0 -40 3 -71.667 9 -95s14.5 -40.833 25.5 -52.5s24.5 -19 40.5 -22s34.667 -4.5 56 -4.5h38v-33h-509v33h43c21.333 0 40 1.83301 56 5.5
s29.167 11.334 39.5 23.001s18.166 29 23.499 52s8 54.167 8 93.5v285l-329 502l-49 72c-12.667 18 -22.667 31 -30 39c-3.33301 3.33301 -9.16602 8.5 -17.499 15.5s-18.666 13.833 -30.999 20.5s-26 12.667 -41 18s-30.833 8 -47.5 8v33h512v-33h-26
c-13.333 0 -26.666 -1.5 -39.999 -4.5s-25.166 -7.66699 -35.499 -14s-18.833 -14.5 -25.5 -24.5s-10 -21.667 -10 -35c-0.666992 -10.667 3.83301 -25.5 13.5 -44.5s23.167 -42.5 40.5 -70.5l249 -387l237 370c33.333 54 51 95.333 53 124c-2 12.667 -5 24.167 -9 34.5
s-10.667 19.333 -20 27s-21.5 13.667 -36.5 18s-33.833 6.5 -56.5 6.5v33zM571.997 1468c26.667 0 49.501 -9.5 68.501 -28.5s28.5 -41.833 28.5 -68.5c0 -26 -9.5 -48.5 -28.5 -67.5s-41.833 -28.5 -68.5 -28.5c-26 0 -48.5 9.5 -67.5 28.5s-28.5 41.5 -28.5 67.5
c0 26.667 9.16699 49.5 27.5 68.5s41.166 28.5 68.499 28.5zM860.998 1467c26 0 48.333 -9.5 67 -28.5s28 -41.833 28 -68.5c0 -26 -9.33301 -48.5 -28 -67.5s-41 -28.5 -67 -28.5c-26.667 0 -49.334 9.5 -68.001 28.5s-28 41.5 -28 67.5c0 26.667 9.33301 49.5 28 68.5
s41.334 28.5 68.001 28.5z" />
    <glyph glyph-name="Zcaron" unicode="&#x17d;" horiz-adv-x="1105" 
d="M1041 1200l-788.001 -1127h492c38 0 71.167 3.5 99.5 10.5s53.5 19.667 75.5 38s41.333 43.833 58 76.5s33 74.334 49 125.001l29 -5l-57 -318h-977v33l770 1094h-383c-48.667 0 -87.5 -3.66699 -116.5 -11s-51.833 -19.833 -68.5 -37.5s-29.167 -41.167 -37.5 -70.5
s-16.166 -65.666 -23.499 -108.999h-34l25 301h887zM648.999 1294h-164l-167 291h27l242 -187l202 187h26z" />
    <glyph glyph-name="zcaron" unicode="&#x17e;" horiz-adv-x="803" 
d="M760 248v-248h-725v32l539 716h-266c-28.667 0 -52 -0.833008 -70 -2.5s-32.333 -4.5 -43 -8.5s-19.167 -9.33301 -25.5 -16s-12.166 -15 -17.499 -25c-15.333 -29.333 -24.333 -66 -27 -110h-36v224h685v-33l-542 -718h294c32 0 58 1.16699 78 3.5s36.5 6.33301 49.5 12
s23.167 13 30.5 22s14.666 19.833 21.999 32.5c4 10 8.16699 24.667 12.5 44s7.83301 44.333 10.5 75h31zM497 932h-162l-168 293h26l242 -187l203 187h27z" />
    <glyph glyph-name="florin" unicode="&#x192;" horiz-adv-x="905" 
d="M607 866l157.997 -0.0078125l-16 -58h-153c-15.333 -80 -35.666 -171.667 -60.999 -275s-56 -220.333 -92 -351c-25.333 -90.667 -51.166 -166.167 -77.499 -226.5s-53.333 -108.666 -81 -144.999s-56.334 -62 -86.001 -77s-59.5 -22.5 -89.5 -22.5
c-33.333 0 -59.666 9 -78.999 27s-29 40.333 -29 67c0 22.667 7 41.334 21 56.001s30 22 48 22c14.667 0 27.667 -5.16699 39 -15.5s17 -21.5 17 -33.5c0 -12.667 -3.5 -23.167 -10.5 -31.5s-10.5 -15.166 -10.5 -20.499c0 -4 2 -8 6 -12s9.66699 -6 17 -6c12 0 24 3 36 9
s28 26.667 48 62c24 40.667 40.833 80.5 50.5 119.5s28.5 120.5 56.5 244.5c27.333 146.667 47.833 249.334 61.5 308.001l70.5 301h-157l13 58c30.667 2.66699 54.667 4.83398 72 6.50098s30.833 4 40.5 7s16.667 6.83301 21 11.5s9.16602 10.334 14.499 17.001
c14 18.667 31.667 58.334 53 119.001c22 63.333 42.833 114.166 62.5 152.499s39.834 67.833 60.501 88.5s41.667 34.334 63 41.001s44.333 10 69 10c36.667 0 65.834 -9.66699 87.501 -29s32.5 -42.666 32.5 -69.999c0 -20.667 -5.83301 -37.167 -17.5 -49.5
s-25.834 -18.5 -42.501 -18.5c-15.333 0 -28.333 5.16699 -39 15.5s-16 21.5 -16 33.5c0 10 3 20.5 9 31.5s9 18.5 9 22.5c0 15.333 -10 23 -30 23c-25.333 0 -45.666 -9.66699 -60.999 -29s-27.833 -47 -37.5 -83s-20.5 -93.667 -32.5 -173z" />
    <glyph glyph-name="circumflex" unicode="&#x2c6;" horiz-adv-x="603" 
d="M221 999h162l168 -293h-27l-241 189l-204 -189h-26z" />
    <glyph glyph-name="tilde" unicode="&#x2dc;" horiz-adv-x="603" 
d="M48 736l-27.9961 0.000976562c2.66699 80.667 19.667 139.167 51 175.5s69.666 54.5 114.999 54.5c13.333 0 26.166 -1.16699 38.499 -3.5s25.166 -6.33301 38.499 -12s28.166 -13.334 44.499 -23.001s35.5 -22.167 57.5 -37.5c46 -32 82 -48 108 -48
c8.66699 0 17.334 1.5 26.001 4.5s16.5 9.16699 23.5 18.5s13.5 22 19.5 38s11 37 15 63h28c0 -38.667 -4.33301 -72.667 -13 -102s-20.834 -53.833 -36.501 -73.5s-33.5 -34.334 -53.5 -44.001s-41.667 -14.5 -65 -14.5c-46.667 0 -104.667 23.667 -174 71
c-19.333 13.333 -34.666 23.5 -45.999 30.5s-21 12.333 -29 16s-14.667 5.83398 -20 6.50098s-11.333 1 -18 1c-10.667 0 -19.834 -0.833008 -27.501 -2.5s-14.5 -6.5 -20.5 -14.5s-11.667 -20 -17 -36s-11 -38.667 -17 -68z" />
    <glyph glyph-name="tibtOm" unicode="&#xf00;" horiz-adv-x="1311" 
d="M347 640c109.333 -26 172 -70.6641 188 -133.997c-3.33301 -26 -20.666 -42.167 -51.999 -48.5s-60 -8.5 -86 -6.5c-138 -2 -210 62.333 -216 193c0 82 15 156 45 222h82v233h-210v-233h60c-16 -48 -34 -98 -54 -150c-18.667 -58.667 -28 -124.667 -28 -198
c-2 -166.667 88.333 -250 271 -250c65.333 0 132 15.667 200 47s105 78.666 111 141.999c-4 50 -26.833 92 -68.5 126s-79.834 60.333 -114.501 79c0 33.333 16.333 53.333 49 60c87.333 -28.667 202 -107.334 344 -236.001s245.333 -271.334 310 -428.001h21v1041h-210
v-233c113.333 -90 163.333 -221 150 -393c-124 149.333 -259 280.333 -405 393h89v233h-288c0 48 21.667 80.167 65 96.5s88 24.5 134 24.5h200c106.667 0 179 30 217 90s61.667 141 71 243c-5.33301 5.33301 -13 5.33301 -23 0c-44 -128.667 -154.333 -191.667 -331 -189
c-124 10 -225.667 -25 -305 -105c-14.667 -20 -31 -40 -49 -60c-122 153.333 -268 216 -438 188l-17 -144h239c36.667 -4 78.5 -30.333 125.5 -79s84.167 -98 111.5 -148v-150h72c-90 -60.667 -176.667 -128.667 -260 -204c-6 -12 -6 -19.333 0 -22v0zM530 1697
c-114.667 -2 -175.667 -61 -183 -177c11.333 -106 70.333 -163.333 177 -172c105.333 6 164.333 65 177 177c-12.667 114.667 -69.667 172 -171 172v0zM530 1636c61.333 2 98.333 -35 111 -111c3.33301 -72 -39 -110.667 -127 -116c-61.333 0 -96.333 38.667 -105 116
c8.66699 72 49 109 121 111v0z" />
    <glyph glyph-name="tibtTruncatedA" unicode="&#xf01;" horiz-adv-x="1299" 
d="M808 877c39.333 -51.333 77.6689 -108.496 115.002 -171.496s73.166 -130.333 107.499 -202s65.333 -145.5 93 -221.5s49.834 -152.333 66.501 -229l45 -199c-40.667 90 -88.167 184.167 -142.5 282.5s-111.5 191.333 -171.5 279s-119.833 165.667 -179.5 234
s-116.5 118.5 -170.5 150.5c-19.333 -21.333 -41.833 -47.5 -67.5 -78.5s-47.167 -65.5 -64.5 -103.5c86 6 149.833 -3.83301 191.5 -29.5s67.834 -59.334 78.501 -101.001s8 -87.667 -8 -138s-39 -97.5 -69 -141.5s-63.667 -80.833 -101 -110.5s-73.333 -44.5 -108 -44.5
c-76.667 0 -143.834 16 -201.501 48s-93 68.167 -106 108.5s-20.667 86.333 -23 138s-0.833008 106.334 4.5 164.001s13.5 117.5 24.5 179.5l32.5 186l-74 29l71 183h218l-87 -212c-17.333 -14.667 -32.333 -34.834 -45 -60.501s-23.834 -53.5 -33.501 -83.5
s-17.167 -60 -22.5 -90s-9 -57.667 -11 -83c-4.66699 -51.333 -0.5 -102.666 12.5 -153.999s51.5 -95.333 115.5 -132c28 -14.667 58.5 -25.834 91.5 -33.501s64.5 -11 94.5 -10s57.833 5.83301 83.5 14.5s44.834 21.667 57.501 39
c15.333 19.333 18.666 41.166 9.99902 65.499s-27.334 46.166 -56.001 65.499s-66 32.166 -112 38.499s-99 -1.16699 -159 -22.5l74 180c14.667 38 28.5 69.5 41.5 94.5s25.333 47 37 66l32 53l30.5 52.5h-86l89 212h421l-78 -212h-61z" />
    </font>
</defs>
</svg>
